<svg width="276" height="239" viewBox="0 0 276 239" fill="none" xmlns="http://www.w3.org/2000/svg">
<g filter="url(#filter0_f_26_9677)">
<path d="M206.358 74L203.37 43.0625H192.875L189.94 74H195.793L196.233 69.0078H199.959L200.346 74H206.358ZM199.52 64.0684H196.707L198.061 48.3359H198.342L199.52 64.0684ZM184.547 74V47.6328H178.148V50.5684C177.844 49.5488 177.305 48.752 176.531 48.1777C175.758 47.6035 174.785 47.3164 173.613 47.3164V52.5723C174.129 52.5723 174.744 52.6309 175.459 52.748C176.174 52.8535 176.801 53.0059 177.34 53.2051C177.879 53.3926 178.148 53.6035 178.148 53.8379V74H184.547ZM163.052 74.2812C164.752 74.2812 165.9 73.9238 166.498 73.209C167.084 72.4824 167.377 71.375 167.377 69.8867V53.4512H169.152V48.6523H167.377V43.0625H161.259V48.6523H159.484V53.4512H161.259V68.4102C161.259 68.8438 161.189 69.1484 161.048 69.3242C160.908 69.5 160.638 69.5879 160.24 69.5879C159.959 69.5879 159.707 69.5645 159.484 69.5176V73.8066C159.625 73.8535 160.064 73.9414 160.802 74.0703C161.541 74.2109 162.291 74.2812 163.052 74.2812ZM153.898 46.0156V40.7773H147.605V46.0156H153.898ZM153.898 74V47.6328H147.605V74H153.898ZM140.929 74V53.5918H142.071V48.793H140.929V47C140.929 44.1641 139.511 42.7461 136.675 42.7461C135.339 42.7461 134.261 42.916 133.44 43.2559V47.1406C133.733 47.082 133.927 47.0527 134.02 47.0527C134.384 47.0527 134.606 47.1875 134.688 47.457C134.77 47.7148 134.811 48.0488 134.811 48.459V48.793H133.44V53.6621H134.688V74H140.929ZM131.454 46.0156V40.7773H125.161V46.0156H131.454ZM131.454 74V47.6328H125.161V74H131.454ZM111.137 74.2812C114.09 74.2812 116.188 73.5254 117.43 72.0137C118.661 70.502 119.276 68.2812 119.276 65.3516V57.2305C119.276 55.0273 119.041 53.1934 118.573 51.7285C118.104 50.2637 117.284 49.168 116.112 48.4414C114.94 47.7148 113.311 47.3516 111.225 47.3516C109.772 47.3516 108.471 47.6094 107.323 48.125C106.162 48.6406 105.248 49.3965 104.58 50.3926C103.912 51.3887 103.579 52.6074 103.579 54.0488V58.0742H109.995V54.3828C109.995 53.7734 110.082 53.2637 110.258 52.8535C110.434 52.4316 110.815 52.2207 111.401 52.2207C112.432 52.2207 112.948 52.9531 112.948 54.418V67.1973C112.948 67.7363 112.83 68.2344 112.596 68.6914C112.362 69.1367 111.975 69.3594 111.436 69.3594C110.885 69.3594 110.504 69.1426 110.293 68.709C110.071 68.2637 109.959 67.748 109.959 67.1621V62.7324H103.579V67.3379C103.579 68.791 103.907 70.0391 104.563 71.082C105.207 72.1133 106.098 72.9043 107.235 73.4551C108.371 74.0059 109.672 74.2812 111.137 74.2812ZM92.9824 74.2812C94.4473 74.2812 95.5664 73.9414 96.3398 73.2617C97.1016 72.582 97.623 71.6504 97.9043 70.4668C98.1855 69.2832 98.3262 67.9414 98.3262 66.4414C98.3262 64.8359 98.168 63.5234 97.8516 62.5039C97.5352 61.4727 96.9961 60.6289 96.2344 59.9727C95.4609 59.3164 94.4004 58.7598 93.0527 58.3027L89.1504 56.9668V54.2598C89.1504 52.8418 89.6133 52.1328 90.5391 52.1328C91.3828 52.1328 91.8047 52.707 91.8047 53.8555V55.4375H97.9219C97.9336 55.3438 97.9395 55.2266 97.9395 55.0859C97.9395 54.9336 97.9395 54.7637 97.9395 54.5762C97.9395 51.9512 97.3242 50.0938 96.0938 49.0039C94.8516 47.9023 92.8887 47.3516 90.2051 47.3516C88.7988 47.3516 87.5391 47.6035 86.4258 48.1074C85.3125 48.5996 84.4336 49.332 83.7891 50.3047C83.1328 51.2773 82.8047 52.4785 82.8047 53.9082V74H89.0625V70.8711C89.3672 71.9727 89.8711 72.8164 90.5742 73.4023C91.2773 73.9883 92.0801 74.2812 92.9824 74.2812ZM90.5039 69.3945C89.9883 69.3945 89.6367 69.1777 89.4492 68.7441C89.2617 68.3105 89.168 67.8418 89.168 67.3379V59.9902C90.0352 60.3418 90.709 60.7871 91.1895 61.3262C91.6699 61.8535 91.9102 62.6328 91.9102 63.6641V67.0566C91.9102 68.6152 91.4414 69.3945 90.5039 69.3945ZM76.7789 74V43.0625H70.3805V74H76.7789ZM235.576 128V97.0625H229.6V128H235.576ZM223.644 128V101.633H217.351V104.99C217.117 103.982 216.683 103.127 216.05 102.424C215.406 101.709 214.515 101.352 213.379 101.352C211.55 101.352 210.226 101.914 209.406 103.039C208.574 104.164 208.158 105.705 208.158 107.662V128H214.363V108.312C214.363 107.797 214.468 107.322 214.679 106.889C214.89 106.443 215.254 106.221 215.769 106.221C216.25 106.221 216.607 106.391 216.841 106.73C217.064 107.059 217.205 107.475 217.263 107.979C217.322 108.471 217.351 108.963 217.351 109.455V128H223.644ZM196.665 128.281C198.364 128.281 199.513 127.924 200.111 127.209C200.696 126.482 200.989 125.375 200.989 123.887V107.451H202.765V102.652H200.989V97.0625H194.872V102.652H193.097V107.451H194.872V122.41C194.872 122.844 194.802 123.148 194.661 123.324C194.521 123.5 194.251 123.588 193.853 123.588C193.571 123.588 193.32 123.564 193.097 123.518V127.807C193.237 127.854 193.677 127.941 194.415 128.07C195.154 128.211 195.904 128.281 196.665 128.281ZM180.093 128.281C181.968 128.281 183.462 127.93 184.575 127.227C185.688 126.523 186.485 125.51 186.966 124.186C187.446 122.861 187.686 121.268 187.686 119.404V108.805C187.686 106.355 186.983 104.504 185.577 103.25C184.171 101.984 182.237 101.352 179.776 101.352C174.714 101.352 172.182 103.836 172.182 108.805V110.721C172.182 113.041 172.206 114.6 172.253 115.396H181.393V120.494C181.393 120.963 181.364 121.426 181.305 121.883C181.247 122.328 181.118 122.697 180.919 122.99C180.708 123.283 180.374 123.43 179.917 123.43C179.261 123.43 178.85 123.148 178.686 122.586C178.522 122.012 178.44 121.268 178.44 120.354V117.822H172.182V119.316C172.182 121.285 172.429 122.938 172.921 124.273C173.401 125.598 174.221 126.6 175.382 127.279C176.53 127.947 178.1 128.281 180.093 128.281ZM181.429 112.268H178.44V108.717C178.44 107.768 178.557 107.088 178.792 106.678C179.026 106.256 179.378 106.045 179.846 106.045C180.35 106.045 180.743 106.244 181.024 106.643C181.294 107.041 181.429 107.732 181.429 108.717V112.268ZM166.297 128V97.0625H159.899V128H166.297ZM153.803 100.016V94.7773H147.51V100.016H153.803ZM153.803 128V101.633H147.51V128H153.803ZM134.312 132.57C135.531 132.57 136.58 132.506 137.459 132.377C138.326 132.26 139.105 132.043 139.796 131.727C140.488 131.41 141.179 130.965 141.871 130.391L139.744 126.752C138.209 127.666 136.673 128.123 135.138 128.123C134.13 128.123 133.38 127.801 132.888 127.156C132.396 126.512 132.15 125.674 132.15 124.643V122.059C132.654 123.863 133.996 124.766 136.175 124.766C137.429 124.766 138.443 124.467 139.216 123.869C139.99 123.271 140.552 122.463 140.904 121.443C141.255 120.424 141.431 119.287 141.431 118.033V108.559C141.431 107.141 141.279 105.893 140.974 104.814C140.67 103.725 140.136 102.875 139.375 102.266C138.613 101.656 137.546 101.352 136.175 101.352C135.015 101.352 134.113 101.645 133.468 102.23C132.812 102.816 132.373 103.607 132.15 104.604V101.633H125.734V124.238C125.734 127.227 126.425 129.359 127.808 130.637C129.179 131.926 131.347 132.57 134.312 132.57ZM133.627 120.02C132.642 120.02 132.15 119.129 132.15 117.348V108.383C132.15 107.902 132.291 107.41 132.572 106.906C132.841 106.402 133.216 106.15 133.697 106.15C134.306 106.15 134.687 106.379 134.839 106.836C134.992 107.281 135.068 107.797 135.068 108.383V117.348C135.068 117.98 134.992 118.584 134.839 119.158C134.675 119.732 134.271 120.02 133.627 120.02ZM112.29 128.281C114.165 128.281 115.659 127.93 116.773 127.227C117.886 126.523 118.683 125.51 119.163 124.186C119.644 122.861 119.884 121.268 119.884 119.404V108.805C119.884 106.355 119.181 104.504 117.775 103.25C116.368 101.984 114.435 101.352 111.974 101.352C106.911 101.352 104.38 103.836 104.38 108.805V110.721C104.38 113.041 104.404 114.6 104.45 115.396H113.591V120.494C113.591 120.963 113.562 121.426 113.503 121.883C113.445 122.328 113.316 122.697 113.116 122.99C112.905 123.283 112.571 123.43 112.114 123.43C111.458 123.43 111.048 123.148 110.884 122.586C110.72 122.012 110.638 121.268 110.638 120.354V117.822H104.38V119.316C104.38 121.285 104.626 122.938 105.118 124.273C105.599 125.598 106.419 126.6 107.579 127.279C108.728 127.947 110.298 128.281 112.29 128.281ZM113.626 112.268H110.638V108.717C110.638 107.768 110.755 107.088 110.989 106.678C111.224 106.256 111.575 106.045 112.044 106.045C112.548 106.045 112.941 106.244 113.222 106.643C113.491 107.041 113.626 107.732 113.626 108.717V112.268ZM98.4949 128V101.633H92.202V104.99C91.9676 103.982 91.534 103.127 90.9012 102.424C90.2566 101.709 89.366 101.352 88.2293 101.352C86.4012 101.352 85.077 101.914 84.2566 103.039C83.4246 104.164 83.0086 105.705 83.0086 107.662V128H89.2137V108.312C89.2137 107.797 89.3191 107.322 89.5301 106.889C89.741 106.443 90.1043 106.221 90.6199 106.221C91.1004 106.221 91.4578 106.391 91.6922 106.73C91.9148 107.059 92.0555 107.475 92.1141 107.979C92.1727 108.471 92.202 108.963 92.202 109.455V128H98.4949ZM69.0023 128.281C71.9555 128.281 74.0531 127.525 75.2953 126.014C76.5258 124.502 77.141 122.281 77.141 119.352V111.23C77.141 109.027 76.9066 107.193 76.4379 105.729C75.9691 104.264 75.1488 103.168 73.977 102.441C72.8051 101.715 71.1762 101.352 69.0902 101.352C67.6371 101.352 66.3363 101.609 65.1879 102.125C64.0277 102.641 63.1137 103.396 62.4457 104.393C61.7777 105.389 61.4438 106.607 61.4438 108.049V112.074H67.8598V108.383C67.8598 107.773 67.9477 107.264 68.1234 106.854C68.2992 106.432 68.6801 106.221 69.266 106.221C70.2973 106.221 70.8129 106.953 70.8129 108.418V121.197C70.8129 121.736 70.6957 122.234 70.4613 122.691C70.227 123.137 69.8402 123.359 69.3012 123.359C68.7504 123.359 68.3695 123.143 68.1586 122.709C67.9359 122.264 67.8246 121.748 67.8246 121.162V116.732H61.4438V121.338C61.4438 122.791 61.7719 124.039 62.4281 125.082C63.0727 126.113 63.9633 126.904 65.1 127.455C66.2367 128.006 67.5375 128.281 69.0023 128.281ZM48.2637 128.281C50.1387 128.281 51.6328 127.93 52.7461 127.227C53.8594 126.523 54.6562 125.51 55.1367 124.186C55.6172 122.861 55.8574 121.268 55.8574 119.404V108.805C55.8574 106.355 55.1543 104.504 53.748 103.25C52.3418 101.984 50.4082 101.352 47.9473 101.352C42.8848 101.352 40.3535 103.836 40.3535 108.805V110.721C40.3535 113.041 40.377 114.6 40.4238 115.396H49.5645V120.494C49.5645 120.963 49.5352 121.426 49.4766 121.883C49.418 122.328 49.2891 122.697 49.0898 122.99C48.8789 123.283 48.5449 123.43 48.0879 123.43C47.4316 123.43 47.0215 123.148 46.8574 122.586C46.6934 122.012 46.6113 121.268 46.6113 120.354V117.822H40.3535V119.316C40.3535 121.285 40.5996 122.938 41.0918 124.273C41.5723 125.598 42.3926 126.6 43.5527 127.279C44.7012 127.947 46.2715 128.281 48.2637 128.281ZM49.5996 112.268H46.6113V108.717C46.6113 107.768 46.7285 107.088 46.9629 106.678C47.1973 106.256 47.5488 106.045 48.0176 106.045C48.5215 106.045 48.9141 106.244 49.1953 106.643C49.4648 107.041 49.5996 107.732 49.5996 108.717V112.268Z" fill="#EBEBEB"/>
</g>
<g filter="url(#filter1_f_26_9677)">
<rect width="172" height="31" rx="15.5" transform="matrix(-1 0 0 1 224 184)" fill="url(#paint0_linear_26_9677)" fill-opacity="0.6"/>
<rect x="-0.5" y="0.5" width="171" height="30" rx="15" transform="matrix(-1 0 0 1 223 184)" stroke="url(#paint1_linear_26_9677)" stroke-opacity="0.6"/>
<path d="M167.017 204.098C167.438 204.098 167.836 204.067 168.213 204.006C168.589 203.945 168.914 203.871 169.188 203.785C169.462 203.7 169.656 203.622 169.77 203.552L169.482 202.031C169.331 202.121 169.132 202.211 168.887 202.301C168.638 202.387 168.364 202.461 168.065 202.522C167.767 202.579 167.467 202.608 167.164 202.608C166.677 202.608 166.316 202.532 166.079 202.381C165.841 202.23 165.723 201.987 165.723 201.651C165.723 201.414 165.788 201.216 165.919 201.056C166.05 200.893 166.256 200.733 166.538 200.578C166.816 200.423 167.178 200.239 167.624 200.026C168.004 199.842 168.362 199.624 168.697 199.37C169.032 199.117 169.304 198.814 169.513 198.462C169.721 198.111 169.825 197.7 169.825 197.23C169.825 196.805 169.744 196.439 169.58 196.132C169.413 195.821 169.184 195.568 168.893 195.372C168.603 195.171 168.268 195.024 167.888 194.93C167.503 194.836 167.092 194.789 166.655 194.789C166.025 194.789 165.508 194.848 165.103 194.967C164.699 195.086 164.417 195.196 164.257 195.298L164.582 196.758C164.774 196.619 165.04 196.494 165.379 196.384C165.719 196.269 166.107 196.212 166.545 196.212C166.835 196.212 167.088 196.247 167.305 196.316C167.518 196.386 167.683 196.488 167.802 196.623C167.92 196.754 167.98 196.915 167.98 197.107C167.98 197.336 167.924 197.532 167.814 197.696C167.7 197.855 167.52 198.011 167.274 198.162C167.029 198.309 166.71 198.479 166.318 198.671C165.962 198.839 165.633 199.014 165.33 199.198C165.028 199.378 164.762 199.576 164.533 199.793C164.304 200.01 164.126 200.257 164 200.535C163.873 200.813 163.81 201.132 163.81 201.492C163.81 202.04 163.938 202.51 164.196 202.902C164.453 203.291 164.823 203.587 165.306 203.791C165.784 203.996 166.354 204.098 167.017 204.098ZM158.291 204.098C159.342 204.098 160.147 203.785 160.707 203.16C161.267 202.534 161.547 201.67 161.547 200.566C161.547 199.904 161.42 199.311 161.167 198.787C160.909 198.264 160.537 197.851 160.051 197.549C159.564 197.242 158.97 197.087 158.266 197.083C157.911 197.079 157.571 197.124 157.248 197.218C156.925 197.312 156.637 197.465 156.384 197.677C156.13 197.886 155.928 198.164 155.777 198.511C155.621 198.855 155.542 199.276 155.537 199.775C155.537 200.024 155.542 200.255 155.55 200.468C155.558 200.68 155.576 200.862 155.605 201.014H160.541L160.419 200.002H157.279C157.259 199.671 157.277 199.38 157.334 199.131C157.387 198.877 157.494 198.681 157.653 198.542C157.813 198.399 158.037 198.328 158.328 198.328C158.61 198.328 158.857 198.405 159.07 198.561C159.278 198.716 159.44 198.984 159.554 199.364C159.665 199.74 159.712 200.259 159.695 200.922C159.679 201.367 159.593 201.725 159.438 201.995C159.278 202.26 159.064 202.453 158.794 202.571C158.52 202.686 158.203 202.743 157.843 202.743C157.647 202.743 157.432 202.727 157.199 202.694C156.966 202.661 156.745 202.618 156.537 202.565C156.328 202.508 156.169 202.451 156.059 202.393L155.746 203.411C155.897 203.534 156.106 203.648 156.371 203.755C156.633 203.857 156.932 203.939 157.267 204C157.598 204.065 157.939 204.098 158.291 204.098ZM149.962 204.098C151.012 204.098 151.818 203.785 152.378 203.16C152.938 202.534 153.218 201.67 153.218 200.566C153.218 199.904 153.091 199.311 152.838 198.787C152.58 198.264 152.208 197.851 151.722 197.549C151.235 197.242 150.64 197.087 149.937 197.083C149.582 197.079 149.242 197.124 148.919 197.218C148.596 197.312 148.308 197.465 148.055 197.677C147.801 197.886 147.599 198.164 147.448 198.511C147.292 198.855 147.212 199.276 147.208 199.775C147.208 200.024 147.212 200.255 147.221 200.468C147.229 200.68 147.247 200.862 147.276 201.014H152.212L152.09 200.002H148.95C148.93 199.671 148.948 199.38 149.005 199.131C149.058 198.877 149.165 198.681 149.324 198.542C149.483 198.399 149.708 198.328 149.999 198.328C150.281 198.328 150.528 198.405 150.741 198.561C150.949 198.716 151.111 198.984 151.225 199.364C151.335 199.74 151.382 200.259 151.366 200.922C151.35 201.367 151.264 201.725 151.109 201.995C150.949 202.26 150.734 202.453 150.465 202.571C150.191 202.686 149.874 202.743 149.514 202.743C149.318 202.743 149.103 202.727 148.87 202.694C148.637 202.661 148.416 202.618 148.208 202.565C147.999 202.508 147.84 202.451 147.73 202.393L147.417 203.411C147.568 203.534 147.777 203.648 148.042 203.755C148.304 203.857 148.602 203.939 148.938 204C149.269 204.065 149.61 204.098 149.962 204.098ZM141.066 204V197.175H139.367L139.337 197.904C139.177 197.782 138.977 197.657 138.736 197.53C138.49 197.404 138.225 197.297 137.938 197.211C137.652 197.121 137.36 197.074 137.062 197.07C136.591 197.058 136.205 197.134 135.903 197.297C135.6 197.461 135.375 197.739 135.228 198.131C135.081 198.52 135.007 199.043 135.007 199.701V204H136.871V199.977C136.871 199.626 136.9 199.348 136.957 199.143C137.015 198.935 137.117 198.785 137.264 198.695C137.407 198.606 137.611 198.565 137.877 198.573C138.057 198.573 138.272 198.616 138.521 198.702C138.77 198.787 138.997 198.914 139.202 199.082V204H141.066ZM135.087 199.112L135.43 197.953C135.299 197.839 135.113 197.714 134.872 197.579C134.627 197.44 134.345 197.322 134.026 197.224C133.707 197.121 133.37 197.07 133.014 197.07C132.544 197.066 132.149 197.144 131.831 197.303C131.512 197.463 131.27 197.737 131.107 198.125C130.943 198.514 130.862 199.041 130.862 199.707V204H132.738V199.971C132.738 199.619 132.767 199.341 132.824 199.137C132.877 198.929 132.977 198.781 133.125 198.695C133.268 198.606 133.474 198.565 133.744 198.573C133.977 198.573 134.218 198.63 134.468 198.745C134.713 198.855 134.919 198.978 135.087 199.112ZM125.055 204.098C125.652 204.098 126.159 204.002 126.576 203.81C126.993 203.614 127.33 203.346 127.588 203.007C127.841 202.667 128.025 202.279 128.14 201.841C128.254 201.4 128.309 200.934 128.305 200.443C128.293 199.715 128.142 199.102 127.851 198.603C127.557 198.105 127.158 197.727 126.656 197.469C126.149 197.211 125.574 197.083 124.932 197.083C124.131 197.083 123.491 197.25 123.013 197.586C122.535 197.921 122.191 198.366 121.983 198.922C121.774 199.474 121.676 200.075 121.688 200.725C121.696 201.457 121.846 202.074 122.136 202.577C122.426 203.076 122.823 203.454 123.326 203.712C123.828 203.969 124.405 204.098 125.055 204.098ZM125.006 202.792C124.519 202.796 124.166 202.614 123.945 202.246C123.724 201.878 123.614 201.345 123.614 200.646C123.614 200.233 123.659 199.857 123.749 199.517C123.839 199.178 123.984 198.906 124.184 198.702C124.38 198.497 124.642 198.393 124.969 198.389C125.46 198.385 125.815 198.565 126.036 198.929C126.257 199.288 126.367 199.81 126.367 200.492C126.367 200.909 126.322 201.294 126.232 201.645C126.142 201.993 125.999 202.271 125.803 202.479C125.603 202.688 125.337 202.792 125.006 202.792ZM117.362 199.548L117.448 198.236C117.374 198.039 117.239 197.853 117.043 197.677C116.847 197.498 116.614 197.352 116.344 197.242C116.074 197.128 115.79 197.07 115.491 197.07C115.369 197.07 115.256 197.077 115.154 197.089C115.048 197.101 114.97 197.121 114.921 197.15V198.971C114.978 198.935 115.066 198.898 115.185 198.861C115.303 198.824 115.483 198.806 115.724 198.806C116.019 198.806 116.272 198.849 116.485 198.935C116.697 199.016 116.877 199.117 117.024 199.235C117.168 199.35 117.28 199.454 117.362 199.548ZM119.122 204V197.175H117.503L117.399 198.242L117.251 198.567V204H119.122ZM109.706 204.098C110.757 204.098 111.562 203.785 112.122 203.16C112.682 202.534 112.962 201.67 112.962 200.566C112.962 199.904 112.835 199.311 112.582 198.787C112.324 198.264 111.952 197.851 111.466 197.549C110.979 197.242 110.385 197.087 109.681 197.083C109.326 197.079 108.986 197.124 108.663 197.218C108.34 197.312 108.052 197.465 107.799 197.677C107.545 197.886 107.343 198.164 107.192 198.511C107.036 198.855 106.957 199.276 106.952 199.775C106.952 200.024 106.957 200.255 106.965 200.468C106.973 200.68 106.991 200.862 107.02 201.014H111.957L111.834 200.002H108.694C108.674 199.671 108.692 199.38 108.749 199.131C108.802 198.877 108.909 198.681 109.068 198.542C109.228 198.399 109.452 198.328 109.743 198.328C110.025 198.328 110.272 198.405 110.485 198.561C110.693 198.716 110.855 198.984 110.969 199.364C111.08 199.74 111.127 200.259 111.11 200.922C111.094 201.367 111.008 201.725 110.853 201.995C110.693 202.26 110.479 202.453 110.209 202.571C109.935 202.686 109.618 202.743 109.258 202.743C109.062 202.743 108.847 202.727 108.614 202.694C108.381 202.661 108.161 202.618 107.952 202.565C107.744 202.508 107.584 202.451 107.474 202.393L107.161 203.411C107.312 203.534 107.521 203.648 107.786 203.755C108.048 203.857 108.347 203.939 108.682 204C109.013 204.065 109.354 204.098 109.706 204.098Z" fill="#EBEBEB"/>
</g>
<g filter="url(#filter2_f_26_9677)">
<path d="M100.406 170L108.375 87.5H136.359L144.188 170H128.578L127.406 156.688H117.469L116.438 170H100.406ZM118.641 143.516H126.141L122.531 101.562H121.781L118.641 143.516ZM158.1 170V87.5H174.037V170H158.1Z" fill="#EBEBEB"/>
</g>
<g opacity="0.6" filter="url(#filter3_b_26_9677)">
<rect x="28" y="19" width="220" height="220" rx="40" fill="url(#paint2_linear_26_9677)" fill-opacity="0.6"/>
<rect x="28.5" y="19.5" width="219" height="219" rx="39.5" stroke="url(#paint3_linear_26_9677)" stroke-opacity="0.6"/>
</g>
<defs>
<filter id="filter0_f_26_9677" x="0.353516" y="0.777344" width="275.223" height="171.793" filterUnits="userSpaceOnUse" color-interpolation-filters="sRGB">
<feFlood flood-opacity="0" result="BackgroundImageFix"/>
<feBlend mode="normal" in="SourceGraphic" in2="BackgroundImageFix" result="shape"/>
<feGaussianBlur stdDeviation="20" result="effect1_foregroundBlur_26_9677"/>
</filter>
<filter id="filter1_f_26_9677" x="37" y="169" width="202" height="61" filterUnits="userSpaceOnUse" color-interpolation-filters="sRGB">
<feFlood flood-opacity="0" result="BackgroundImageFix"/>
<feBlend mode="normal" in="SourceGraphic" in2="BackgroundImageFix" result="shape"/>
<feGaussianBlur stdDeviation="7.5" result="effect1_foregroundBlur_26_9677"/>
</filter>
<filter id="filter2_f_26_9677" x="99.4062" y="86.5" width="75.6309" height="84.5" filterUnits="userSpaceOnUse" color-interpolation-filters="sRGB">
<feFlood flood-opacity="0" result="BackgroundImageFix"/>
<feBlend mode="normal" in="SourceGraphic" in2="BackgroundImageFix" result="shape"/>
<feGaussianBlur stdDeviation="0.5" result="effect1_foregroundBlur_26_9677"/>
</filter>
<filter id="filter3_b_26_9677" x="8" y="-1" width="260" height="260" filterUnits="userSpaceOnUse" color-interpolation-filters="sRGB">
<feFlood flood-opacity="0" result="BackgroundImageFix"/>
<feGaussianBlur in="BackgroundImageFix" stdDeviation="10"/>
<feComposite in2="SourceAlpha" operator="in" result="effect1_backgroundBlur_26_9677"/>
<feBlend mode="normal" in="SourceGraphic" in2="effect1_backgroundBlur_26_9677" result="shape"/>
</filter>
<linearGradient id="paint0_linear_26_9677" x1="0" y1="0" x2="10.8229" y2="60.0494" gradientUnits="userSpaceOnUse">
<stop stop-color="#00B3FF"/>
<stop offset="0.46875" stop-color="#0082B8"/>
<stop offset="1" stop-color="#002F43"/>
</linearGradient>
<linearGradient id="paint1_linear_26_9677" x1="172" y1="31" x2="161.177" y2="-29.0494" gradientUnits="userSpaceOnUse">
<stop stop-color="#00B3FF"/>
<stop offset="0.46875" stop-color="#0082B8"/>
<stop offset="1" stop-color="#002F43"/>
</linearGradient>
<linearGradient id="paint2_linear_26_9677" x1="28" y1="19" x2="248" y2="239" gradientUnits="userSpaceOnUse">
<stop stop-color="#00B3FF" stop-opacity="0.5"/>
<stop offset="0.46875" stop-color="#0082B8" stop-opacity="0.3"/>
<stop offset="1" stop-color="#002F43" stop-opacity="0.2"/>
</linearGradient>
<linearGradient id="paint3_linear_26_9677" x1="248" y1="239" x2="28" y2="19" gradientUnits="userSpaceOnUse">
<stop stop-color="#00B3FF" stop-opacity="0.5"/>
<stop offset="1" stop-color="#002F43" stop-opacity="0.2"/>
</linearGradient>
</defs>
</svg>
