<svg version="1.2" xmlns="http://www.w3.org/2000/svg" viewBox="0 0 221 221" width="221" height="221"><defs><filter x="-50%" y="-50%" width="200%" height="200%" id="f1"> <feGaussianBlur stdDeviation="20"/> </filter><filter x="-50%" y="-50%" width="200%" height="200%" id="f2"> <feGaussianBlur stdDeviation="7.5"/> </filter><linearGradient id="P" gradientUnits="userSpaceOnUse"/><linearGradient id="g1" x2="1" href="#P" gradientTransform="matrix(-10.823,60.049,-181.986,-32.801,197,166)"><stop stop-color="#00b3ff"/><stop offset=".47" stop-color="#0082b8"/><stop offset="1" stop-color="#002f43"/></linearGradient><linearGradient id="g2" x2="1" href="#P" gradientTransform="matrix(10.823,-60.049,184.211,33.201,24,197)"><stop stop-color="#00b3ff"/><stop offset=".47" stop-color="#0082b8"/><stop offset="1" stop-color="#002f43"/></linearGradient><filter x="-50%" y="-50%" width="200%" height="200%" id="f3"> <feGaussianBlur stdDeviation=".5"/> </filter><linearGradient id="g3" x2="1" href="#P" gradientTransform="matrix(220,220,-220,220,1,1)"><stop stop-color="#00b3ff" stop-opacity=".5"/><stop offset=".47" stop-color="#0082b8" stop-opacity=".3"/><stop offset="1" stop-color="#002f43" stop-opacity=".2"/></linearGradient><linearGradient id="g4" x2="1" href="#P" gradientTransform="matrix(-220,-220,220,-220,221,221)"><stop stop-color="#00b3ff" stop-opacity=".5"/><stop offset="1" stop-color="#002f43" stop-opacity=".2"/></linearGradient></defs><style>.a{filter:url(#f1);fill:#ebebeb}.b{opacity:.6;filter:url(#f2);fill:url(#g1)}.c{filter:url(#f2);fill:none;stroke:url(#g2)}.d{filter:url(#f2);fill:#ebebeb}.e{filter:url(#f3);fill:#ebebeb}.f{opacity:.6;fill:url(#g3)}.g{fill:none;stroke:url(#g4)}</style><path fill-rule="evenodd" class="a" d="m173.3 56l-0.3-5h-3.8l-0.4 5h-5.9l3-30.9h10.5l3 30.9zm-2-25.7h-0.3l-1.4 15.8h2.8zm-20.2 25.6v-20.1q0-0.4-0.8-0.7-0.8-0.3-1.9-0.4-1-0.2-1.8-0.2v-5.3q1.8 0 2.9 0.9 1.2 0.9 1.6 2.4v-2.9h6.4v26.3zm-17.3 0.1q-1.1-0.2-1.3-0.3v-4.2q0.3 0 0.7 0 0.6 0 0.8-0.2 0.2-0.3 0.2-1v-14.9h-1.7v-4.8h1.7v-5.6h6.2v5.6h1.7v4.8h-1.7v16.4q0 2.3-0.9 3.3-0.9 1.1-3.5 1.1-1.1 0-2.2-0.2zm-13.2-28.1v-5.2h6.3v5.2zm0 28v-26.3h6.3v26.3zm-12.9 0v-20.3h-1.3v-4.9h1.4v-0.3q0-0.6-0.1-1-0.2-0.4-0.7-0.4-0.1 0-0.6 0.1v-3.9q1.2-0.5 3.3-0.5 4.2 0 4.2 4.2v1.8h1.1v4.8h-1.1v20.4zm-9.5-28v-5.2h6.3v5.2zm0 28v-26.3h6.3v26.3zm-18-0.5q-1.7-0.8-2.6-2.4-1-1.5-1-3.7v-4.6h6.4v4.4q0 0.9 0.3 1.5 0.3 0.7 1.1 0.7 0.8 0 1.2-0.7 0.3-0.7 0.4-1.5v-12.7q-0.1-2.2-1.6-2.2-0.9 0-1.1 0.6-0.3 0.6-0.3 1.5v3.7h-6.4v-4q0-2.2 1-3.7 1-1.5 2.7-2.2 1.7-0.8 3.9-0.8 3.2 0 4.9 1.1 1.8 1.1 2.5 3.3 0.7 2.2 0.7 5.5v8.1q0 4.4-1.9 6.6-1.8 2.3-6.3 2.3-2.2 0-3.9-0.8zm-16.6-0.1q-1.1-0.8-1.5-2.5v3.1h-6.3v-20.1q0-2.1 1-3.6 1-1.4 2.6-2.2 1.7-0.7 3.8-0.7 4 0 5.9 1.6 1.8 1.7 1.8 5.6 0 0.3 0 0.5 0 0.2 0 0.4h-6.1v-1.6q0-1.7-1.3-1.7-1.3 0-1.3 2.1v2.7l3.9 1.3q2 0.7 3.1 1.7 1.2 1 1.7 2.5 0.4 1.6 0.4 4 0 2.2-0.4 4-0.4 1.8-1.6 2.8-1.1 1-3.3 1-1.4 0-2.4-0.9zm1.3-6.3v-3.4q0-1.6-0.7-2.3-0.7-0.8-2-1.4v7.4q0 0.7 0.3 1.4 0.2 0.6 1 0.6 1.4 0 1.4-2.3zm-21.5 6.9v-30.9h6.4v30.9zm159.2 54v-30.9h6v30.9zm-12.3 0v-18.5q0-0.8-0.1-1.5 0-0.7-0.4-1.2-0.3-0.5-1.1-0.5-0.7 0-1 0.6-0.4 0.7-0.4 1.4v19.7h-6.2v-20.3q0-2.9 1.3-4.6 1.2-1.7 4-1.7 1.7 0 2.6 1.1 1 1 1.3 2.5v-3.3h6.3v26.3zm-22.9 0.1q-1.1-0.2-1.3-0.3v-4.2q0.3 0 0.7 0 0.6 0 0.8-0.2 0.2-0.3 0.2-1v-14.9h-1.7v-4.8h1.7v-5.6h6.2v5.6h1.7v4.8h-1.7v16.4q0 2.3-0.9 3.3-0.9 1.1-3.5 1.1-1.1 0-2.2-0.2zm-19-0.8q-1.8-1-2.5-3-0.7-2-0.7-5v-1.4h6.2v2.5q0 1.4 0.3 2.2 0.2 0.9 1.2 0.9 0.7 0 1-0.5 0.3-0.4 0.4-1.1 0.1-0.7 0.1-1.4v-5.1h-9.2c0-0.8 0-4.3 0-6.6q0-7.4 7.5-7.4 3.7 0 5.8 1.9 2.2 1.9 2.2 5.5v10.6q0 2.8-0.8 4.8-0.7 2-2.4 3.1-1.6 1-4.4 1-3 0-4.7-1zm6-18.6q0-1.4-0.4-2-0.4-0.6-1.2-0.6-0.7 0-1 0.6-0.4 0.6-0.4 2v3.6h3zm-21.5 19.3v-31h6.4v31zm-12.4-28v-5.2h6.3v5.2zm0 28v-26.4h6.3v26.4zm-19.7 2.6q-2.1-1.9-2.1-6.4v-22.6h6.4v3q0.3-1.5 1.3-2.4 1-0.9 2.7-0.9 2.1 0 3.2 0.9 1.2 1 1.6 2.6 0.5 1.6 0.5 3.7v9.5q0 1.9-0.5 3.4-0.6 1.6-1.7 2.5-1.2 0.8-3.1 0.8-3.2 0-4-2.7v2.6q0 1.6 0.7 2.5 0.8 1 2.3 1 2.3 0 4.6-1.4l2.1 3.7q-1 0.8-2.1 1.3-1 0.5-2.3 0.7-1.3 0.2-3.1 0.2-4.5 0-6.5-2zm7-11.5q0.2-0.8 0.2-1.8v-8.9q0-0.9-0.2-1.6-0.2-0.7-1.1-0.7-0.8 0-1.2 0.8-0.4 0.7-0.4 1.5v8.9q0 2.7 1.5 2.7 0.9 0 1.2-0.9zm-27.3 8.2q-1.7-1.1-2.4-3-0.8-2-0.8-5v-1.5h6.3v2.5q0 1.4 0.2 2.3 0.3 0.8 1.3 0.8 0.7 0 1-0.4 0.3-0.5 0.4-1.1 0-0.7 0-1.4v-5.1h-9.1q-0.1-1.2-0.1-4.7v-1.9q0-7.5 7.6-7.5 3.7 0 5.8 1.9 2.1 1.9 2.1 5.6v10.6q0 2.8-0.7 4.8-0.7 2-2.4 3-1.6 1.1-4.5 1.1-2.9 0-4.7-1zm6.1-18.6q0-1.5-0.4-2.1-0.4-0.6-1.2-0.6-0.7 0-1.1 0.7-0.3 0.6-0.3 2v3.6h3zm-21.4 19.2v-18.5q0-0.7-0.1-1.5-0.1-0.7-0.5-1.2-0.3-0.5-1-0.5-0.8 0-1.1 0.6-0.3 0.7-0.3 1.4v19.7h-6.2v-20.3q0-2.9 1.2-4.6 1.2-1.7 4-1.7 1.7 0 2.7 1.1 0.9 1 1.3 2.5v-3.3h6.2v26.3zm-27.1-0.5q-1.7-0.8-2.6-2.4-1-1.5-1-3.7v-4.6h6.4v4.4q0 0.9 0.3 1.5 0.3 0.7 1.1 0.7 0.9 0 1.2-0.7 0.4-0.7 0.4-1.5v-12.7q0-2.2-1.6-2.2-0.9 0-1.1 0.6-0.3 0.6-0.3 1.5v3.7h-6.4v-4q0-2.2 1-3.7 1-1.5 2.7-2.2 1.8-0.8 3.9-0.8 3.2 0 4.9 1.1 1.8 1.1 2.5 3.3 0.7 2.2 0.7 5.5v8.1q0 4.4-1.9 6.6-1.8 2.3-6.3 2.3-2.1 0-3.9-0.8zm-21.5-0.2q-1.7-1-2.5-3-0.7-2-0.7-4.9v-1.5h6.3v2.5q0 1.4 0.2 2.2 0.2 0.9 1.2 0.9 0.7 0 1-0.5 0.3-0.4 0.4-1.1 0.1-0.7 0.1-1.4v-5.1h-9.1q-0.1-1.2-0.1-4.6v-2q0-7.4 7.6-7.4 3.7 0 5.8 1.9 2.1 1.9 2.1 5.5v10.6q0 2.8-0.7 4.8-0.7 2-2.4 3.1-1.7 1-4.5 1-3 0-4.7-1zm6-18.5q0-1.5-0.4-2.1-0.4-0.6-1.1-0.6-0.7 0-1.1 0.6-0.3 0.6-0.3 2.1v3.5h2.9z"/><path class="b" d="m197 181.5c0-8.6-6.9-15.5-15.5-15.5h-141c-8.6 0-15.5 6.9-15.5 15.5 0 8.6 6.9 15.5 15.5 15.5h141c8.6 0 15.5-6.9 15.5-15.5z"/><path fill-rule="evenodd" class="c" d="m196.5 181.5c0-8.3-6.7-15-15-15h-141c-8.3 0-15 6.7-15 15 0 8.3 6.7 15 15 15h141c8.3 0 15-6.7 15-15z"/><path fill-rule="evenodd" class="d" d="m138.3 185.8q-0.7-0.3-1.1-0.9-0.4-0.6-0.4-1.4 0-0.5 0.2-1 0.2-0.4 0.5-0.7 0.4-0.3 0.8-0.6 0.5-0.3 1-0.5 0.6-0.3 1-0.5 0.3-0.3 0.5-0.5 0.2-0.2 0.2-0.6 0-0.3-0.2-0.5-0.2-0.2-0.5-0.3-0.3-0.1-0.8-0.1-0.6 0-1.1 0.2-0.5 0.1-0.8 0.4l-0.3-1.5q0.2-0.2 0.8-0.3 0.6-0.2 1.6-0.2 0.6 0 1.2 0.1 0.6 0.2 1 0.5 0.4 0.3 0.7 0.7 0.2 0.5 0.2 1.1 0 0.7-0.3 1.3-0.3 0.5-0.8 0.9-0.5 0.4-1.1 0.6-0.6 0.3-1.1 0.6-0.4 0.2-0.6 0.5-0.2 0.2-0.2 0.6 0 0.5 0.4 0.7 0.3 0.2 1.1 0.2 0.4 0 0.9-0.1 0.4-0.1 0.8-0.2 0.4-0.1 0.6-0.3l0.3 1.6q-0.2 0.1-0.6 0.2-0.4 0.1-1 0.2-0.6 0.1-1.2 0.1-1 0-1.7-0.3zm-8 0.2q-0.5-0.1-0.9-0.2-0.4-0.2-0.7-0.4l0.4-1q0.1 0.1 0.4 0.2 0.3 0 0.7 0.1 0.3 0 0.6 0 0.6 0 1-0.1 0.4-0.2 0.6-0.6 0.3-0.4 0.3-1h-4.1q0-0.2-0.1-0.5 0-0.4 0-0.7 0-0.8 0.3-1.3 0.2-0.5 0.6-0.8 0.4-0.3 0.8-0.5 0.5-0.1 1.1-0.1 1 0 1.8 0.4 0.7 0.5 1.1 1.3 0.3 0.8 0.3 1.8 0 1.6-0.8 2.6-0.8 0.9-2.4 0.9-0.5 0-1-0.1zm3.2-3l-0.1-1h-0.7q0 0.4 0 0.9 0 0.1 0 0.1zm-0.9-1q0-0.4-0.1-0.6-0.2-0.6-0.5-0.8-0.3-0.3-0.7-0.3-0.5 0-0.7 0.2-0.2 0.3-0.3 0.6-0.1 0.4-0.1 0.9zm-10.7 4q-0.5-0.1-0.9-0.2-0.4-0.2-0.6-0.4l0.3-1q0.2 0.1 0.5 0.2 0.3 0 0.6 0.1 0.4 0 0.7 0 0.5 0 0.9-0.1 0.4-0.2 0.7-0.6 0.2-0.4 0.2-1h-4.1q0-0.2 0-0.5 0-0.4 0-0.7 0-0.8 0.2-1.3 0.2-0.5 0.6-0.8 0.4-0.3 0.9-0.5 0.5-0.1 1-0.1 1.1 0 1.8 0.4 0.7 0.5 1.1 1.3 0.4 0.8 0.4 1.8 0 1.6-0.9 2.6-0.8 0.9-2.4 0.9-0.5 0-1-0.1zm3.3-3l-0.2-1h-0.7q0 0.4 0 0.9 0 0.1 0 0.1zm-0.9-1q0-0.4-0.1-0.6-0.1-0.6-0.5-0.8-0.3-0.3-0.7-0.3-0.4 0-0.7 0.2-0.2 0.3-0.3 0.6-0.1 0.4 0 0.9zm-12.2 4v-4.9q-0.3-0.3-0.7-0.4-0.3-0.1-0.6-0.1-0.4 0-0.6 0.1-0.2 0.1-0.3 0.4-0.1 0.4-0.1 0.9v4h-1.9v-4.3q0-0.3 0.1-0.6-0.3-0.2-0.6-0.4-0.4-0.1-0.7-0.1-0.4 0-0.7 0.1-0.2 0.1-0.3 0.4c0 0.2 0 4.5 0 4.9h-1.9v-4.3q0-1 0.2-1.6 0.3-0.6 0.8-0.8 0.4-0.2 1.1-0.2 0.6 0 1 0.1 0.5 0.2 0.9 0.4 0.3 0.1 0.5 0.3 0.2-0.4 0.5-0.6 0.5-0.2 1.2-0.2 0.4 0 0.9 0.1 0.4 0.1 0.8 0.3 0.3 0.2 0.6 0.4v-0.7h1.7v6.8zm-15.9-0.3q-0.7-0.4-1.2-1.1-0.4-0.8-0.4-1.9 0-1 0.3-1.8 0.3-0.8 1-1.3 0.7-0.5 1.9-0.5 1 0 1.7 0.4 0.8 0.4 1.2 1.1 0.5 0.8 0.5 1.8 0 0.8-0.2 1.4-0.1 0.7-0.5 1.2-0.4 0.5-1 0.8-0.7 0.3-1.6 0.3-0.9 0-1.7-0.4zm2.5-1.2q0.3-0.3 0.4-0.9 0.2-0.5 0.2-1.1 0-1-0.4-1.6-0.3-0.5-1-0.5-0.5 0-0.8 0.3-0.3 0.3-0.5 0.8-0.1 0.5-0.1 1.1 0 1.1 0.3 1.6 0.4 0.6 1.1 0.6 0.5 0 0.8-0.3zm-8.8-3.3q-0.2-0.1-0.5-0.3-0.4-0.1-0.8-0.1-0.4 0-0.5 0.1-0.2 0-0.3 0.1v-1.9q0.1 0 0.2 0 0.2 0 0.4 0 0.4 0 0.8 0.1 0.4 0.2 0.7 0.5 0.3 0.2 0.4 0.4l0.1-0.9h1.6v6.8h-1.9v-4.6q-0.1-0.1-0.2-0.2zm-8.3 4.8q-0.5-0.1-0.9-0.2-0.4-0.2-0.7-0.4l0.4-1q0.1 0.1 0.4 0.2 0.3 0 0.7 0.1 0.3 0 0.6 0 0.6 0 1-0.1 0.4-0.2 0.6-0.6 0.3-0.4 0.3-1h-4.1q0-0.2-0.1-0.5 0-0.4 0-0.7 0-0.8 0.3-1.3 0.2-0.5 0.6-0.8 0.4-0.3 0.8-0.5 0.5-0.1 1.1-0.1 1 0 1.7 0.4 0.8 0.5 1.2 1.3 0.3 0.8 0.3 1.8 0 1.6-0.8 2.6-0.8 0.9-2.4 0.9-0.5 0-1-0.1zm3.2-3l-0.1-1h-0.7q0 0.4 0 0.9 0 0.1 0 0.1zm-0.9-1q0-0.4-0.1-0.6-0.2-0.6-0.5-0.8-0.3-0.3-0.7-0.3-0.5 0-0.7 0.2-0.2 0.3-0.3 0.6-0.1 0.4-0.1 0.9z"/><path fill-rule="evenodd" class="e" d="m73.4 152l8-82.5h28l7.8 82.5h-15.6l-1.2-13.3h-9.9l-1.1 13.3zm18.3-26.5h7.5l-3.6-41.9h-0.8zm39.5 26.4v-82.5h15.9v82.5z"/><g style="opacity:.6"><path class="f" d="m1 41c0-22.1 17.9-40 40-40h140c22.1 0 40 17.9 40 40v140c0 22.1-17.9 40-40 40h-140c-22.1 0-40-17.9-40-40z"/><path fill-rule="evenodd" class="g" d="m1.5 41c0-21.8 17.7-39.5 39.5-39.5h140c21.8 0 39.5 17.7 39.5 39.5v140c0 21.8-17.7 39.5-39.5 39.5h-140c-21.8 0-39.5-17.7-39.5-39.5z"/></g></svg>