<svg width="1440" height="3889" viewBox="0 0 1440 3889" fill="none" xmlns="http://www.w3.org/2000/svg">
<path d="M705.148 170.716V185.436C705.148 186.22 704.503 186.889 703.664 186.97C698.715 187.45 694.521 189.695 691.564 192.483C688.622 195.256 686.842 198.628 686.842 201.401C686.842 202.542 686.842 205.741 686.842 210.148C686.842 227.055 686.841 261.732 686.842 266.109C686.843 267.509 687.38 269.041 688.281 270.548C689.185 272.06 690.473 273.578 692.023 274.958C695.117 277.715 699.301 279.967 703.653 280.51C704.502 280.615 705.148 281.291 705.148 282.074V296.293C705.148 297.095 704.501 297.722 703.736 297.679C694.344 297.146 685.52 292.711 679.041 286.657C672.553 280.594 668.48 272.97 668.48 266.109V201.401C668.48 188.457 680.345 170.255 703.723 169.314C704.499 169.283 705.148 169.917 705.148 170.716Z" stroke="#EBEBEB" stroke-opacity="0.07" stroke-width="0.959963"/>
<path d="M722.379 296.293L722.379 281.573C722.379 280.788 723.024 280.12 723.863 280.038C728.812 279.559 733.006 277.314 735.963 274.526C738.905 271.753 740.685 268.381 740.685 265.608C740.685 264.467 740.685 261.268 740.685 256.861C740.685 239.954 740.686 205.277 740.685 200.899C740.684 199.5 740.147 197.968 739.246 196.461C738.342 194.949 737.054 193.431 735.504 192.051C732.41 189.293 728.226 187.042 723.874 186.499C723.025 186.393 722.379 185.718 722.379 184.935L722.379 170.716C722.379 169.913 723.026 169.287 723.791 169.33C733.183 169.862 742.007 174.298 748.486 180.352C754.974 186.415 759.047 194.039 759.047 200.9L759.047 265.608C759.047 278.552 747.181 296.754 723.804 297.695C723.028 297.726 722.379 297.092 722.379 296.293Z" stroke="#EBEBEB" stroke-opacity="0.07" stroke-width="0.959963"/>
<path d="M822.296 169.276H836.672C837.183 169.276 837.656 169.547 837.915 169.988L911.431 295.565C911.993 296.525 911.3 297.732 910.188 297.732H895.319C894.806 297.732 894.332 297.46 894.074 297.016L821.052 171.44C820.493 170.48 821.186 169.276 822.296 169.276Z" stroke="#EBEBEB" stroke-opacity="0.07" stroke-width="0.959963"/>
<path d="M855.615 264.892L848.183 252.159C847.625 251.203 846.243 251.207 845.691 252.167L821.03 295.073C820.478 296.033 821.171 297.23 822.278 297.23H837.167C837.684 297.23 838.162 296.953 838.418 296.504L855.622 266.331C855.877 265.885 855.874 265.336 855.615 264.892Z" stroke="#EBEBEB" stroke-opacity="0.07" stroke-width="0.959963"/>
<path d="M909.727 169.276H895.3C894.795 169.276 894.327 169.541 894.066 169.973L875.897 200.161C875.623 200.616 875.621 201.185 875.893 201.641L883.786 214.877C884.351 215.825 885.729 215.811 886.274 214.852L910.979 171.428C911.525 170.468 910.832 169.276 909.727 169.276Z" stroke="#EBEBEB" stroke-opacity="0.07" stroke-width="0.959963"/>
<rect x="973.447" y="169.276" width="19.3793" height="128.457" rx="1.43994" stroke="#EBEBEB" stroke-opacity="0.07" stroke-width="0.959963"/>
<rect x="1089.83" y="205.392" width="19.3793" height="92.3403" rx="1.43994" stroke="#EBEBEB" stroke-opacity="0.07" stroke-width="0.959963"/>
<rect x="1053.22" y="169.276" width="93.6177" height="19.1046" rx="1.43994" stroke="#EBEBEB" stroke-opacity="0.07" stroke-width="0.959963"/>
<path d="M103.148 407.716V422.436C103.148 423.22 102.503 423.889 101.664 423.97C96.715 424.45 92.5212 426.695 89.5638 429.483C86.622 432.256 84.8424 435.628 84.8424 438.401C84.8424 439.542 84.8423 442.741 84.8422 447.148C84.8417 464.055 84.8408 498.732 84.8424 503.109C84.8429 504.509 85.3802 506.041 86.2811 507.548C87.1851 509.06 88.4733 510.578 90.0227 511.958C93.1169 514.715 97.3013 516.967 101.653 517.51C102.502 517.615 103.148 518.291 103.148 519.074V533.293C103.148 534.095 102.501 534.722 101.736 534.679C92.3442 534.146 83.5197 529.711 77.0406 523.657C70.5528 517.594 66.48 509.97 66.48 503.109V438.401C66.48 425.457 78.3454 407.255 101.723 406.314C102.499 406.283 103.148 406.917 103.148 407.716Z" stroke="#EBEBEB" stroke-opacity="0.07" stroke-width="0.959963"/>
<path d="M120.379 533.293L120.379 518.573C120.379 517.788 121.024 517.12 121.863 517.038C126.812 516.559 131.006 514.314 133.963 511.526C136.905 508.753 138.685 505.381 138.685 502.608C138.685 501.467 138.685 498.268 138.685 493.861C138.685 476.954 138.686 442.277 138.685 437.899C138.684 436.5 138.147 434.968 137.246 433.461C136.342 431.949 135.054 430.431 133.504 429.051C130.41 426.293 126.226 424.042 121.874 423.499C121.025 423.393 120.379 422.718 120.379 421.935L120.379 407.716C120.379 406.913 121.026 406.287 121.791 406.33C131.183 406.862 140.007 411.298 146.486 417.352C152.974 423.415 157.047 431.039 157.047 437.9L157.047 502.608C157.047 515.552 145.181 533.754 121.804 534.695C121.028 534.726 120.379 534.092 120.379 533.293Z" stroke="#EBEBEB" stroke-opacity="0.07" stroke-width="0.959963"/>
<path d="M220.296 406.276H234.672C235.183 406.276 235.656 406.547 235.915 406.988L309.431 532.565C309.993 533.525 309.3 534.732 308.188 534.732H293.319C292.806 534.732 292.332 534.46 292.074 534.016L219.052 408.44C218.493 407.48 219.186 406.276 220.296 406.276Z" stroke="#EBEBEB" stroke-opacity="0.07" stroke-width="0.959963"/>
<path d="M253.615 501.892L246.183 489.159C245.625 488.203 244.243 488.207 243.691 489.167L219.03 532.073C218.478 533.033 219.171 534.23 220.278 534.23H235.167C235.684 534.23 236.162 533.953 236.418 533.504L253.622 503.331C253.877 502.885 253.874 502.336 253.615 501.892Z" stroke="#EBEBEB" stroke-opacity="0.07" stroke-width="0.959963"/>
<path d="M307.727 406.276H293.3C292.795 406.276 292.327 406.541 292.066 406.973L273.897 437.161C273.623 437.616 273.621 438.185 273.893 438.641L281.786 451.877C282.351 452.825 283.729 452.811 284.274 451.852L308.979 408.428C309.525 407.468 308.832 406.276 307.727 406.276Z" stroke="#EBEBEB" stroke-opacity="0.07" stroke-width="0.959963"/>
<rect x="371.447" y="406.276" width="19.3793" height="128.457" rx="1.43994" stroke="#EBEBEB" stroke-opacity="0.07" stroke-width="0.959963"/>
<rect x="487.829" y="442.392" width="19.3793" height="92.3403" rx="1.43994" stroke="#EBEBEB" stroke-opacity="0.07" stroke-width="0.959963"/>
<rect x="451.218" y="406.276" width="93.6177" height="19.1046" rx="1.43994" stroke="#EBEBEB" stroke-opacity="0.07" stroke-width="0.959963"/>
<path d="M950.148 634.92V649.64C950.148 650.424 949.503 651.093 948.664 651.174C943.715 651.654 939.521 653.899 936.564 656.687C933.622 659.46 931.842 662.832 931.842 665.605C931.842 666.746 931.842 669.945 931.842 674.352C931.842 691.259 931.841 725.936 931.842 730.313C931.843 731.713 932.38 733.245 933.281 734.752C934.185 736.264 935.473 737.782 937.023 739.162C940.117 741.919 944.301 744.171 948.653 744.714C949.502 744.82 950.148 745.495 950.148 746.278V760.497C950.148 761.299 949.501 761.926 948.736 761.883C939.344 761.351 930.52 756.915 924.041 750.861C917.553 744.798 913.48 737.174 913.48 730.313V665.605C913.48 652.661 925.345 634.459 948.723 633.518C949.499 633.487 950.148 634.121 950.148 634.92Z" stroke="#EBEBEB" stroke-opacity="0.07" stroke-width="0.959963"/>
<path d="M967.379 760.497L967.379 745.777C967.379 744.993 968.024 744.324 968.863 744.243C973.812 743.763 978.006 741.518 980.963 738.73C983.905 735.957 985.685 732.585 985.685 729.812C985.685 728.671 985.685 725.472 985.685 721.065C985.685 704.158 985.686 669.481 985.685 665.104C985.684 663.704 985.147 662.172 984.246 660.665C983.342 659.153 982.054 657.635 980.504 656.255C977.41 653.498 973.226 651.246 968.874 650.703C968.025 650.597 967.379 649.922 967.379 649.139L967.379 634.92C967.379 634.118 968.026 633.491 968.791 633.534C978.183 634.066 987.007 638.502 993.486 644.556C999.974 650.619 1004.05 658.243 1004.05 665.104L1004.05 729.812C1004.05 742.756 992.181 760.958 968.804 761.899C968.028 761.93 967.379 761.296 967.379 760.497Z" stroke="#EBEBEB" stroke-opacity="0.07" stroke-width="0.959963"/>
<path d="M1067.3 633.48H1081.67C1082.18 633.48 1082.66 633.751 1082.91 634.192L1156.43 759.769C1156.99 760.729 1156.3 761.937 1155.19 761.937H1140.32C1139.81 761.937 1139.33 761.664 1139.07 761.22L1066.05 635.644C1065.49 634.684 1066.19 633.48 1067.3 633.48Z" stroke="#EBEBEB" stroke-opacity="0.07" stroke-width="0.959963"/>
<path d="M1100.62 729.096L1093.18 716.363C1092.63 715.407 1091.24 715.411 1090.69 716.371L1066.03 759.277C1065.48 760.237 1066.17 761.434 1067.28 761.434H1082.17C1082.68 761.434 1083.16 761.157 1083.42 760.708L1100.62 730.536C1100.88 730.089 1100.87 729.54 1100.62 729.096Z" stroke="#EBEBEB" stroke-opacity="0.07" stroke-width="0.959963"/>
<path d="M1154.73 633.48H1140.3C1139.79 633.48 1139.33 633.745 1139.07 634.177L1120.9 664.365C1120.62 664.82 1120.62 665.389 1120.89 665.845L1128.79 679.081C1129.35 680.029 1130.73 680.015 1131.27 679.056L1155.98 635.632C1156.52 634.672 1155.83 633.48 1154.73 633.48Z" stroke="#EBEBEB" stroke-opacity="0.07" stroke-width="0.959963"/>
<rect x="1218.45" y="633.48" width="19.3793" height="128.457" rx="1.43994" stroke="#EBEBEB" stroke-opacity="0.07" stroke-width="0.959963"/>
<rect x="1334.83" y="669.596" width="19.3793" height="92.3403" rx="1.43994" stroke="#EBEBEB" stroke-opacity="0.07" stroke-width="0.959963"/>
<rect x="1298.22" y="633.48" width="93.6177" height="19.1046" rx="1.43994" stroke="#EBEBEB" stroke-opacity="0.07" stroke-width="0.959963"/>
<path d="M705.148 935.92V950.64C705.148 951.424 704.503 952.093 703.664 952.174C698.715 952.654 694.521 954.899 691.564 957.687C688.622 960.46 686.842 963.832 686.842 966.605C686.842 967.746 686.842 970.945 686.842 975.352C686.842 992.259 686.841 1026.94 686.842 1031.31C686.843 1032.71 687.38 1034.25 688.281 1035.75C689.185 1037.26 690.473 1038.78 692.023 1040.16C695.117 1042.92 699.301 1045.17 703.653 1045.71C704.502 1045.82 705.148 1046.5 705.148 1047.28V1061.5C705.148 1062.3 704.501 1062.93 703.736 1062.88C694.344 1062.35 685.52 1057.92 679.041 1051.86C672.553 1045.8 668.48 1038.17 668.48 1031.31V966.605C668.48 953.661 680.345 935.459 703.723 934.518C704.499 934.487 705.148 935.121 705.148 935.92Z" stroke="#EBEBEB" stroke-opacity="0.07" stroke-width="0.959963"/>
<path d="M722.379 1061.5L722.379 1046.78C722.379 1045.99 723.024 1045.32 723.863 1045.24C728.812 1044.76 733.006 1042.52 735.963 1039.73C738.905 1036.96 740.685 1033.58 740.685 1030.81C740.685 1029.67 740.685 1026.47 740.685 1022.07C740.685 1005.16 740.686 970.481 740.685 966.104C740.684 964.704 740.147 963.172 739.246 961.665C738.342 960.153 737.054 958.635 735.504 957.255C732.41 954.498 728.226 952.246 723.874 951.703C723.025 951.597 722.379 950.922 722.379 950.139L722.379 935.92C722.379 935.118 723.026 934.491 723.791 934.534C733.183 935.066 742.007 939.502 748.486 945.556C754.974 951.619 759.047 959.243 759.047 966.104L759.047 1030.81C759.047 1043.76 747.181 1061.96 723.804 1062.9C723.028 1062.93 722.379 1062.3 722.379 1061.5Z" stroke="#EBEBEB" stroke-opacity="0.07" stroke-width="0.959963"/>
<path d="M822.296 934.48H836.672C837.183 934.48 837.656 934.751 837.915 935.192L911.431 1060.77C911.993 1061.73 911.3 1062.94 910.188 1062.94H895.319C894.806 1062.94 894.332 1062.66 894.074 1062.22L821.052 936.644C820.493 935.684 821.186 934.48 822.296 934.48Z" stroke="#EBEBEB" stroke-opacity="0.07" stroke-width="0.959963"/>
<path d="M855.615 1030.1L848.183 1017.36C847.625 1016.41 846.243 1016.41 845.691 1017.37L821.03 1060.28C820.478 1061.24 821.171 1062.43 822.278 1062.43H837.167C837.684 1062.43 838.162 1062.16 838.418 1061.71L855.622 1031.54C855.877 1031.09 855.874 1030.54 855.615 1030.1Z" stroke="#EBEBEB" stroke-opacity="0.07" stroke-width="0.959963"/>
<path d="M909.727 934.48H895.3C894.795 934.48 894.327 934.745 894.066 935.177L875.897 965.365C875.623 965.82 875.621 966.389 875.893 966.845L883.786 980.081C884.351 981.029 885.729 981.015 886.274 980.056L910.979 936.632C911.525 935.672 910.832 934.48 909.727 934.48Z" stroke="#EBEBEB" stroke-opacity="0.07" stroke-width="0.959963"/>
<rect x="973.447" y="934.48" width="19.3793" height="128.457" rx="1.43994" stroke="#EBEBEB" stroke-opacity="0.07" stroke-width="0.959963"/>
<rect x="1089.83" y="970.596" width="19.3793" height="92.3403" rx="1.43994" stroke="#EBEBEB" stroke-opacity="0.07" stroke-width="0.959963"/>
<rect x="1053.22" y="934.48" width="93.6177" height="19.1046" rx="1.43994" stroke="#EBEBEB" stroke-opacity="0.07" stroke-width="0.959963"/>
<path d="M103.148 1172.92V1187.64C103.148 1188.42 102.503 1189.09 101.664 1189.17C96.715 1189.65 92.5212 1191.9 89.5638 1194.69C86.622 1197.46 84.8424 1200.83 84.8424 1203.6C84.8424 1204.75 84.8423 1207.95 84.8422 1212.35C84.8417 1229.26 84.8408 1263.94 84.8424 1268.31C84.8429 1269.71 85.3802 1271.25 86.2811 1272.75C87.1851 1274.26 88.4733 1275.78 90.0227 1277.16C93.1169 1279.92 97.3013 1282.17 101.653 1282.71C102.502 1282.82 103.148 1283.5 103.148 1284.28V1298.5C103.148 1299.3 102.501 1299.93 101.736 1299.88C92.3442 1299.35 83.5197 1294.92 77.0406 1288.86C70.5528 1282.8 66.48 1275.17 66.48 1268.31V1203.6C66.48 1190.66 78.3454 1172.46 101.723 1171.52C102.499 1171.49 103.148 1172.12 103.148 1172.92Z" stroke="#EBEBEB" stroke-opacity="0.07" stroke-width="0.959963"/>
<path d="M120.379 1298.5L120.379 1283.78C120.379 1282.99 121.024 1282.32 121.863 1282.24C126.812 1281.76 131.006 1279.52 133.963 1276.73C136.905 1273.96 138.685 1270.58 138.685 1267.81C138.685 1266.67 138.685 1263.47 138.685 1259.07C138.685 1242.16 138.686 1207.48 138.685 1203.1C138.684 1201.7 138.147 1200.17 137.246 1198.67C136.342 1197.15 135.054 1195.64 133.504 1194.25C130.41 1191.5 126.226 1189.25 121.874 1188.7C121.025 1188.6 120.379 1187.92 120.379 1187.14L120.379 1172.92C120.379 1172.12 121.026 1171.49 121.791 1171.53C131.183 1172.07 140.007 1176.5 146.486 1182.56C152.974 1188.62 157.047 1196.24 157.047 1203.1L157.047 1267.81C157.047 1280.76 145.181 1298.96 121.804 1299.9C121.028 1299.93 120.379 1299.3 120.379 1298.5Z" stroke="#EBEBEB" stroke-opacity="0.07" stroke-width="0.959963"/>
<path d="M220.296 1171.48H234.672C235.183 1171.48 235.656 1171.75 235.915 1172.19L309.431 1297.77C309.993 1298.73 309.3 1299.94 308.188 1299.94H293.319C292.806 1299.94 292.332 1299.66 292.074 1299.22L219.052 1173.64C218.493 1172.68 219.186 1171.48 220.296 1171.48Z" stroke="#EBEBEB" stroke-opacity="0.07" stroke-width="0.959963"/>
<path d="M253.615 1267.1L246.183 1254.36C245.625 1253.41 244.243 1253.41 243.691 1254.37L219.03 1297.28C218.478 1298.24 219.171 1299.43 220.278 1299.43H235.167C235.684 1299.43 236.162 1299.16 236.418 1298.71L253.622 1268.54C253.877 1268.09 253.874 1267.54 253.615 1267.1Z" stroke="#EBEBEB" stroke-opacity="0.07" stroke-width="0.959963"/>
<path d="M307.727 1171.48H293.3C292.795 1171.48 292.327 1171.74 292.066 1172.18L273.897 1202.37C273.623 1202.82 273.621 1203.39 273.893 1203.85L281.786 1217.08C282.351 1218.03 283.729 1218.02 284.274 1217.06L308.979 1173.63C309.525 1172.67 308.832 1171.48 307.727 1171.48Z" stroke="#EBEBEB" stroke-opacity="0.07" stroke-width="0.959963"/>
<rect x="371.447" y="1171.48" width="19.3793" height="128.457" rx="1.43994" stroke="#EBEBEB" stroke-opacity="0.07" stroke-width="0.959963"/>
<rect x="487.829" y="1207.6" width="19.3793" height="92.3403" rx="1.43994" stroke="#EBEBEB" stroke-opacity="0.07" stroke-width="0.959963"/>
<rect x="451.218" y="1171.48" width="93.6177" height="19.1046" rx="1.43994" stroke="#EBEBEB" stroke-opacity="0.07" stroke-width="0.959963"/>
<path d="M950.148 1400.12V1414.84C950.148 1415.63 949.503 1416.3 948.664 1416.38C943.715 1416.86 939.521 1419.1 936.564 1421.89C933.622 1424.66 931.842 1428.04 931.842 1430.81C931.842 1431.95 931.842 1435.15 931.842 1439.56C931.842 1456.46 931.841 1491.14 931.842 1495.52C931.843 1496.92 932.38 1498.45 933.281 1499.96C934.185 1501.47 935.473 1502.99 937.023 1504.37C940.117 1507.12 944.301 1509.38 948.653 1509.92C949.502 1510.02 950.148 1510.7 950.148 1511.48V1525.7C950.148 1526.5 949.501 1527.13 948.736 1527.09C939.344 1526.55 930.52 1522.12 924.041 1516.06C917.553 1510 913.48 1502.38 913.48 1495.52V1430.81C913.48 1417.87 925.345 1399.66 948.723 1398.72C949.499 1398.69 950.148 1399.33 950.148 1400.12Z" stroke="#EBEBEB" stroke-opacity="0.07" stroke-width="0.959963"/>
<path d="M967.379 1525.7L967.379 1510.98C967.379 1510.2 968.024 1509.53 968.863 1509.45C973.812 1508.97 978.006 1506.72 980.963 1503.93C983.905 1501.16 985.685 1497.79 985.685 1495.02C985.685 1493.88 985.685 1490.68 985.685 1486.27C985.685 1469.36 985.686 1434.68 985.685 1430.31C985.684 1428.91 985.147 1427.38 984.246 1425.87C983.342 1424.36 982.054 1422.84 980.504 1421.46C977.41 1418.7 973.226 1416.45 968.874 1415.91C968.025 1415.8 967.379 1415.13 967.379 1414.34L967.379 1400.12C967.379 1399.32 968.026 1398.69 968.791 1398.74C978.183 1399.27 987.007 1403.71 993.486 1409.76C999.974 1415.82 1004.05 1423.45 1004.05 1430.31L1004.05 1495.02C1004.05 1507.96 992.181 1526.16 968.804 1527.1C968.028 1527.13 967.379 1526.5 967.379 1525.7Z" stroke="#EBEBEB" stroke-opacity="0.07" stroke-width="0.959963"/>
<path d="M1067.3 1398.68H1081.67C1082.18 1398.68 1082.66 1398.96 1082.91 1399.4L1156.43 1524.97C1156.99 1525.93 1156.3 1527.14 1155.19 1527.14H1140.32C1139.81 1527.14 1139.33 1526.87 1139.07 1526.42L1066.05 1400.85C1065.49 1399.89 1066.19 1398.68 1067.3 1398.68Z" stroke="#EBEBEB" stroke-opacity="0.07" stroke-width="0.959963"/>
<path d="M1100.62 1494.3L1093.18 1481.57C1092.63 1480.61 1091.24 1480.62 1090.69 1481.58L1066.03 1524.48C1065.48 1525.44 1066.17 1526.64 1067.28 1526.64H1082.17C1082.68 1526.64 1083.16 1526.36 1083.42 1525.91L1100.62 1495.74C1100.88 1495.29 1100.87 1494.75 1100.62 1494.3Z" stroke="#EBEBEB" stroke-opacity="0.07" stroke-width="0.959963"/>
<path d="M1154.73 1398.68H1140.3C1139.79 1398.68 1139.33 1398.95 1139.07 1399.38L1120.9 1429.57C1120.62 1430.02 1120.62 1430.59 1120.89 1431.05L1128.79 1444.29C1129.35 1445.23 1130.73 1445.22 1131.27 1444.26L1155.98 1400.84C1156.52 1399.88 1155.83 1398.68 1154.73 1398.68Z" stroke="#EBEBEB" stroke-opacity="0.07" stroke-width="0.959963"/>
<rect x="1218.45" y="1398.68" width="19.3793" height="128.457" rx="1.43994" stroke="#EBEBEB" stroke-opacity="0.07" stroke-width="0.959963"/>
<rect x="1334.83" y="1434.8" width="19.3793" height="92.3403" rx="1.43994" stroke="#EBEBEB" stroke-opacity="0.07" stroke-width="0.959963"/>
<rect x="1298.22" y="1398.68" width="93.6177" height="19.1046" rx="1.43994" stroke="#EBEBEB" stroke-opacity="0.07" stroke-width="0.959963"/>
<path d="M705.148 1701.92V1716.64C705.148 1717.42 704.503 1718.09 703.664 1718.17C698.715 1718.65 694.521 1720.9 691.564 1723.69C688.622 1726.46 686.842 1729.83 686.842 1732.6C686.842 1733.75 686.842 1736.95 686.842 1741.35C686.842 1758.26 686.841 1792.94 686.842 1797.31C686.843 1798.71 687.38 1800.25 688.281 1801.75C689.185 1803.26 690.473 1804.78 692.023 1806.16C695.117 1808.92 699.301 1811.17 703.653 1811.71C704.502 1811.82 705.148 1812.5 705.148 1813.28V1827.5C705.148 1828.3 704.501 1828.93 703.736 1828.88C694.344 1828.35 685.52 1823.92 679.041 1817.86C672.553 1811.8 668.48 1804.17 668.48 1797.31V1732.6C668.48 1719.66 680.345 1701.46 703.723 1700.52C704.499 1700.49 705.148 1701.12 705.148 1701.92Z" stroke="#EBEBEB" stroke-opacity="0.07" stroke-width="0.959963"/>
<path d="M722.379 1827.5L722.379 1812.78C722.379 1811.99 723.024 1811.32 723.863 1811.24C728.812 1810.76 733.006 1808.52 735.963 1805.73C738.905 1802.96 740.685 1799.58 740.685 1796.81C740.685 1795.67 740.685 1792.47 740.685 1788.07C740.685 1771.16 740.686 1736.48 740.685 1732.1C740.684 1730.7 740.147 1729.17 739.246 1727.67C738.342 1726.15 737.054 1724.64 735.504 1723.25C732.41 1720.5 728.226 1718.25 723.874 1717.7C723.025 1717.6 722.379 1716.92 722.379 1716.14L722.379 1701.92C722.379 1701.12 723.026 1700.49 723.791 1700.53C733.183 1701.07 742.007 1705.5 748.486 1711.56C754.974 1717.62 759.047 1725.24 759.047 1732.1L759.047 1796.81C759.047 1809.76 747.181 1827.96 723.804 1828.9C723.028 1828.93 722.379 1828.3 722.379 1827.5Z" stroke="#EBEBEB" stroke-opacity="0.07" stroke-width="0.959963"/>
<path d="M822.296 1700.48H836.672C837.183 1700.48 837.656 1700.75 837.915 1701.19L911.431 1826.77C911.993 1827.73 911.3 1828.94 910.188 1828.94H895.319C894.806 1828.94 894.332 1828.66 894.074 1828.22L821.052 1702.64C820.493 1701.68 821.186 1700.48 822.296 1700.48Z" stroke="#EBEBEB" stroke-opacity="0.07" stroke-width="0.959963"/>
<path d="M855.615 1796.1L848.183 1783.36C847.625 1782.41 846.243 1782.41 845.691 1783.37L821.03 1826.28C820.478 1827.24 821.171 1828.43 822.278 1828.43H837.167C837.684 1828.43 838.162 1828.16 838.418 1827.71L855.622 1797.54C855.877 1797.09 855.874 1796.54 855.615 1796.1Z" stroke="#EBEBEB" stroke-opacity="0.07" stroke-width="0.959963"/>
<path d="M909.727 1700.48H895.3C894.795 1700.48 894.327 1700.74 894.066 1701.18L875.897 1731.37C875.623 1731.82 875.621 1732.39 875.893 1732.85L883.786 1746.08C884.351 1747.03 885.729 1747.02 886.274 1746.06L910.979 1702.63C911.525 1701.67 910.832 1700.48 909.727 1700.48Z" stroke="#EBEBEB" stroke-opacity="0.07" stroke-width="0.959963"/>
<rect x="973.447" y="1700.48" width="19.3793" height="128.457" rx="1.43994" stroke="#EBEBEB" stroke-opacity="0.07" stroke-width="0.959963"/>
<rect x="1089.83" y="1736.6" width="19.3793" height="92.3403" rx="1.43994" stroke="#EBEBEB" stroke-opacity="0.07" stroke-width="0.959963"/>
<rect x="1053.22" y="1700.48" width="93.6177" height="19.1046" rx="1.43994" stroke="#EBEBEB" stroke-opacity="0.07" stroke-width="0.959963"/>
<path d="M103.148 1938.92V1953.64C103.148 1954.42 102.503 1955.09 101.664 1955.17C96.715 1955.65 92.5212 1957.9 89.5638 1960.69C86.622 1963.46 84.8424 1966.83 84.8424 1969.6C84.8424 1970.75 84.8423 1973.95 84.8422 1978.35C84.8417 1995.26 84.8408 2029.94 84.8424 2034.31C84.8429 2035.71 85.3802 2037.25 86.2811 2038.75C87.1851 2040.26 88.4733 2041.78 90.0227 2043.16C93.1169 2045.92 97.3013 2048.17 101.653 2048.71C102.502 2048.82 103.148 2049.5 103.148 2050.28V2064.5C103.148 2065.3 102.501 2065.93 101.736 2065.88C92.3442 2065.35 83.5197 2060.92 77.0406 2054.86C70.5528 2048.8 66.48 2041.17 66.48 2034.31V1969.6C66.48 1956.66 78.3454 1938.46 101.723 1937.52C102.499 1937.49 103.148 1938.12 103.148 1938.92Z" stroke="#EBEBEB" stroke-opacity="0.07" stroke-width="0.959963"/>
<path d="M120.379 2064.5L120.379 2049.78C120.379 2048.99 121.024 2048.32 121.863 2048.24C126.812 2047.76 131.006 2045.52 133.963 2042.73C136.905 2039.96 138.685 2036.58 138.685 2033.81C138.685 2032.67 138.685 2029.47 138.685 2025.07C138.685 2008.16 138.686 1973.48 138.685 1969.1C138.684 1967.7 138.147 1966.17 137.246 1964.67C136.342 1963.15 135.054 1961.64 133.504 1960.25C130.41 1957.5 126.226 1955.25 121.874 1954.7C121.025 1954.6 120.379 1953.92 120.379 1953.14L120.379 1938.92C120.379 1938.12 121.026 1937.49 121.791 1937.53C131.183 1938.07 140.007 1942.5 146.486 1948.56C152.974 1954.62 157.047 1962.24 157.047 1969.1L157.047 2033.81C157.047 2046.76 145.181 2064.96 121.804 2065.9C121.028 2065.93 120.379 2065.3 120.379 2064.5Z" stroke="#EBEBEB" stroke-opacity="0.07" stroke-width="0.959963"/>
<path d="M220.296 1937.48H234.672C235.183 1937.48 235.656 1937.75 235.915 1938.19L309.431 2063.77C309.993 2064.73 309.3 2065.94 308.188 2065.94H293.319C292.806 2065.94 292.332 2065.66 292.074 2065.22L219.052 1939.64C218.493 1938.68 219.186 1937.48 220.296 1937.48Z" stroke="#EBEBEB" stroke-opacity="0.07" stroke-width="0.959963"/>
<path d="M253.615 2033.1L246.183 2020.36C245.625 2019.41 244.243 2019.41 243.691 2020.37L219.03 2063.28C218.478 2064.24 219.171 2065.43 220.278 2065.43H235.167C235.684 2065.43 236.162 2065.16 236.418 2064.71L253.622 2034.54C253.877 2034.09 253.874 2033.54 253.615 2033.1Z" stroke="#EBEBEB" stroke-opacity="0.07" stroke-width="0.959963"/>
<path d="M307.727 1937.48H293.3C292.795 1937.48 292.327 1937.74 292.066 1938.18L273.897 1968.37C273.623 1968.82 273.621 1969.39 273.893 1969.85L281.786 1983.08C282.351 1984.03 283.729 1984.02 284.274 1983.06L308.979 1939.63C309.525 1938.67 308.832 1937.48 307.727 1937.48Z" stroke="#EBEBEB" stroke-opacity="0.07" stroke-width="0.959963"/>
<rect x="371.447" y="1937.48" width="19.3793" height="128.457" rx="1.43994" stroke="#EBEBEB" stroke-opacity="0.07" stroke-width="0.959963"/>
<rect x="487.829" y="1973.6" width="19.3793" height="92.3403" rx="1.43994" stroke="#EBEBEB" stroke-opacity="0.07" stroke-width="0.959963"/>
<rect x="451.218" y="1937.48" width="93.6177" height="19.1046" rx="1.43994" stroke="#EBEBEB" stroke-opacity="0.07" stroke-width="0.959963"/>
<path d="M950.148 2166.12V2180.84C950.148 2181.63 949.503 2182.3 948.664 2182.38C943.715 2182.86 939.521 2185.1 936.564 2187.89C933.622 2190.66 931.842 2194.04 931.842 2196.81C931.842 2197.95 931.842 2201.15 931.842 2205.56C931.842 2222.46 931.841 2257.14 931.842 2261.52C931.843 2262.92 932.38 2264.45 933.281 2265.96C934.185 2267.47 935.473 2268.99 937.023 2270.37C940.117 2273.12 944.301 2275.38 948.653 2275.92C949.502 2276.02 950.148 2276.7 950.148 2277.48V2291.7C950.148 2292.5 949.501 2293.13 948.736 2293.09C939.344 2292.55 930.52 2288.12 924.041 2282.06C917.553 2276 913.48 2268.38 913.48 2261.52V2196.81C913.48 2183.87 925.345 2165.66 948.723 2164.72C949.499 2164.69 950.148 2165.33 950.148 2166.12Z" stroke="#EBEBEB" stroke-opacity="0.07" stroke-width="0.959963"/>
<path d="M967.379 2291.7L967.379 2276.98C967.379 2276.2 968.024 2275.53 968.863 2275.45C973.812 2274.97 978.006 2272.72 980.963 2269.93C983.905 2267.16 985.685 2263.79 985.685 2261.02C985.685 2259.88 985.685 2256.68 985.685 2252.27C985.685 2235.36 985.686 2200.68 985.685 2196.31C985.684 2194.91 985.147 2193.38 984.246 2191.87C983.342 2190.36 982.054 2188.84 980.504 2187.46C977.41 2184.7 973.226 2182.45 968.874 2181.91C968.025 2181.8 967.379 2181.13 967.379 2180.34L967.379 2166.12C967.379 2165.32 968.026 2164.69 968.791 2164.74C978.183 2165.27 987.007 2169.71 993.486 2175.76C999.974 2181.82 1004.05 2189.45 1004.05 2196.31L1004.05 2261.02C1004.05 2273.96 992.181 2292.16 968.804 2293.1C968.028 2293.13 967.379 2292.5 967.379 2291.7Z" stroke="#EBEBEB" stroke-opacity="0.07" stroke-width="0.959963"/>
<path d="M1067.3 2164.68H1081.67C1082.18 2164.68 1082.66 2164.96 1082.91 2165.4L1156.43 2290.97C1156.99 2291.93 1156.3 2293.14 1155.19 2293.14H1140.32C1139.81 2293.14 1139.33 2292.87 1139.07 2292.42L1066.05 2166.85C1065.49 2165.89 1066.19 2164.68 1067.3 2164.68Z" stroke="#EBEBEB" stroke-opacity="0.07" stroke-width="0.959963"/>
<path d="M1100.62 2260.3L1093.18 2247.57C1092.63 2246.61 1091.24 2246.62 1090.69 2247.58L1066.03 2290.48C1065.48 2291.44 1066.17 2292.64 1067.28 2292.64H1082.17C1082.68 2292.64 1083.16 2292.36 1083.42 2291.91L1100.62 2261.74C1100.88 2261.29 1100.87 2260.75 1100.62 2260.3Z" stroke="#EBEBEB" stroke-opacity="0.07" stroke-width="0.959963"/>
<path d="M1154.73 2164.68H1140.3C1139.79 2164.68 1139.33 2164.95 1139.07 2165.38L1120.9 2195.57C1120.62 2196.02 1120.62 2196.59 1120.89 2197.05L1128.79 2210.29C1129.35 2211.23 1130.73 2211.22 1131.27 2210.26L1155.98 2166.84C1156.52 2165.88 1155.83 2164.68 1154.73 2164.68Z" stroke="#EBEBEB" stroke-opacity="0.07" stroke-width="0.959963"/>
<rect x="1218.45" y="2164.68" width="19.3793" height="128.457" rx="1.43994" stroke="#EBEBEB" stroke-opacity="0.07" stroke-width="0.959963"/>
<rect x="1334.83" y="2200.8" width="19.3793" height="92.3403" rx="1.43994" stroke="#EBEBEB" stroke-opacity="0.07" stroke-width="0.959963"/>
<rect x="1298.22" y="2164.68" width="93.6177" height="19.1046" rx="1.43994" stroke="#EBEBEB" stroke-opacity="0.07" stroke-width="0.959963"/>
<path d="M705.148 2466.92V2481.64C705.148 2482.42 704.503 2483.09 703.664 2483.17C698.715 2483.65 694.521 2485.9 691.564 2488.69C688.622 2491.46 686.842 2494.83 686.842 2497.6C686.842 2498.75 686.842 2501.95 686.842 2506.35C686.842 2523.26 686.841 2557.94 686.842 2562.31C686.843 2563.71 687.38 2565.25 688.281 2566.75C689.185 2568.26 690.473 2569.78 692.023 2571.16C695.117 2573.92 699.301 2576.17 703.653 2576.71C704.502 2576.82 705.148 2577.5 705.148 2578.28V2592.5C705.148 2593.3 704.501 2593.93 703.736 2593.88C694.344 2593.35 685.52 2588.92 679.041 2582.86C672.553 2576.8 668.48 2569.17 668.48 2562.31V2497.6C668.48 2484.66 680.345 2466.46 703.723 2465.52C704.499 2465.49 705.148 2466.12 705.148 2466.92Z" stroke="#EBEBEB" stroke-opacity="0.07" stroke-width="0.959963"/>
<path d="M722.379 2592.5L722.379 2577.78C722.379 2576.99 723.024 2576.32 723.863 2576.24C728.812 2575.76 733.006 2573.52 735.963 2570.73C738.905 2567.96 740.685 2564.58 740.685 2561.81C740.685 2560.67 740.685 2557.47 740.685 2553.07C740.685 2536.16 740.686 2501.48 740.685 2497.1C740.684 2495.7 740.147 2494.17 739.246 2492.67C738.342 2491.15 737.054 2489.64 735.504 2488.25C732.41 2485.5 728.226 2483.25 723.874 2482.7C723.025 2482.6 722.379 2481.92 722.379 2481.14L722.379 2466.92C722.379 2466.12 723.026 2465.49 723.791 2465.53C733.183 2466.07 742.007 2470.5 748.486 2476.56C754.974 2482.62 759.047 2490.24 759.047 2497.1L759.047 2561.81C759.047 2574.76 747.181 2592.96 723.804 2593.9C723.028 2593.93 722.379 2593.3 722.379 2592.5Z" stroke="#EBEBEB" stroke-opacity="0.07" stroke-width="0.959963"/>
<path d="M822.296 2465.48H836.672C837.183 2465.48 837.656 2465.75 837.915 2466.19L911.431 2591.77C911.993 2592.73 911.3 2593.94 910.188 2593.94H895.319C894.806 2593.94 894.332 2593.66 894.074 2593.22L821.052 2467.64C820.493 2466.68 821.186 2465.48 822.296 2465.48Z" stroke="#EBEBEB" stroke-opacity="0.07" stroke-width="0.959963"/>
<path d="M855.615 2561.1L848.183 2548.36C847.625 2547.41 846.243 2547.41 845.691 2548.37L821.03 2591.28C820.478 2592.24 821.171 2593.43 822.278 2593.43H837.167C837.684 2593.43 838.162 2593.16 838.418 2592.71L855.622 2562.54C855.877 2562.09 855.874 2561.54 855.615 2561.1Z" stroke="#EBEBEB" stroke-opacity="0.07" stroke-width="0.959963"/>
<path d="M909.727 2465.48H895.3C894.795 2465.48 894.327 2465.74 894.066 2466.18L875.897 2496.37C875.623 2496.82 875.621 2497.39 875.893 2497.85L883.786 2511.08C884.351 2512.03 885.729 2512.02 886.274 2511.06L910.979 2467.63C911.525 2466.67 910.832 2465.48 909.727 2465.48Z" stroke="#EBEBEB" stroke-opacity="0.07" stroke-width="0.959963"/>
<rect x="973.447" y="2465.48" width="19.3793" height="128.457" rx="1.43994" stroke="#EBEBEB" stroke-opacity="0.07" stroke-width="0.959963"/>
<rect x="1089.83" y="2501.6" width="19.3793" height="92.3403" rx="1.43994" stroke="#EBEBEB" stroke-opacity="0.07" stroke-width="0.959963"/>
<rect x="1053.22" y="2465.48" width="93.6177" height="19.1046" rx="1.43994" stroke="#EBEBEB" stroke-opacity="0.07" stroke-width="0.959963"/>
<path d="M103.148 2703.92V2718.64C103.148 2719.42 102.503 2720.09 101.664 2720.17C96.715 2720.65 92.5212 2722.9 89.5638 2725.69C86.622 2728.46 84.8424 2731.83 84.8424 2734.6C84.8424 2735.75 84.8423 2738.95 84.8422 2743.35C84.8417 2760.26 84.8408 2794.94 84.8424 2799.31C84.8429 2800.71 85.3802 2802.25 86.2811 2803.75C87.1851 2805.26 88.4733 2806.78 90.0227 2808.16C93.1169 2810.92 97.3013 2813.17 101.653 2813.71C102.502 2813.82 103.148 2814.5 103.148 2815.28V2829.5C103.148 2830.3 102.501 2830.93 101.736 2830.88C92.3442 2830.35 83.5197 2825.92 77.0406 2819.86C70.5528 2813.8 66.48 2806.17 66.48 2799.31V2734.6C66.48 2721.66 78.3454 2703.46 101.723 2702.52C102.499 2702.49 103.148 2703.12 103.148 2703.92Z" stroke="#EBEBEB" stroke-opacity="0.07" stroke-width="0.959963"/>
<path d="M120.379 2829.5L120.379 2814.78C120.379 2813.99 121.024 2813.32 121.863 2813.24C126.812 2812.76 131.006 2810.52 133.963 2807.73C136.905 2804.96 138.685 2801.58 138.685 2798.81C138.685 2797.67 138.685 2794.47 138.685 2790.07C138.685 2773.16 138.686 2738.48 138.685 2734.1C138.684 2732.7 138.147 2731.17 137.246 2729.67C136.342 2728.15 135.054 2726.64 133.504 2725.25C130.41 2722.5 126.226 2720.25 121.874 2719.7C121.025 2719.6 120.379 2718.92 120.379 2718.14L120.379 2703.92C120.379 2703.12 121.026 2702.49 121.791 2702.53C131.183 2703.07 140.007 2707.5 146.486 2713.56C152.974 2719.62 157.047 2727.24 157.047 2734.1L157.047 2798.81C157.047 2811.76 145.181 2829.96 121.804 2830.9C121.028 2830.93 120.379 2830.3 120.379 2829.5Z" stroke="#EBEBEB" stroke-opacity="0.07" stroke-width="0.959963"/>
<path d="M220.296 2702.48H234.672C235.183 2702.48 235.656 2702.75 235.915 2703.19L309.431 2828.77C309.993 2829.73 309.3 2830.94 308.188 2830.94H293.319C292.806 2830.94 292.332 2830.66 292.074 2830.22L219.052 2704.64C218.493 2703.68 219.186 2702.48 220.296 2702.48Z" stroke="#EBEBEB" stroke-opacity="0.07" stroke-width="0.959963"/>
<path d="M253.615 2798.1L246.183 2785.36C245.625 2784.41 244.243 2784.41 243.691 2785.37L219.03 2828.28C218.478 2829.24 219.171 2830.43 220.278 2830.43H235.167C235.684 2830.43 236.162 2830.16 236.418 2829.71L253.622 2799.54C253.877 2799.09 253.874 2798.54 253.615 2798.1Z" stroke="#EBEBEB" stroke-opacity="0.07" stroke-width="0.959963"/>
<path d="M307.727 2702.48H293.3C292.795 2702.48 292.327 2702.74 292.066 2703.18L273.897 2733.37C273.623 2733.82 273.621 2734.39 273.893 2734.85L281.786 2748.08C282.351 2749.03 283.729 2749.02 284.274 2748.06L308.979 2704.63C309.525 2703.67 308.832 2702.48 307.727 2702.48Z" stroke="#EBEBEB" stroke-opacity="0.07" stroke-width="0.959963"/>
<rect x="371.447" y="2702.48" width="19.3793" height="128.457" rx="1.43994" stroke="#EBEBEB" stroke-opacity="0.07" stroke-width="0.959963"/>
<rect x="487.829" y="2738.6" width="19.3793" height="92.3403" rx="1.43994" stroke="#EBEBEB" stroke-opacity="0.07" stroke-width="0.959963"/>
<rect x="451.218" y="2702.48" width="93.6177" height="19.1046" rx="1.43994" stroke="#EBEBEB" stroke-opacity="0.07" stroke-width="0.959963"/>
<path d="M950.148 2931.12V2945.84C950.148 2946.63 949.503 2947.3 948.664 2947.38C943.715 2947.86 939.521 2950.1 936.564 2952.89C933.622 2955.66 931.842 2959.04 931.842 2961.81C931.842 2962.95 931.842 2966.15 931.842 2970.56C931.842 2987.46 931.841 3022.14 931.842 3026.52C931.843 3027.92 932.38 3029.45 933.281 3030.96C934.185 3032.47 935.473 3033.99 937.023 3035.37C940.117 3038.12 944.301 3040.38 948.653 3040.92C949.502 3041.02 950.148 3041.7 950.148 3042.48V3056.7C950.148 3057.5 949.501 3058.13 948.736 3058.09C939.344 3057.55 930.52 3053.12 924.041 3047.06C917.553 3041 913.48 3033.38 913.48 3026.52V2961.81C913.48 2948.87 925.345 2930.66 948.723 2929.72C949.499 2929.69 950.148 2930.33 950.148 2931.12Z" stroke="#EBEBEB" stroke-opacity="0.07" stroke-width="0.959963"/>
<path d="M967.379 3056.7L967.379 3041.98C967.379 3041.2 968.024 3040.53 968.863 3040.45C973.812 3039.97 978.006 3037.72 980.963 3034.93C983.905 3032.16 985.685 3028.79 985.685 3026.02C985.685 3024.88 985.685 3021.68 985.685 3017.27C985.685 3000.36 985.686 2965.68 985.685 2961.31C985.684 2959.91 985.147 2958.38 984.246 2956.87C983.342 2955.36 982.054 2953.84 980.504 2952.46C977.41 2949.7 973.226 2947.45 968.874 2946.91C968.025 2946.8 967.379 2946.13 967.379 2945.34L967.379 2931.12C967.379 2930.32 968.026 2929.69 968.791 2929.74C978.183 2930.27 987.007 2934.71 993.486 2940.76C999.974 2946.82 1004.05 2954.45 1004.05 2961.31L1004.05 3026.02C1004.05 3038.96 992.181 3057.16 968.804 3058.1C968.028 3058.13 967.379 3057.5 967.379 3056.7Z" stroke="#EBEBEB" stroke-opacity="0.07" stroke-width="0.959963"/>
<path d="M1067.3 2929.68H1081.67C1082.18 2929.68 1082.66 2929.96 1082.91 2930.4L1156.43 3055.97C1156.99 3056.93 1156.3 3058.14 1155.19 3058.14H1140.32C1139.81 3058.14 1139.33 3057.87 1139.07 3057.42L1066.05 2931.85C1065.49 2930.89 1066.19 2929.68 1067.3 2929.68Z" stroke="#EBEBEB" stroke-opacity="0.07" stroke-width="0.959963"/>
<path d="M1100.62 3025.3L1093.18 3012.57C1092.63 3011.61 1091.24 3011.62 1090.69 3012.58L1066.03 3055.48C1065.48 3056.44 1066.17 3057.64 1067.28 3057.64H1082.17C1082.68 3057.64 1083.16 3057.36 1083.42 3056.91L1100.62 3026.74C1100.88 3026.29 1100.87 3025.75 1100.62 3025.3Z" stroke="#EBEBEB" stroke-opacity="0.07" stroke-width="0.959963"/>
<path d="M1154.73 2929.68H1140.3C1139.79 2929.68 1139.33 2929.95 1139.07 2930.38L1120.9 2960.57C1120.62 2961.02 1120.62 2961.59 1120.89 2962.05L1128.79 2975.29C1129.35 2976.23 1130.73 2976.22 1131.27 2975.26L1155.98 2931.84C1156.52 2930.88 1155.83 2929.68 1154.73 2929.68Z" stroke="#EBEBEB" stroke-opacity="0.07" stroke-width="0.959963"/>
<rect x="1218.45" y="2929.68" width="19.3793" height="128.457" rx="1.43994" stroke="#EBEBEB" stroke-opacity="0.07" stroke-width="0.959963"/>
<rect x="1334.83" y="2965.8" width="19.3793" height="92.3403" rx="1.43994" stroke="#EBEBEB" stroke-opacity="0.07" stroke-width="0.959963"/>
<rect x="1298.22" y="2929.68" width="93.6177" height="19.1046" rx="1.43994" stroke="#EBEBEB" stroke-opacity="0.07" stroke-width="0.959963"/>
<path d="M705.148 3231.92V3246.64C705.148 3247.42 704.503 3248.09 703.664 3248.17C698.715 3248.65 694.521 3250.9 691.564 3253.69C688.622 3256.46 686.842 3259.83 686.842 3262.6C686.842 3263.75 686.842 3266.95 686.842 3271.35C686.842 3288.26 686.841 3322.94 686.842 3327.31C686.843 3328.71 687.38 3330.25 688.281 3331.75C689.185 3333.26 690.473 3334.78 692.023 3336.16C695.117 3338.92 699.301 3341.17 703.653 3341.71C704.502 3341.82 705.148 3342.5 705.148 3343.28V3357.5C705.148 3358.3 704.501 3358.93 703.736 3358.88C694.344 3358.35 685.52 3353.92 679.041 3347.86C672.553 3341.8 668.48 3334.17 668.48 3327.31V3262.6C668.48 3249.66 680.345 3231.46 703.723 3230.52C704.499 3230.49 705.148 3231.12 705.148 3231.92Z" stroke="#EBEBEB" stroke-opacity="0.07" stroke-width="0.959963"/>
<path d="M722.379 3357.5L722.379 3342.78C722.379 3341.99 723.024 3341.32 723.863 3341.24C728.812 3340.76 733.006 3338.52 735.963 3335.73C738.905 3332.96 740.685 3329.58 740.685 3326.81C740.685 3325.67 740.685 3322.47 740.685 3318.07C740.685 3301.16 740.686 3266.48 740.685 3262.1C740.684 3260.7 740.147 3259.17 739.246 3257.67C738.342 3256.15 737.054 3254.64 735.504 3253.25C732.41 3250.5 728.226 3248.25 723.874 3247.7C723.025 3247.6 722.379 3246.92 722.379 3246.14L722.379 3231.92C722.379 3231.12 723.026 3230.49 723.791 3230.53C733.183 3231.07 742.007 3235.5 748.486 3241.56C754.974 3247.62 759.047 3255.24 759.047 3262.1L759.047 3326.81C759.047 3339.76 747.181 3357.96 723.804 3358.9C723.028 3358.93 722.379 3358.3 722.379 3357.5Z" stroke="#EBEBEB" stroke-opacity="0.07" stroke-width="0.959963"/>
<path d="M822.296 3230.48H836.672C837.183 3230.48 837.656 3230.75 837.915 3231.19L911.431 3356.77C911.993 3357.73 911.3 3358.94 910.188 3358.94H895.319C894.806 3358.94 894.332 3358.66 894.074 3358.22L821.052 3232.64C820.493 3231.68 821.186 3230.48 822.296 3230.48Z" stroke="#EBEBEB" stroke-opacity="0.07" stroke-width="0.959963"/>
<path d="M855.615 3326.1L848.183 3313.36C847.625 3312.41 846.243 3312.41 845.691 3313.37L821.03 3356.28C820.478 3357.24 821.171 3358.43 822.278 3358.43H837.167C837.684 3358.43 838.162 3358.16 838.418 3357.71L855.622 3327.54C855.877 3327.09 855.874 3326.54 855.615 3326.1Z" stroke="#EBEBEB" stroke-opacity="0.07" stroke-width="0.959963"/>
<path d="M909.727 3230.48H895.3C894.795 3230.48 894.327 3230.74 894.066 3231.18L875.897 3261.37C875.623 3261.82 875.621 3262.39 875.893 3262.85L883.786 3276.08C884.351 3277.03 885.729 3277.02 886.274 3276.06L910.979 3232.63C911.525 3231.67 910.832 3230.48 909.727 3230.48Z" stroke="#EBEBEB" stroke-opacity="0.07" stroke-width="0.959963"/>
<rect x="973.447" y="3230.48" width="19.3793" height="128.457" rx="1.43994" stroke="#EBEBEB" stroke-opacity="0.07" stroke-width="0.959963"/>
<rect x="1089.83" y="3266.6" width="19.3793" height="92.3403" rx="1.43994" stroke="#EBEBEB" stroke-opacity="0.07" stroke-width="0.959963"/>
<rect x="1053.22" y="3230.48" width="93.6177" height="19.1046" rx="1.43994" stroke="#EBEBEB" stroke-opacity="0.07" stroke-width="0.959963"/>
<path d="M103.148 3468.92V3483.64C103.148 3484.42 102.503 3485.09 101.664 3485.17C96.715 3485.65 92.5212 3487.9 89.5638 3490.69C86.622 3493.46 84.8424 3496.83 84.8424 3499.6C84.8424 3500.75 84.8423 3503.95 84.8422 3508.35C84.8417 3525.26 84.8408 3559.94 84.8424 3564.31C84.8429 3565.71 85.3802 3567.25 86.2811 3568.75C87.1851 3570.26 88.4733 3571.78 90.0227 3573.16C93.1169 3575.92 97.3013 3578.17 101.653 3578.71C102.502 3578.82 103.148 3579.5 103.148 3580.28V3594.5C103.148 3595.3 102.501 3595.93 101.736 3595.88C92.3442 3595.35 83.5197 3590.92 77.0406 3584.86C70.5528 3578.8 66.48 3571.17 66.48 3564.31V3499.6C66.48 3486.66 78.3454 3468.46 101.723 3467.52C102.499 3467.49 103.148 3468.12 103.148 3468.92Z" stroke="#EBEBEB" stroke-opacity="0.07" stroke-width="0.959963"/>
<path d="M120.379 3594.5L120.379 3579.78C120.379 3578.99 121.024 3578.32 121.863 3578.24C126.812 3577.76 131.006 3575.52 133.963 3572.73C136.905 3569.96 138.685 3566.58 138.685 3563.81C138.685 3562.67 138.685 3559.47 138.685 3555.07C138.685 3538.16 138.686 3503.48 138.685 3499.1C138.684 3497.7 138.147 3496.17 137.246 3494.67C136.342 3493.15 135.054 3491.64 133.504 3490.25C130.41 3487.5 126.226 3485.25 121.874 3484.7C121.025 3484.6 120.379 3483.92 120.379 3483.14L120.379 3468.92C120.379 3468.12 121.026 3467.49 121.791 3467.53C131.183 3468.07 140.007 3472.5 146.486 3478.56C152.974 3484.62 157.047 3492.24 157.047 3499.1L157.047 3563.81C157.047 3576.76 145.181 3594.96 121.804 3595.9C121.028 3595.93 120.379 3595.3 120.379 3594.5Z" stroke="#EBEBEB" stroke-opacity="0.07" stroke-width="0.959963"/>
<path d="M220.296 3467.48H234.672C235.183 3467.48 235.656 3467.75 235.915 3468.19L309.431 3593.77C309.993 3594.73 309.3 3595.94 308.188 3595.94H293.319C292.806 3595.94 292.332 3595.66 292.074 3595.22L219.052 3469.64C218.493 3468.68 219.186 3467.48 220.296 3467.48Z" stroke="#EBEBEB" stroke-opacity="0.07" stroke-width="0.959963"/>
<path d="M253.615 3563.1L246.183 3550.36C245.625 3549.41 244.243 3549.41 243.691 3550.37L219.03 3593.28C218.478 3594.24 219.171 3595.43 220.278 3595.43H235.167C235.684 3595.43 236.162 3595.16 236.418 3594.71L253.622 3564.54C253.877 3564.09 253.874 3563.54 253.615 3563.1Z" stroke="#EBEBEB" stroke-opacity="0.07" stroke-width="0.959963"/>
<path d="M307.727 3467.48H293.3C292.795 3467.48 292.327 3467.74 292.066 3468.18L273.897 3498.37C273.623 3498.82 273.621 3499.39 273.893 3499.85L281.786 3513.08C282.351 3514.03 283.729 3514.02 284.274 3513.06L308.979 3469.63C309.525 3468.67 308.832 3467.48 307.727 3467.48Z" stroke="#EBEBEB" stroke-opacity="0.07" stroke-width="0.959963"/>
<rect x="371.447" y="3467.48" width="19.3793" height="128.457" rx="1.43994" stroke="#EBEBEB" stroke-opacity="0.07" stroke-width="0.959963"/>
<rect x="487.829" y="3503.6" width="19.3793" height="92.3403" rx="1.43994" stroke="#EBEBEB" stroke-opacity="0.07" stroke-width="0.959963"/>
<rect x="451.218" y="3467.48" width="93.6177" height="19.1046" rx="1.43994" stroke="#EBEBEB" stroke-opacity="0.07" stroke-width="0.959963"/>
<path d="M950.148 3696.12V3710.84C950.148 3711.63 949.503 3712.3 948.664 3712.38C943.715 3712.86 939.521 3715.1 936.564 3717.89C933.622 3720.66 931.842 3724.04 931.842 3726.81C931.842 3727.95 931.842 3731.15 931.842 3735.56C931.842 3752.46 931.841 3787.14 931.842 3791.52C931.843 3792.92 932.38 3794.45 933.281 3795.96C934.185 3797.47 935.473 3798.99 937.023 3800.37C940.117 3803.12 944.301 3805.38 948.653 3805.92C949.502 3806.02 950.148 3806.7 950.148 3807.48V3821.7C950.148 3822.5 949.501 3823.13 948.736 3823.09C939.344 3822.55 930.52 3818.12 924.041 3812.06C917.553 3806 913.48 3798.38 913.48 3791.52V3726.81C913.48 3713.87 925.345 3695.66 948.723 3694.72C949.499 3694.69 950.148 3695.33 950.148 3696.12Z" stroke="#EBEBEB" stroke-opacity="0.07" stroke-width="0.959963"/>
<path d="M967.379 3821.7L967.379 3806.98C967.379 3806.2 968.024 3805.53 968.863 3805.45C973.812 3804.97 978.006 3802.72 980.963 3799.93C983.905 3797.16 985.685 3793.79 985.685 3791.02C985.685 3789.88 985.685 3786.68 985.685 3782.27C985.685 3765.36 985.686 3730.68 985.685 3726.31C985.684 3724.91 985.147 3723.38 984.246 3721.87C983.342 3720.36 982.054 3718.84 980.504 3717.46C977.41 3714.7 973.226 3712.45 968.874 3711.91C968.025 3711.8 967.379 3711.13 967.379 3710.34L967.379 3696.12C967.379 3695.32 968.026 3694.69 968.791 3694.74C978.183 3695.27 987.007 3699.71 993.486 3705.76C999.974 3711.82 1004.05 3719.45 1004.05 3726.31L1004.05 3791.02C1004.05 3803.96 992.181 3822.16 968.804 3823.1C968.028 3823.13 967.379 3822.5 967.379 3821.7Z" stroke="#EBEBEB" stroke-opacity="0.07" stroke-width="0.959963"/>
<path d="M1067.3 3694.68H1081.67C1082.18 3694.68 1082.66 3694.96 1082.91 3695.4L1156.43 3820.97C1156.99 3821.93 1156.3 3823.14 1155.19 3823.14H1140.32C1139.81 3823.14 1139.33 3822.87 1139.07 3822.42L1066.05 3696.85C1065.49 3695.89 1066.19 3694.68 1067.3 3694.68Z" stroke="#EBEBEB" stroke-opacity="0.07" stroke-width="0.959963"/>
<path d="M1100.62 3790.3L1093.18 3777.57C1092.63 3776.61 1091.24 3776.62 1090.69 3777.58L1066.03 3820.48C1065.48 3821.44 1066.17 3822.64 1067.28 3822.64H1082.17C1082.68 3822.64 1083.16 3822.36 1083.42 3821.91L1100.62 3791.74C1100.88 3791.29 1100.87 3790.75 1100.62 3790.3Z" stroke="#EBEBEB" stroke-opacity="0.07" stroke-width="0.959963"/>
<path d="M1154.73 3694.68H1140.3C1139.79 3694.68 1139.33 3694.95 1139.07 3695.38L1120.9 3725.57C1120.62 3726.02 1120.62 3726.59 1120.89 3727.05L1128.79 3740.29C1129.35 3741.23 1130.73 3741.22 1131.27 3740.26L1155.98 3696.84C1156.52 3695.88 1155.83 3694.68 1154.73 3694.68Z" stroke="#EBEBEB" stroke-opacity="0.07" stroke-width="0.959963"/>
<rect x="1218.45" y="3694.68" width="19.3793" height="128.457" rx="1.43994" stroke="#EBEBEB" stroke-opacity="0.07" stroke-width="0.959963"/>
<rect x="1334.83" y="3730.8" width="19.3793" height="92.3403" rx="1.43994" stroke="#EBEBEB" stroke-opacity="0.07" stroke-width="0.959963"/>
<rect x="1298.22" y="3694.68" width="93.6177" height="19.1046" rx="1.43994" stroke="#EBEBEB" stroke-opacity="0.07" stroke-width="0.959963"/>
</svg>
