<svg width="23" height="18" viewBox="0 0 23 18" fill="none" xmlns="http://www.w3.org/2000/svg">
<g filter="url(#filter0_f_64_16476)">
<mask id="mask0_64_16476" style="mask-type:luminance" maskUnits="userSpaceOnUse" x="1" y="1" width="22" height="16">
<path d="M1 3C1 1.89543 1.89543 1 3 1H20.3333C21.4379 1 22.3333 1.89543 22.3333 3V15C22.3333 16.1046 21.4379 17 20.3333 17H3C1.89543 17 1 16.1046 1 15V3Z" fill="white"/>
</mask>
<g mask="url(#mask0_64_16476)">
<path fill-rule="evenodd" clip-rule="evenodd" d="M1 1V17H22.3333V1H1Z" fill="#2E42A5"/>
<mask id="mask1_64_16476" style="mask-type:luminance" maskUnits="userSpaceOnUse" x="1" y="1" width="22" height="16">
<path fill-rule="evenodd" clip-rule="evenodd" d="M1 1V17H22.3333V1H1Z" fill="white"/>
</mask>
<g mask="url(#mask1_64_16476)">
<mask id="mask2_64_16476" style="mask-type:luminance" maskUnits="userSpaceOnUse" x="1" y="1" width="22" height="16">
<path d="M1 1H22.3333V17H1V1Z" fill="white"/>
</mask>
<g mask="url(#mask2_64_16476)">
<path d="M-1.375 15.8572L3.31946 17.8425L22.4403 3.15882L24.9165 0.208495L19.8965 -0.455078L12.0976 5.87257L5.82019 10.1359L-1.375 15.8572Z" fill="white"/>
<path d="M-0.730469 17.2484L1.66114 18.4005L24.0292 -0.0654297H20.6711L-0.730469 17.2484Z" fill="#F50100"/>
<path d="M24.7095 15.8572L20.015 17.8425L0.894191 3.15882L-1.58203 0.208495L3.43802 -0.455078L11.2369 5.87257L17.5143 10.1359L24.7095 15.8572Z" fill="white"/>
<path d="M24.5493 16.8557L22.1577 18.0078L12.6332 10.1016L9.80929 9.21819L-1.82031 0.21875H1.53779L13.1609 9.00459L16.2482 10.0639L24.5493 16.8557Z" fill="#F50100"/>
<path fill-rule="evenodd" clip-rule="evenodd" d="M14.1877 -0.333008H9.15065V6.33366H-0.3125V11.667H9.15065V18.3337H14.1877V11.667H23.6875V6.33366H14.1877V-0.333008Z" fill="#F50100"/>
<mask id="mask3_64_16476" style="mask-type:luminance" maskUnits="userSpaceOnUse" x="-1" y="-1" width="25" height="20">
<path fill-rule="evenodd" clip-rule="evenodd" d="M14.1837 -0.333008H9.14675V6.33366H-0.316406V11.667H9.14675V18.3337H14.1837V11.667H23.6836V6.33366H14.1837V-0.333008Z" fill="white"/>
</mask>
<g mask="url(#mask3_64_16476)">
<path d="M9.14805 -0.332682V-1.66602H7.81472V-0.332682H9.14805ZM14.1851 -0.332682H15.5184V-1.66602H14.1851V-0.332682ZM9.14805 6.33398V7.66732H10.4814V6.33398H9.14805ZM-0.315104 6.33398V5.00065H-1.64844V6.33398H-0.315104ZM-0.315104 11.6673H-1.64844V13.0007H-0.315104V11.6673ZM9.14805 11.6673H10.4814V10.334H9.14805V11.6673ZM9.14805 18.334H7.81472V19.6673H9.14805V18.334ZM14.1851 18.334V19.6673H15.5184V18.334H14.1851ZM14.1851 11.6673V10.334H12.8517V11.6673H14.1851ZM23.6849 11.6673V13.0007H25.0182V11.6673H23.6849ZM23.6849 6.33398H25.0182V5.00065H23.6849V6.33398ZM14.1851 6.33398H12.8517V7.66732H14.1851V6.33398ZM9.14805 1.00065H14.1851V-1.66602H9.14805V1.00065ZM10.4814 6.33398V-0.332682H7.81472V6.33398H10.4814ZM-0.315104 7.66732H9.14805V5.00065H-0.315104V7.66732ZM1.01823 11.6673V6.33398H-1.64844V11.6673H1.01823ZM9.14805 10.334H-0.315104V13.0007H9.14805V10.334ZM10.4814 18.334V11.6673H7.81472V18.334H10.4814ZM14.1851 17.0007H9.14805V19.6673H14.1851V17.0007ZM12.8517 11.6673V18.334H15.5184V11.6673H12.8517ZM23.6849 10.334H14.1851V13.0007H23.6849V10.334ZM22.3516 6.33398V11.6673H25.0182V6.33398H22.3516ZM14.1851 7.66732H23.6849V5.00065H14.1851V7.66732ZM12.8517 -0.332682V6.33398H15.5184V-0.332682H12.8517Z" fill="white"/>
</g>
</g>
</g>
</g>
</g>
<defs>
<filter id="filter0_f_64_16476" x="0.8" y="0.8" width="21.733" height="16.4" filterUnits="userSpaceOnUse" color-interpolation-filters="sRGB">
<feFlood flood-opacity="0" result="BackgroundImageFix"/>
<feBlend mode="normal" in="SourceGraphic" in2="BackgroundImageFix" result="shape"/>
<feGaussianBlur stdDeviation="0.1" result="effect1_foregroundBlur_64_16476"/>
</filter>
</defs>
</svg>
