<svg width="180" height="62" viewBox="0 0 180 62" fill="none" xmlns="http://www.w3.org/2000/svg">
<path d="M7.25622 12.6491C7.25622 11.2217 8.6144 9.2581 10.7696 8.1736C12.4896 7.30813 14.1305 5.81167 14.1305 3.88623C14.1305 1.96078 12.55 0.352851 10.6665 0.752728C3.59713 2.25362 0 8.23238 0 12.6491V36.9592C0 41.5851 4.78903 47.0211 10.7757 48.5814C12.5886 49.0539 14.1305 47.5013 14.1305 45.6279C14.1305 43.7545 12.5414 42.2412 10.8864 41.3634C8.81722 40.2658 7.25672 38.3559 7.25622 36.9592C7.25547 34.8862 7.25622 14.7221 7.25622 12.6491Z" fill="#0047FF"/>
<path d="M27.1149 36.7708C27.1149 38.1982 25.7567 40.1618 23.6015 41.2463C21.8815 42.1118 20.2406 43.6083 20.2406 45.5337C20.2406 47.4591 21.8211 49.0671 23.7046 48.6672C30.774 47.1663 34.3711 41.1875 34.3711 36.7708L34.3711 12.4608C34.3711 7.83486 29.5821 2.39885 23.5954 0.838527C21.7825 0.366042 20.2406 1.91866 20.2406 3.79207C20.2406 5.66547 21.8297 7.17869 23.4847 8.05654C25.5539 9.15409 27.1144 11.0641 27.1149 12.4608C27.1156 14.5337 27.1149 34.6978 27.1149 36.7708Z" fill="#E50E8A"/>
<path d="M89.453 44.311L64.642 1.91278C64.0937 0.975763 63.0895 0.399902 62.0038 0.399902C59.6467 0.399902 58.1766 2.95494 59.3611 4.99275L84.0478 47.4635C84.6078 48.4271 85.6382 49.0199 86.7527 49.0199C89.1694 49.0199 90.6736 46.3968 89.453 44.311Z" fill="#FF000A"/>
<path d="M59.3949 44.1236L64.5032 35.2325C65.7 33.1495 68.7016 33.1395 69.9122 35.2145C70.4742 36.1779 70.4802 37.3678 69.9279 38.3368L64.8503 47.2454C64.2912 48.2263 63.2489 48.8319 62.1199 48.8319C59.7036 48.8319 58.1912 46.2187 59.3949 44.1236Z" fill="#9BFF00"/>
<path d="M78.6923 10.8082L84.0528 1.89825C84.6122 0.96851 85.6179 0.399902 86.7029 0.399902C89.0747 0.399902 90.5638 2.95973 89.3913 5.02149L84.2511 14.0603C83.0308 16.2061 79.9493 16.2376 78.6854 14.1172C78.0775 13.0973 78.0801 11.8256 78.6923 10.8082Z" fill="#9BFF00"/>
<rect x="114.527" y="0.399902" width="7.63812" height="48.62" rx="3.81906" fill="#8C00FF"/>
<rect x="158.234" y="13.9683" width="7.63812" height="35.0517" rx="3.81906" fill="#00B3FF"/>
<rect x="144.484" y="0.399902" width="35.5173" height="7.53799" rx="3.76899" fill="#FF8300"/>
<path d="M163.839 59.8926C163.451 59.8926 163.085 59.8398 162.739 59.7342C162.394 59.6227 162.122 59.4848 161.926 59.3205L162.212 58.8275C162.402 58.9683 162.647 59.0916 162.945 59.1972C163.243 59.297 163.556 59.3469 163.883 59.3469C164.33 59.3469 164.652 59.2794 164.849 59.1444C165.045 59.0035 165.144 58.8187 165.144 58.5898C165.144 58.4196 165.087 58.2876 164.974 58.1937C164.866 58.0939 164.723 58.0206 164.545 57.9736C164.366 57.9208 164.166 57.8768 163.946 57.8416C163.725 57.8064 163.505 57.7653 163.284 57.7183C163.07 57.6714 162.873 57.6039 162.694 57.5159C162.516 57.422 162.37 57.2958 162.256 57.1373C162.149 56.9789 162.096 56.7676 162.096 56.5035C162.096 56.2512 162.167 56.0252 162.31 55.8257C162.453 55.6262 162.662 55.4707 162.936 55.3592C163.216 55.2418 163.556 55.1831 163.955 55.1831C164.259 55.1831 164.563 55.2242 164.866 55.3063C165.17 55.3826 165.421 55.4853 165.617 55.6144L165.34 56.1162C165.132 55.9754 164.908 55.8756 164.67 55.8169C164.431 55.7524 164.193 55.7201 163.955 55.7201C163.532 55.7201 163.219 55.7934 163.016 55.9402C162.82 56.081 162.721 56.2629 162.721 56.4859C162.721 56.662 162.775 56.7999 162.882 56.8997C162.995 56.9994 163.141 57.0787 163.32 57.1373C163.505 57.1902 163.705 57.2342 163.919 57.2694C164.14 57.3046 164.357 57.3486 164.572 57.4014C164.792 57.4484 164.992 57.5159 165.17 57.6039C165.355 57.6861 165.501 57.8064 165.608 57.9648C165.722 58.1174 165.778 58.3199 165.778 58.5722C165.778 58.8422 165.701 59.0769 165.546 59.2764C165.397 59.4701 165.176 59.6227 164.884 59.7342C164.598 59.8398 164.25 59.8926 163.839 59.8926Z" fill="#EBEBEB"/>
<path d="M156.944 59.8926C156.455 59.8926 156.026 59.7929 155.656 59.5933C155.287 59.3879 154.998 59.1092 154.789 58.7571C154.581 58.3991 154.477 57.9912 154.477 57.5335C154.477 57.0757 154.575 56.6708 154.772 56.3187C154.974 55.9666 155.248 55.6907 155.594 55.4912C155.945 55.2858 156.339 55.1831 156.774 55.1831C157.215 55.1831 157.605 55.2829 157.945 55.4824C158.29 55.6761 158.561 55.9519 158.758 56.3099C158.955 56.662 159.053 57.0699 159.053 57.5335C159.053 57.5628 159.05 57.5951 159.044 57.6303C159.044 57.6596 159.044 57.6919 159.044 57.7271H154.959V57.2606H158.704L158.454 57.4454C158.454 57.1109 158.38 56.8146 158.231 56.5564C158.088 56.2923 157.891 56.0869 157.641 55.9402C157.39 55.7934 157.101 55.7201 156.774 55.7201C156.452 55.7201 156.163 55.7934 155.907 55.9402C155.65 56.0869 155.451 56.2923 155.308 56.5564C155.165 56.8204 155.093 57.1227 155.093 57.463V57.5599C155.093 57.912 155.171 58.223 155.326 58.493C155.487 58.7571 155.707 58.9654 155.987 59.118C156.273 59.2647 156.598 59.3381 156.961 59.3381C157.247 59.3381 157.513 59.2882 157.757 59.1884C158.007 59.0886 158.222 58.9361 158.4 58.7307L158.758 59.1356C158.549 59.3821 158.287 59.5699 157.971 59.699C157.662 59.8281 157.319 59.8926 156.944 59.8926Z" fill="#EBEBEB"/>
<path d="M150.315 59.8486V55.2271H150.949V59.8486H150.315ZM150.637 54.206C150.506 54.206 150.395 54.162 150.306 54.0739C150.217 53.9859 150.172 53.8803 150.172 53.757C150.172 53.6338 150.217 53.5311 150.306 53.4489C150.395 53.3609 150.506 53.3169 150.637 53.3169C150.768 53.3169 150.878 53.358 150.967 53.4401C151.057 53.5223 151.101 53.625 151.101 53.7482C151.101 53.8773 151.057 53.9859 150.967 54.0739C150.884 54.162 150.774 54.206 150.637 54.206Z" fill="#EBEBEB"/>
<path d="M143.964 61.6004C143.535 61.6004 143.124 61.5388 142.731 61.4155C142.337 61.2923 142.019 61.1162 141.774 60.8874L142.096 60.412C142.317 60.6057 142.588 60.7583 142.909 60.8698C143.237 60.9871 143.583 61.0458 143.946 61.0458C144.542 61.0458 144.98 60.9079 145.26 60.6321C145.54 60.3621 145.68 59.9396 145.68 59.3645V58.2113L145.77 57.419L145.707 56.6268V55.2271H146.315V59.2852C146.315 60.0834 146.115 60.6673 145.716 61.037C145.323 61.4126 144.739 61.6004 143.964 61.6004ZM143.848 59.6726C143.401 59.6726 142.999 59.5787 142.641 59.3909C142.284 59.1972 142.001 58.9302 141.792 58.5898C141.59 58.2494 141.488 57.8592 141.488 57.419C141.488 56.9789 141.59 56.5916 141.792 56.2571C142.001 55.9167 142.284 55.6526 142.641 55.4648C142.999 55.277 143.401 55.1831 143.848 55.1831C144.265 55.1831 144.641 55.2682 144.974 55.4384C145.308 55.6086 145.573 55.8609 145.77 56.1954C145.966 56.5299 146.065 56.9378 146.065 57.419C146.065 57.9003 145.966 58.3081 145.77 58.6426C145.573 58.9771 145.308 59.2324 144.974 59.4085C144.641 59.5845 144.265 59.6726 143.848 59.6726ZM143.911 59.118C144.256 59.118 144.563 59.0476 144.831 58.9067C145.099 58.76 145.311 58.5605 145.466 58.3081C145.621 58.0499 145.698 57.7535 145.698 57.419C145.698 57.0845 145.621 56.7911 145.466 56.5387C145.311 56.2864 145.099 56.0898 144.831 55.949C144.563 55.8022 144.256 55.7289 143.911 55.7289C143.571 55.7289 143.264 55.8022 142.99 55.949C142.722 56.0898 142.51 56.2864 142.355 56.5387C142.206 56.7911 142.132 57.0845 142.132 57.419C142.132 57.7535 142.206 58.0499 142.355 58.3081C142.51 58.5605 142.722 58.76 142.99 58.9067C143.264 59.0476 143.571 59.118 143.911 59.118Z" fill="#EBEBEB"/>
<path d="M136.035 59.8926C135.582 59.8926 135.174 59.7929 134.81 59.5933C134.453 59.3879 134.17 59.1092 133.961 58.7571C133.753 58.3991 133.648 57.9912 133.648 57.5335C133.648 57.0699 133.753 56.662 133.961 56.3099C134.17 55.9578 134.453 55.6819 134.81 55.4824C135.168 55.2829 135.576 55.1831 136.035 55.1831C136.5 55.1831 136.911 55.2829 137.268 55.4824C137.632 55.6819 137.915 55.9578 138.118 56.3099C138.326 56.662 138.43 57.0699 138.43 57.5335C138.43 57.9912 138.326 58.3991 138.118 58.7571C137.915 59.1092 137.632 59.3879 137.268 59.5933C136.905 59.7929 136.494 59.8926 136.035 59.8926ZM136.035 59.3381C136.375 59.3381 136.676 59.2647 136.938 59.118C137.2 58.9654 137.405 58.7541 137.554 58.4842C137.709 58.2084 137.787 57.8915 137.787 57.5335C137.787 57.1696 137.709 56.8527 137.554 56.5828C137.405 56.3128 137.2 56.1045 136.938 55.9578C136.676 55.8052 136.378 55.7289 136.044 55.7289C135.71 55.7289 135.412 55.8052 135.15 55.9578C134.888 56.1045 134.679 56.3128 134.524 56.5828C134.369 56.8527 134.292 57.1696 134.292 57.5335C134.292 57.8915 134.369 58.2084 134.524 58.4842C134.679 58.7541 134.888 58.9654 135.15 59.118C135.412 59.2647 135.707 59.3381 136.035 59.3381Z" fill="#EBEBEB"/>
<path d="M129.488 59.8486V53.3169H130.123V59.8486H129.488Z" fill="#EBEBEB"/>
<path d="M123.562 59.8926C123.109 59.8926 122.701 59.7929 122.338 59.5933C121.98 59.3879 121.697 59.1092 121.489 58.7571C121.28 58.3991 121.176 57.9912 121.176 57.5335C121.176 57.0699 121.28 56.662 121.489 56.3099C121.697 55.9578 121.98 55.6819 122.338 55.4824C122.695 55.2829 123.103 55.1831 123.562 55.1831C124.027 55.1831 124.438 55.2829 124.796 55.4824C125.159 55.6819 125.442 55.9578 125.645 56.3099C125.853 56.662 125.958 57.0699 125.958 57.5335C125.958 57.9912 125.853 58.3991 125.645 58.7571C125.442 59.1092 125.159 59.3879 124.796 59.5933C124.432 59.7929 124.021 59.8926 123.562 59.8926ZM123.562 59.3381C123.902 59.3381 124.203 59.2647 124.465 59.118C124.727 58.9654 124.933 58.7541 125.082 58.4842C125.237 58.2084 125.314 57.8915 125.314 57.5335C125.314 57.1696 125.237 56.8527 125.082 56.5828C124.933 56.3128 124.727 56.1045 124.465 55.9578C124.203 55.8052 123.905 55.7289 123.571 55.7289C123.238 55.7289 122.94 55.8052 122.677 55.9578C122.415 56.1045 122.207 56.3128 122.052 56.5828C121.897 56.8527 121.819 57.1696 121.819 57.5335C121.819 57.8915 121.897 58.2084 122.052 58.4842C122.207 58.7541 122.415 58.9654 122.677 59.118C122.94 59.2647 123.235 59.3381 123.562 59.3381Z" fill="#EBEBEB"/>
<path d="M115.77 55.1831C116.152 55.1831 116.486 55.2565 116.772 55.4032C117.064 55.544 117.29 55.7612 117.451 56.0546C117.618 56.348 117.701 56.7177 117.701 57.1637V59.8486H117.067V57.2254C117.067 56.7383 116.941 56.3715 116.691 56.125C116.447 55.8727 116.101 55.7465 115.654 55.7465C115.321 55.7465 115.029 55.814 114.778 55.949C114.534 56.0781 114.343 56.2688 114.206 56.5211C114.075 56.7676 114.01 57.0669 114.01 57.419V59.8486H113.375V55.2271H113.983V56.4947L113.884 56.2571C114.033 55.9225 114.272 55.6614 114.6 55.4736C114.927 55.2799 115.318 55.1831 115.77 55.1831Z" fill="#EBEBEB"/>
<path d="M107.497 55.1831C107.878 55.1831 108.212 55.2565 108.498 55.4032C108.79 55.544 109.017 55.7612 109.177 56.0546C109.344 56.348 109.428 56.7177 109.428 57.1637V59.8486H108.793V57.2254C108.793 56.7383 108.668 56.3715 108.418 56.125C108.173 55.8727 107.828 55.7465 107.381 55.7465C107.047 55.7465 106.755 55.814 106.505 55.949C106.261 56.0781 106.07 56.2688 105.933 56.5211C105.802 56.7676 105.736 57.0669 105.736 57.419V59.8486H105.102V53.3169H105.736V56.4947L105.611 56.2571C105.76 55.9225 105.998 55.6614 106.326 55.4736C106.654 55.2799 107.044 55.1831 107.497 55.1831Z" fill="#EBEBEB"/>
<path d="M99.8481 59.8926C99.3833 59.8926 98.9661 59.7929 98.5967 59.5933C98.2332 59.3879 97.9472 59.1092 97.7386 58.7571C97.5301 58.3991 97.4258 57.9912 97.4258 57.5335C97.4258 57.0699 97.5301 56.662 97.7386 56.3099C97.9472 55.9578 98.2332 55.6819 98.5967 55.4824C98.9661 55.2829 99.3833 55.1831 99.8481 55.1831C100.247 55.1831 100.608 55.2594 100.93 55.412C101.251 55.5646 101.505 55.7934 101.689 56.0986L101.216 56.4155C101.055 56.1808 100.855 56.0076 100.617 55.8961C100.378 55.7846 100.119 55.7289 99.8391 55.7289C99.5054 55.7289 99.2045 55.8052 98.9364 55.9578C98.6682 56.1045 98.4567 56.3128 98.3017 56.5828C98.1468 56.8527 98.0693 57.1696 98.0693 57.5335C98.0693 57.8973 98.1468 58.2142 98.3017 58.4842C98.4567 58.7541 98.6682 58.9654 98.9364 59.118C99.2045 59.2647 99.5054 59.3381 99.8391 59.3381C100.119 59.3381 100.378 59.2823 100.617 59.1708C100.855 59.0593 101.055 58.8891 101.216 58.6602L101.689 58.9771C101.505 59.2764 101.251 59.5053 100.93 59.6638C100.608 59.8163 100.247 59.8926 99.8481 59.8926Z" fill="#EBEBEB"/>
<path d="M92.2638 59.8926C91.7752 59.8926 91.3462 59.7929 90.9767 59.5933C90.6073 59.3879 90.3183 59.1092 90.1097 58.7571C89.9012 58.3991 89.7969 57.9912 89.7969 57.5335C89.7969 57.0757 89.8952 56.6708 90.0918 56.3187C90.2944 55.9666 90.5685 55.6907 90.9142 55.4912C91.2657 55.2858 91.659 55.1831 92.094 55.1831C92.535 55.1831 92.9253 55.2829 93.2649 55.4824C93.6105 55.6761 93.8817 55.9519 94.0783 56.3099C94.275 56.662 94.3733 57.0699 94.3733 57.5335C94.3733 57.5628 94.3703 57.5951 94.3643 57.6303C94.3643 57.6596 94.3643 57.6919 94.3643 57.7271H90.2795V57.2606H94.0247L93.7744 57.4454C93.7744 57.1109 93.6999 56.8146 93.551 56.5564C93.4079 56.2923 93.2113 56.0869 92.961 55.9402C92.7108 55.7934 92.4218 55.7201 92.094 55.7201C91.7722 55.7201 91.4832 55.7934 91.227 55.9402C90.9708 56.0869 90.7711 56.2923 90.6281 56.5564C90.4851 56.8204 90.4136 57.1227 90.4136 57.463V57.5599C90.4136 57.912 90.4911 58.223 90.646 58.493C90.8069 58.7571 91.0274 58.9654 91.3074 59.118C91.5935 59.2647 91.9182 59.3381 92.2817 59.3381C92.5677 59.3381 92.8329 59.2882 93.0772 59.1884C93.3275 59.0886 93.542 58.9361 93.7208 58.7307L94.0783 59.1356C93.8698 59.3821 93.6076 59.5699 93.2917 59.699C92.9819 59.8281 92.6392 59.8926 92.2638 59.8926Z" fill="#EBEBEB"/>
<path d="M84.7418 59.849V54.2504H82.543V53.687H87.602V54.2504H85.4032V59.849H84.7418Z" fill="#EBEBEB"/>
<path d="M74.1836 59.8486V53.3169H74.8182V59.8486H74.1836Z" fill="#EBEBEB"/>
<path d="M69.6152 59.8486V58.8275L69.5884 58.6602V56.9525C69.5884 56.5593 69.4752 56.2571 69.2488 56.0458C69.0283 55.8345 68.6976 55.7289 68.2566 55.7289C67.9527 55.7289 67.6637 55.7788 67.3896 55.8785C67.1155 55.9783 66.8831 56.1103 66.6924 56.2747L66.4064 55.8081C66.6447 55.6086 66.9308 55.456 67.2645 55.3504C67.5982 55.2389 67.9497 55.1831 68.3192 55.1831C68.927 55.1831 69.3947 55.3328 69.7225 55.6321C70.0562 55.9255 70.223 56.3744 70.223 56.9789V59.8486H69.6152ZM67.9974 59.8926C67.6458 59.8926 67.3389 59.8369 67.0768 59.7254C66.8205 59.608 66.6239 59.4496 66.4868 59.25C66.3498 59.0446 66.2812 58.8099 66.2812 58.5458C66.2812 58.3052 66.3379 58.0881 66.4511 57.8944C66.5703 57.6949 66.7609 57.5364 67.0231 57.419C67.2913 57.2958 67.6488 57.2342 68.0957 57.2342H69.7135V57.7007H68.1136C67.6607 57.7007 67.3449 57.78 67.1661 57.9384C66.9933 58.0969 66.9069 58.2935 66.9069 58.5282C66.9069 58.7923 67.0112 59.0035 67.2198 59.162C67.4283 59.3205 67.7203 59.3997 68.0957 59.3997C68.4533 59.3997 68.7601 59.3205 69.0164 59.162C69.2786 58.9977 69.4692 58.7629 69.5884 58.4578L69.7314 58.8891C69.6122 59.1943 69.4037 59.4378 69.1057 59.6197C68.8138 59.8017 68.4443 59.8926 67.9974 59.8926Z" fill="#EBEBEB"/>
<path d="M62.0415 59.8486V55.2271H62.6761V59.8486H62.0415ZM62.3632 54.206C62.2321 54.206 62.1219 54.162 62.0325 54.0739C61.9431 53.9859 61.8984 53.8803 61.8984 53.757C61.8984 53.6338 61.9431 53.5311 62.0325 53.4489C62.1219 53.3609 62.2321 53.3169 62.3632 53.3169C62.4943 53.3169 62.6046 53.358 62.6939 53.4401C62.7833 53.5223 62.828 53.625 62.828 53.7482C62.828 53.8773 62.7833 53.9859 62.6939 54.0739C62.6105 54.162 62.5003 54.206 62.3632 54.206Z" fill="#EBEBEB"/>
<path d="M56.2891 59.8486V55.2271H56.8969V56.4859L56.8343 56.2659C56.9654 55.9137 57.1859 55.6467 57.4957 55.4648C57.8056 55.277 58.1899 55.1831 58.6488 55.1831V55.7905C58.6249 55.7905 58.6011 55.7905 58.5773 55.7905C58.5534 55.7846 58.5296 55.7817 58.5058 55.7817C58.0112 55.7817 57.6238 55.9313 57.3438 56.2306C57.0637 56.5241 56.9237 56.9437 56.9237 57.4895V59.8486H56.2891Z" fill="#EBEBEB"/>
<path d="M51.9081 59.8932C51.4671 59.8932 51.1275 59.7758 50.8891 59.5411C50.6508 59.3063 50.5316 58.9748 50.5316 58.5464V54.2065H51.1662V58.5111C51.1662 58.7811 51.2348 58.9894 51.3718 59.1361C51.5148 59.2829 51.7174 59.3562 51.9796 59.3562C52.2597 59.3562 52.4921 59.277 52.6768 59.1185L52.9003 59.5675C52.7751 59.679 52.6232 59.7611 52.4444 59.814C52.2716 59.8668 52.0928 59.8932 51.9081 59.8932ZM49.6914 55.747V55.2277H52.5963V55.747H49.6914Z" fill="#EBEBEB"/>
<path d="M45.0847 59.8926C44.6973 59.8926 44.3309 59.8398 43.9853 59.7342C43.6396 59.6227 43.3685 59.4848 43.1719 59.3205L43.4579 58.8275C43.6486 58.9683 43.8929 59.0916 44.1908 59.1972C44.4888 59.297 44.8016 59.3469 45.1294 59.3469C45.5763 59.3469 45.8981 59.2794 46.0947 59.1444C46.2913 59.0035 46.3897 58.8187 46.3897 58.5898C46.3897 58.4196 46.333 58.2876 46.2198 58.1937C46.1126 58.0939 45.9696 58.0206 45.7908 57.9736C45.612 57.9208 45.4124 57.8768 45.1919 57.8416C44.9714 57.8064 44.751 57.7653 44.5305 57.7183C44.316 57.6714 44.1193 57.6039 43.9406 57.5159C43.7618 57.422 43.6158 57.2958 43.5026 57.1373C43.3953 56.9789 43.3417 56.7676 43.3417 56.5035C43.3417 56.2512 43.4132 56.0252 43.5562 55.8257C43.6992 55.6262 43.9078 55.4707 44.1819 55.3592C44.462 55.2418 44.8016 55.1831 45.2009 55.1831C45.5048 55.1831 45.8087 55.2242 46.1126 55.3063C46.4165 55.3826 46.6667 55.4853 46.8634 55.6144L46.5863 56.1162C46.3777 55.9754 46.1543 55.8756 45.9159 55.8169C45.6776 55.7524 45.4392 55.7201 45.2009 55.7201C44.7778 55.7201 44.4649 55.7934 44.2623 55.9402C44.0657 56.081 43.9674 56.2629 43.9674 56.4859C43.9674 56.662 44.021 56.7999 44.1283 56.8997C44.2415 56.9994 44.3875 57.0787 44.5662 57.1373C44.751 57.1902 44.9506 57.2342 45.1651 57.2694C45.3856 57.3046 45.6031 57.3486 45.8176 57.4014C46.0381 57.4484 46.2377 57.5159 46.4165 57.6039C46.6012 57.6861 46.7472 57.8064 46.8544 57.9648C46.9677 58.1174 47.0243 58.3199 47.0243 58.5722C47.0243 58.8422 46.9468 59.0769 46.7919 59.2764C46.6429 59.4701 46.4224 59.6227 46.1304 59.7342C45.8444 59.8398 45.4958 59.8926 45.0847 59.8926Z" fill="#EBEBEB"/>
<path d="M37.5234 59.8926C37.1241 59.8926 36.7755 59.8192 36.4776 59.6725C36.1796 59.5258 35.9472 59.3057 35.7804 59.0123C35.6195 58.7189 35.5391 58.3521 35.5391 57.9119V55.2271H36.1737V57.8415C36.1737 58.3345 36.2958 58.7071 36.5402 58.9595C36.7904 59.2059 37.139 59.3292 37.5859 59.3292C37.9137 59.3292 38.1967 59.2646 38.4351 59.1355C38.6794 59.0005 38.8641 58.8069 38.9892 58.5545C39.1203 58.3022 39.1859 58 39.1859 57.6478V55.2271H39.8205V59.8486H39.2127V58.5809L39.311 58.8098C39.162 59.1502 38.9297 59.4172 38.6138 59.6109C38.304 59.7987 37.9405 59.8926 37.5234 59.8926Z" fill="#EBEBEB"/>
<path d="M29.1582 59.8926C28.7113 59.8926 28.3091 59.7929 27.9516 59.5933C27.6 59.3938 27.3229 59.118 27.1203 58.7659C26.9177 58.4079 26.8164 57.9971 26.8164 57.5335C26.8164 57.064 26.9177 56.6532 27.1203 56.3011C27.3229 55.949 27.6 55.6761 27.9516 55.4824C28.3091 55.2829 28.7113 55.1831 29.1582 55.1831C29.5694 55.1831 29.9359 55.2741 30.2576 55.456C30.5854 55.6379 30.8446 55.9049 31.0353 56.2571C31.2319 56.6033 31.3302 57.0288 31.3302 57.5335C31.3302 58.0323 31.2349 58.4578 31.0442 58.8099C30.8535 59.162 30.5943 59.4319 30.2666 59.6197C29.9448 59.8017 29.5754 59.8926 29.1582 59.8926ZM29.2029 59.3381C29.5366 59.3381 29.8346 59.2647 30.0968 59.118C30.3649 58.9654 30.5735 58.7541 30.7224 58.4842C30.8774 58.2084 30.9548 57.8914 30.9548 57.5335C30.9548 57.1696 30.8774 56.8527 30.7224 56.5828C30.5735 56.3128 30.3649 56.1045 30.0968 55.9578C29.8346 55.8052 29.5366 55.7289 29.2029 55.7289C28.8752 55.7289 28.5802 55.8052 28.318 55.9578C28.0558 56.1045 27.8473 56.3128 27.6924 56.5828C27.5374 56.8527 27.46 57.1696 27.46 57.5335C27.46 57.8914 27.5374 58.2084 27.6924 58.4842C27.8473 58.7541 28.0558 58.9654 28.318 59.118C28.5802 59.2647 28.8752 59.3381 29.2029 59.3381ZM30.9727 59.8486V58.4578L31.0353 57.5247L30.9459 56.5916V53.3169H31.5805V59.8486H30.9727Z" fill="#EBEBEB"/>
<path d="M21.4111 55.1831C21.7925 55.1831 22.1261 55.2565 22.4122 55.4032C22.7042 55.544 22.9306 55.7612 23.0915 56.0546C23.2583 56.348 23.3418 56.7177 23.3418 57.1637V59.8486H22.7071V57.2254C22.7071 56.7383 22.582 56.3715 22.3317 56.125C22.0874 55.8727 21.7418 55.7465 21.2949 55.7465C20.9612 55.7465 20.6692 55.814 20.4189 55.949C20.1746 56.0781 19.9839 56.2688 19.8469 56.5211C19.7158 56.7676 19.6502 57.0669 19.6502 57.419V59.8486H19.0156V55.2271H19.6234V56.4947L19.5251 56.2571C19.6741 55.9225 19.9124 55.6614 20.2402 55.4736C20.5679 55.2799 20.9582 55.1831 21.4111 55.1831Z" fill="#EBEBEB"/>
<path d="M14.2188 59.849V53.687H14.8802V59.849H14.2188Z" fill="#EBEBEB"/>
</svg>
