<svg width="16" height="16" viewBox="0 0 16 16" fill="none" xmlns="http://www.w3.org/2000/svg">
<rect width="16" height="16" rx="4" fill="#111111"/>
<path d="M7.28888 4.28655V3.14815C7.28888 3.06633 7.22194 2.99975 7.14016 3.00232C5.06053 3.06762 4 4.49758 4 5.52042V10.5225C4 11.6148 5.46806 12.9267 7.14073 13.0008C7.22247 13.0045 7.28888 12.9378 7.28888 12.856V11.7563C7.28888 11.6745 7.22239 11.6088 7.14096 11.6009C6.39335 11.5277 5.68905 10.9227 5.68889 10.5225C5.68871 10.0959 5.68889 5.94695 5.68889 5.52042C5.68889 5.11682 6.28579 4.50491 7.14072 4.44028C7.22231 4.43411 7.28888 4.36837 7.28888 4.28655Z" fill="#0047FF"/>
<path d="M8.71112 11.7174L8.71112 12.8558C8.71112 12.9376 8.77806 13.0042 8.85984 13.0016C10.9395 12.9363 12 11.5063 12 10.4835L12 5.48143C12 4.38907 10.5319 3.07718 8.85927 3.00307C8.77753 2.99945 8.71112 3.06611 8.71112 3.14793L8.71112 4.24756C8.71112 4.32938 8.77761 4.39506 8.85904 4.40303C9.60665 4.4762 10.311 5.08122 10.3111 5.48143C10.3113 5.90796 10.3111 10.057 10.3111 10.4835C10.3111 10.8871 9.71421 11.499 8.85928 11.5636C8.77769 11.5698 8.71112 11.6355 8.71112 11.7174Z" fill="#E50E8A"/>
</svg>
