<svg version="1.2" xmlns="http://www.w3.org/2000/svg" viewBox="0 0 220 220" width="220" height="220"><defs><linearGradient id="P" gradientUnits="userSpaceOnUse"/><linearGradient id="g1" x2="1" href="#P" gradientTransform="matrix(-220,220,-220,-220,220,0)"><stop stop-color="#ff0093" stop-opacity=".5"/><stop offset=".42" stop-color="#c80073" stop-opacity=".3"/><stop offset="1" stop-color="#48002a" stop-opacity=".2"/></linearGradient><linearGradient id="g2" x2="1" href="#P" gradientTransform="matrix(220,-262.5,262.5,220,-1,262.5)"><stop stop-color="#f5008d" stop-opacity=".5"/><stop offset="1" stop-color="#5b0034" stop-opacity=".2"/></linearGradient></defs><style>.a{opacity:.6;fill:url(#g1)}.b{fill:none;stroke:url(#g2)}</style><g style="opacity:.6"><path class="a" d="m220 40c0-22.1-17.9-40-40-40h-140c-22.1 0-40 17.9-40 40v140c0 22.1 17.9 40 40 40h140c22.1 0 40-17.9 40-40z"/><path class="b" d="m219.5 40c0-21.8-17.7-39.5-39.5-39.5h-140c-21.8 0-39.5 17.7-39.5 39.5v140c0 21.8 17.7 39.5 39.5 39.5h140c21.8 0 39.5-17.7 39.5-39.5z"/></g></svg>