<svg width="137" height="37" viewBox="0 0 137 37" fill="none" xmlns="http://www.w3.org/2000/svg">
<mask id="mask0_1_5748" style="mask-type:alpha" maskUnits="userSpaceOnUse" x="0" y="0" width="137" height="37">
<path d="M10.8326 4.62452V0.544C10.8326 0.243557 10.5878 -0.00125276 10.2876 0.0113964C3.80542 0.284551 0.5 5.40971 0.5 9.07984V27.0998C0.5 31.0155 5.06641 35.7142 10.2888 36.0238C10.5887 36.0416 10.8326 35.7964 10.8326 35.496V31.5551C10.8326 31.2547 10.5881 31.0141 10.2902 30.9753C7.97056 30.6731 5.80645 28.5257 5.80595 27.0998C5.80541 25.5632 5.80595 10.6164 5.80595 9.07984C5.80595 7.63993 7.64515 5.46401 10.2895 5.19592C10.5884 5.16561 10.8326 4.92496 10.8326 4.62452Z" fill="white"/>
<path d="M15.3004 31.415L15.3004 35.4955C15.3004 35.796 15.5453 36.0408 15.8454 36.0282C22.3276 35.755 25.6331 30.6298 25.6331 26.9597L25.6331 8.93973C25.6331 5.02409 21.0666 0.325393 15.8443 0.0157386C15.5443 -0.00204175 15.3004 0.243133 15.3004 0.543574L15.3004 4.48441C15.3004 4.78486 15.545 5.02541 15.8429 5.06423C18.1625 5.3664 20.3266 7.5139 20.3271 8.93973C20.3277 10.4763 20.3271 25.4231 20.3271 26.9597C20.3271 28.3996 18.4879 30.5755 15.8436 30.8436C15.5447 30.8739 15.3004 31.1146 15.3004 31.415Z" fill="white"/>
<path d="M48.3586 0H44.4454C44.0273 0 43.7655 0.451938 43.9734 0.814602L64.0149 35.7666C64.1118 35.9357 64.2918 36.04 64.4868 36.04H68.5354C68.9541 36.04 69.2159 35.5867 69.0065 35.224L48.8297 0.272027C48.7325 0.103698 48.5529 0 48.3586 0Z" fill="white"/>
<path d="M51.6608 23.1752L53.6843 26.6912C53.78 26.8575 53.781 27.0619 53.687 27.2291L48.9679 35.6222C48.8716 35.7935 48.6903 35.8995 48.4937 35.8995H44.4396C44.0228 35.8995 43.7608 35.45 43.9663 35.0873L50.716 23.1783C50.9236 22.812 51.4507 22.8102 51.6608 23.1752Z" fill="white"/>
<path d="M64.4815 0H68.4092C68.825 0 69.0871 0.447531 68.8836 0.810156L62.1218 12.8636C61.9164 13.2298 61.3912 13.2351 61.1784 12.8732L59.0288 9.21715C58.9283 9.04627 58.9287 8.83425 59.0299 8.66377L64.0137 0.266354C64.1117 0.101229 64.2895 0 64.4815 0Z" fill="white"/>
<rect x="87.0708" width="5.58521" height="36.04" rx="0.544" fill="white"/>
<rect x="120.582" y="10.0576" width="5.58521" height="25.9823" rx="0.544" fill="white"/>
<rect x="110.529" width="25.9712" height="5.58759" rx="0.544" fill="white"/>
</mask>
<g mask="url(#mask0_1_5748)">
<g filter="url(#filter0_f_1_5748)">
<path d="M-21.0659 -15.0485C-34.3174 -3.9872 -19.9522 3.92327 -28.4275 16.0468C-35.8919 26.7242 -56.2891 30.8413 -57.2707 41.3543C-58.7428 57.121 -23.6776 57.9962 1.51624 49.6146C29.4292 40.3284 46.0563 18.2381 34.8771 4.3695C28.9115 -3.03117 6.30437 2.55039 6.14727 -6.60243C5.97058 -16.8962 38.6174 -17.8884 41.8703 -28.6095C46.4995 -43.8663 -4.504 -28.8731 -21.0659 -15.0485Z" fill="#E50E8A"/>
<path d="M55.0492 -6.95223C44.3934 -14.9442 23.7284 -5.69369 8.73995 -10.6562C-4.4606 -15.0268 0.0345545 -27.7089 -16.4469 -28.015C-41.1644 -28.4741 -61.7664 -6.43754 -61.9826 9.12973C-62.2221 26.3771 -35.5595 36.1627 -6.99262 28.7364C8.2515 24.7735 11.5851 10.7474 26.4876 10.3788C43.2478 9.96437 26.9919 30.4279 42.5674 32.1536C64.7324 34.6095 68.3668 3.03617 55.0492 -6.95223Z" fill="#0047FF"/>
<path d="M77.9737 -62.4784C58.7192 -61.5463 50.7075 -47.4617 31.0649 -43.036C13.7653 -39.1381 2.86375 -47.4947 -12.6317 -40.073C-35.8704 -28.9427 -28.6722 -8.54449 -10.4229 -0.72302C9.79616 7.9426 45.8731 0.544853 63.3016 -16.2659C72.602 -25.2366 59.0413 -33.7261 72.2875 -40.7568C87.1849 -48.664 96.5094 -31.0433 112.855 -37.3444C136.117 -46.3113 102.038 -63.6433 77.9737 -62.4784Z" fill="#FF8300"/>
<path d="M121.865 -42.9029C111.209 -50.8948 90.5443 -41.6444 75.5559 -46.6069C62.3553 -50.9774 66.8505 -63.6596 50.369 -63.9657C25.6515 -64.4248 5.04949 -42.3882 4.83335 -26.821C4.59386 -9.57353 31.2564 0.212045 59.8233 -7.21428C75.0674 -11.1772 78.401 -25.2033 93.3035 -25.5718C110.064 -25.9863 93.8079 -5.52283 109.383 -3.79708C131.548 -1.3412 135.183 -32.9145 121.865 -42.9029Z" fill="#8C00FF"/>
<path d="M88.1481 43.2691C101.632 32.2944 87.5497 24.1974 96.3091 12.1057C104.024 1.45633 124.431 -2.46739 125.691 -13.0192C127.579 -28.8439 92.7099 -30.0887 67.4146 -21.9305C39.3893 -12.8919 22.2502 9.12804 33.0019 23.1777C38.7392 30.675 61.3852 25.303 61.2956 34.5001C61.1948 44.8437 28.6818 45.5003 25.1567 56.2374C20.1403 71.5171 71.2961 56.9855 88.1481 43.2691Z" fill="#FF000A"/>
<path d="M20.8636 58.4995C40.3942 56.5775 46.6577 42.458 66.1094 37.118C83.2408 32.415 95.5072 39.9665 110.317 31.9318C132.528 19.8821 122.405 0.425032 102.71 -6.21856C80.8888 -13.5792 45.0632 -4.48215 29.5566 12.7852C21.2818 21.9995 36.2812 29.54 23.7141 37.0759C9.58049 45.5513 -2.33606 28.9074 -18.1669 35.8972C-40.6954 45.8443 -3.54595 60.9017 20.8636 58.4995Z" fill="#9BFF00"/>
<path d="M144.853 20.0943C158.986 9.38462 145.74 0.762025 155.305 -11.2206C163.729 -21.7738 184.137 -25.1349 186.195 -35.7831C189.28 -51.7524 155.025 -54.0595 129.474 -46.5568C101.165 -38.2443 82.5763 -16.4587 92.0809 -1.90767C97.1528 5.85717 119.878 1.09651 119.078 10.4079C118.178 20.88 86.0973 20.5692 81.7935 31.337C75.669 46.6605 127.19 33.4793 144.853 20.0943Z" fill="#00B3FF"/>
</g>
</g>
<defs>
<filter id="filter0_f_1_5748" x="-72.8641" y="-74.8527" width="270.133" height="148.5" filterUnits="userSpaceOnUse" color-interpolation-filters="sRGB">
<feFlood flood-opacity="0" result="BackgroundImageFix"/>
<feBlend mode="normal" in="SourceGraphic" in2="BackgroundImageFix" result="shape"/>
<feGaussianBlur stdDeviation="5.44" result="effect1_foregroundBlur_1_5748"/>
</filter>
</defs>
</svg>
