<svg version="1.2" xmlns="http://www.w3.org/2000/svg" viewBox="0 0 93 93" width="93" height="93"><defs><filter x="-50%" y="-50%" width="200%" height="200%" id="f1"> <feGaussianBlur stdDeviation=".2"/> </filter><linearGradient id="P" gradientUnits="userSpaceOnUse"/><linearGradient id="g1" x2="1" href="#P" gradientTransform="matrix(93,93,-93,93,0,0)"><stop stop-color="#ff0093" stop-opacity=".5"/><stop offset=".42" stop-color="#c80073" stop-opacity=".3"/><stop offset="1" stop-color="#48002a" stop-opacity=".2"/></linearGradient><linearGradient id="g2" x2="1" href="#P" gradientTransform="matrix(-93,-110.966,110.966,-93,93,110.966)"><stop stop-color="#f5008d" stop-opacity=".5"/><stop offset="1" stop-color="#5b0034" stop-opacity=".2"/></linearGradient></defs><style>.a{filter:url(#f1);fill:#ebebeb}.b{opacity:.6;fill:url(#g1)}.c{fill:none;stroke:url(#g2)}</style><path fill-rule="evenodd" class="a" d="m20.6 64v-35.3h10.7l3 21.5 2.9-21.5h10.8v35.3h-6.4v-25.4l-4.1 25.4h-6.3l-4.3-25.4v25.4zm34.7 0v-35.3h10.9q2.7 0 4 1.3 1.4 1.2 1.9 3.4 0.5 2.2 0.5 5.2 0 2.9-0.8 4.6-0.7 1.8-2.7 2.4 1.6 0.4 2.3 1.7 0.7 1.3 0.7 3.4v13.3h-7v-13.8q0-1.5-0.6-1.9-0.6-0.4-2-0.4v16.1zm7.1-22.2h1.7q1.5 0 1.5-3.2 0-2-0.3-2.7-0.3-0.6-1.2-0.6h-1.7z"/><g style="opacity:.6"><path class="b" d="m0 16c0-8.8 7.2-16 16-16h61c8.8 0 16 7.2 16 16v61c0 8.8-7.2 16-16 16h-61c-8.8 0-16-7.2-16-16z"/><path class="c" d="m0.5 16c0-8.6 6.9-15.5 15.5-15.5h61c8.6 0 15.5 6.9 15.5 15.5v61c0 8.6-6.9 15.5-15.5 15.5h-61c-8.6 0-15.5-6.9-15.5-15.5z"/></g></svg>