<svg version="1.2" xmlns="http://www.w3.org/2000/svg" viewBox="0 0 93 93" width="93" height="93"><defs><filter x="-50%" y="-50%" width="200%" height="200%" id="f1"> <feGaussianBlur stdDeviation=".2"/> </filter><linearGradient id="P" gradientUnits="userSpaceOnUse"/><linearGradient id="g1" x2="1" href="#P" gradientTransform="matrix(93,93,-93,93,0,0)"><stop stop-color="#f5d754"/><stop offset=".37" stop-color="#ce8606"/><stop offset="1" stop-color="#253c00"/></linearGradient><linearGradient id="g2" x2="1" href="#P" gradientTransform="matrix(-93,-93,93,-93,93,93)"><stop stop-color="#f5d754"/><stop offset=".37" stop-color="#ce8606"/><stop offset="1" stop-color="#253c00"/></linearGradient></defs><style>.a{filter:url(#f1);fill:#ebebeb}.b{opacity:.6;fill:url(#g1)}.c{fill:none;stroke:url(#g2)}</style><path fill-rule="evenodd" class="a" d="m13.6 64v-35.3h10.8q2.7 0 4.1 1.3 1.3 1.2 1.8 3.4 0.5 2.2 0.5 5.2 0 2.9-0.8 4.6-0.7 1.8-2.7 2.4 1.7 0.4 2.3 1.7 0.7 1.3 0.7 3.4v13.3h-6.9v-13.8q0-1.5-0.7-1.9-0.6-0.4-2-0.4v16.1zm7.2-22.2h1.7q1.4 0 1.4-3.2 0-2-0.3-2.7-0.3-0.6-1.2-0.6h-1.6zm22.6 22.6q-3.3 0-5.2-2.6-1.8-2.5-1.8-7 0-3.1 0.5-5.2 0.6-2.2 1.6-3.6 1.1-1.4 2.4-2.4l-0.2-0.4q-0.8-2.1-1.5-4-0.6-1.9-0.6-3.9 0-2 0.9-3.6 0.8-1.5 2.4-2.4 1.5-0.9 3.5-0.9 2 0 3.6 0.9 1.6 0.8 2.5 2.5 1 1.7 1 4.3 0 2.8-1.1 4.7-1 1.9-3.1 3.7l1.9 4.9q1.2-3 3.4-4.7l2.8 4.4q-2.3 1.8-3.9 6l3.5 8.9h-6.8l-0.7-1.9q-0.8 0.9-2.1 1.6-1.3 0.7-3 0.7zm1.5-29.7q0 0.5 0.3 1.6 0.2 1 1.2 3.4 0.4-0.4 0.7-1.2 0.3-0.9 0.3-2.4 0-1.5-0.4-2.2-0.4-0.6-1-0.6-0.5 0-0.8 0.5-0.3 0.4-0.3 0.9zm-2.4 21q0 3.6 2 3.6 0.9 0 1.4-0.6 0.5-0.7 0.6-1.3l-3.3-8.2q-0.7 1.4-0.7 4.9zm19.2 8.3l3.4-35.3h12l3.3 35.3h-6.6l-0.5-5.7h-4.3l-0.4 5.7zm7.8-11.3h3.2l-1.6-18h-0.3z"/><g style="opacity:.6"><path class="b" d="m0 16c0-8.8 7.2-16 16-16h61c8.8 0 16 7.2 16 16v61c0 8.8-7.2 16-16 16h-61c-8.8 0-16-7.2-16-16z"/><path class="c" d="m0.5 16c0-8.6 6.9-15.5 15.5-15.5h61c8.6 0 15.5 6.9 15.5 15.5v61c0 8.6-6.9 15.5-15.5 15.5h-61c-8.6 0-15.5-6.9-15.5-15.5z"/></g></svg>