<svg width="93" height="93" viewBox="0 0 93 93" fill="none" xmlns="http://www.w3.org/2000/svg">
<g filter="url(#filter0_f_255_20300)">
<path d="M20.5623 64V28.749H31.2978L34.2621 50.2401L37.2063 28.749H48.042V64H41.5927V38.6033L37.5468 64H31.2177L26.9315 38.6033V64H20.5623ZM55.2684 64V28.749H66.0841C67.8867 28.749 69.2486 29.163 70.17 29.9908C71.0913 30.8053 71.7055 31.9537 72.0126 33.4358C72.3331 34.9046 72.4933 36.6338 72.4933 38.6233C72.4933 40.5461 72.2463 42.0816 71.7523 43.23C71.2716 44.3783 70.3569 45.1728 69.0083 45.6134C70.1166 45.8404 70.891 46.3945 71.3317 47.2758C71.7856 48.1437 72.0126 49.272 72.0126 50.6607V64H65.0626V50.2001C65.0626 49.1719 64.8489 48.5376 64.4217 48.2973C64.0077 48.0436 63.3334 47.9167 62.3987 47.9167V64H55.2684ZM62.4388 41.8079H64.1413C65.116 41.8079 65.6034 40.7464 65.6034 38.6233C65.6034 37.248 65.4966 36.3467 65.2829 35.9194C65.0693 35.4921 64.6687 35.2785 64.0812 35.2785H62.4388V41.8079Z" fill="#EBEBEB"/>
</g>
<g opacity="0.6" filter="url(#filter1_bi_255_20300)">
<rect width="93" height="93" rx="16" fill="url(#paint0_linear_255_20300)" fill-opacity="0.6"/>
<rect x="0.5" y="0.5" width="92" height="92" rx="15.5" stroke="url(#paint1_linear_255_20300)" stroke-opacity="0.6"/>
</g>
<defs>
<filter id="filter0_f_255_20300" x="20.1352" y="28.3217" width="52.7843" height="36.1055" filterUnits="userSpaceOnUse" color-interpolation-filters="sRGB">
<feFlood flood-opacity="0" result="BackgroundImageFix"/>
<feBlend mode="normal" in="SourceGraphic" in2="BackgroundImageFix" result="shape"/>
<feGaussianBlur stdDeviation="0.213642" result="effect1_foregroundBlur_255_20300"/>
</filter>
<filter id="filter1_bi_255_20300" x="-8.54569" y="-8.54569" width="110.091" height="110.091" filterUnits="userSpaceOnUse" color-interpolation-filters="sRGB">
<feFlood flood-opacity="0" result="BackgroundImageFix"/>
<feGaussianBlur in="BackgroundImageFix" stdDeviation="4.27284"/>
<feComposite in2="SourceAlpha" operator="in" result="effect1_backgroundBlur_255_20300"/>
<feBlend mode="normal" in="SourceGraphic" in2="effect1_backgroundBlur_255_20300" result="shape"/>
<feColorMatrix in="SourceAlpha" type="matrix" values="0 0 0 0 0 0 0 0 0 0 0 0 0 0 0 0 0 0 127 0" result="hardAlpha"/>
<feOffset dx="2" dy="2"/>
<feGaussianBlur stdDeviation="5"/>
<feComposite in2="hardAlpha" operator="arithmetic" k2="-1" k3="1"/>
<feColorMatrix type="matrix" values="0 0 0 0 0.921569 0 0 0 0 0.921569 0 0 0 0 0.921569 0 0 0 0.25 0"/>
<feBlend mode="normal" in2="shape" result="effect2_innerShadow_255_20300"/>
</filter>
<linearGradient id="paint0_linear_255_20300" x1="0" y1="0" x2="93" y2="93" gradientUnits="userSpaceOnUse">
<stop stop-color="#FF0093" stop-opacity="0.5"/>
<stop offset="0.416667" stop-color="#C80073" stop-opacity="0.3"/>
<stop offset="1" stop-color="#48002A" stop-opacity="0.2"/>
</linearGradient>
<linearGradient id="paint1_linear_255_20300" x1="93" y1="110.966" x2="0" y2="0" gradientUnits="userSpaceOnUse">
<stop stop-color="#F5008D" stop-opacity="0.5"/>
<stop offset="1" stop-color="#5B0034" stop-opacity="0.2"/>
</linearGradient>
</defs>
</svg>
