<svg width="93" height="93" viewBox="0 0 93 93" fill="none" xmlns="http://www.w3.org/2000/svg">
<g filter="url(#filter0_f_255_20303)">
<path d="M29.7557 64L25.4558 29.1052H32.0939L34.6501 52.844L36.9288 29.1052H43.567L39.267 64H29.7557ZM49.6661 64V29.125H60.3664C62.1498 29.125 63.4972 29.5345 64.4087 30.3536C65.3203 31.1594 65.9279 32.2955 66.2318 33.7618C66.5488 35.2149 66.7073 36.9256 66.7073 38.894C66.7073 40.7962 66.4629 42.3154 65.9742 43.4515C65.4986 44.5876 64.5937 45.3736 63.2595 45.8095C64.3559 46.0341 65.1221 46.5823 65.558 47.4542C66.0072 48.3129 66.2318 49.4291 66.2318 50.803V64H59.3558V50.3472C59.3558 49.33 59.1445 48.7026 58.7217 48.4648C58.3122 48.2138 57.6451 48.0883 56.7204 48.0883V64H49.6661ZM56.76 42.0446H58.4443C59.4087 42.0446 59.8909 40.9944 59.8909 38.894C59.8909 37.5333 59.7852 36.6416 59.5738 36.2189C59.3624 35.7962 58.9661 35.5848 58.3849 35.5848H56.76V42.0446Z" fill="#EBEBEB"/>
</g>
<g opacity="0.6" filter="url(#filter1_bi_255_20303)">
<rect width="93" height="93" rx="16" fill="url(#paint0_linear_255_20303)" fill-opacity="0.6"/>
<rect x="0.5" y="0.5" width="92" height="92" rx="15.5" stroke="url(#paint1_linear_255_20303)" stroke-opacity="0.6"/>
</g>
<defs>
<filter id="filter0_f_255_20303" x="25.0304" y="28.6827" width="42.1033" height="35.74" filterUnits="userSpaceOnUse" color-interpolation-filters="sRGB">
<feFlood flood-opacity="0" result="BackgroundImageFix"/>
<feBlend mode="normal" in="SourceGraphic" in2="BackgroundImageFix" result="shape"/>
<feGaussianBlur stdDeviation="0.211364" result="effect1_foregroundBlur_255_20303"/>
</filter>
<filter id="filter1_bi_255_20303" x="-8.55" y="-8.55" width="110.1" height="110.1" filterUnits="userSpaceOnUse" color-interpolation-filters="sRGB">
<feFlood flood-opacity="0" result="BackgroundImageFix"/>
<feGaussianBlur in="BackgroundImageFix" stdDeviation="4.275"/>
<feComposite in2="SourceAlpha" operator="in" result="effect1_backgroundBlur_255_20303"/>
<feBlend mode="normal" in="SourceGraphic" in2="effect1_backgroundBlur_255_20303" result="shape"/>
<feColorMatrix in="SourceAlpha" type="matrix" values="0 0 0 0 0 0 0 0 0 0 0 0 0 0 0 0 0 0 127 0" result="hardAlpha"/>
<feOffset dx="2" dy="2"/>
<feGaussianBlur stdDeviation="5"/>
<feComposite in2="hardAlpha" operator="arithmetic" k2="-1" k3="1"/>
<feColorMatrix type="matrix" values="0 0 0 0 0.921569 0 0 0 0 0.921569 0 0 0 0 0.921569 0 0 0 0.25 0"/>
<feBlend mode="normal" in2="shape" result="effect2_innerShadow_255_20303"/>
</filter>
<linearGradient id="paint0_linear_255_20303" x1="0" y1="0" x2="93" y2="93" gradientUnits="userSpaceOnUse">
<stop stop-color="#0047FF" stop-opacity="0.5"/>
<stop offset="0.569444" stop-color="#0039CD" stop-opacity="0.3"/>
<stop offset="1" stop-color="#001753" stop-opacity="0.2"/>
</linearGradient>
<linearGradient id="paint1_linear_255_20303" x1="93" y1="110.966" x2="0" y2="0" gradientUnits="userSpaceOnUse">
<stop stop-color="#5E8AFF" stop-opacity="0.6"/>
<stop offset="1" stop-color="#002072" stop-opacity="0.6"/>
</linearGradient>
</defs>
</svg>
