<svg version="1.2" xmlns="http://www.w3.org/2000/svg" viewBox="0 0 93 93" width="93" height="93"><defs><filter x="-50%" y="-50%" width="200%" height="200%" id="f1"> <feGaussianBlur stdDeviation=".2"/> </filter><linearGradient id="P" gradientUnits="userSpaceOnUse"/><linearGradient id="g1" x2="1" href="#P" gradientTransform="matrix(93,93,-93,93,0,0)"><stop stop-color="#0047ff" stop-opacity=".5"/><stop offset=".57" stop-color="#0039cd" stop-opacity=".3"/><stop offset="1" stop-color="#001753" stop-opacity=".2"/></linearGradient><linearGradient id="g2" x2="1" href="#P" gradientTransform="matrix(-93,-110.966,110.966,-93,93,110.966)"><stop stop-color="#5e8aff" stop-opacity=".6"/><stop offset="1" stop-color="#002072" stop-opacity=".6"/></linearGradient></defs><style>.a{filter:url(#f1);fill:#ebebeb}.b{opacity:.6;fill:url(#g1)}.c{fill:none;stroke:url(#g2)}</style><path fill-rule="evenodd" class="a" d="m29.8 64l-4.3-34.9h6.6l2.6 23.7 2.2-23.7h6.7l-4.3 34.9zm19.9 0v-34.9h10.7q2.7 0 4 1.3 1.4 1.2 1.8 3.4 0.5 2.1 0.5 5.1 0 2.8-0.7 4.6-0.7 1.7-2.7 2.3 1.6 0.3 2.3 1.7 0.6 1.2 0.6 3.3v13.2h-6.8v-13.7q0-1.5-0.7-1.8-0.6-0.4-2-0.4v15.9zm7.1-22h1.7q1.5 0 1.5-3.1 0-2-0.4-2.7-0.3-0.6-1.1-0.6h-1.7z"/><g style="opacity:.6"><path class="b" d="m0 16c0-8.8 7.2-16 16-16h61c8.8 0 16 7.2 16 16v61c0 8.8-7.2 16-16 16h-61c-8.8 0-16-7.2-16-16z"/><path class="c" d="m0.5 16c0-8.6 6.9-15.5 15.5-15.5h61c8.6 0 15.5 6.9 15.5 15.5v61c0 8.6-6.9 15.5-15.5 15.5h-61c-8.6 0-15.5-6.9-15.5-15.5z"/></g></svg>