<svg width="93" height="93" viewBox="0 0 93 93" fill="none" xmlns="http://www.w3.org/2000/svg">
<g filter="url(#filter0_f_255_20306)">
<path d="M13.5622 64V28.75H24.3776C26.1801 28.75 27.542 29.1639 28.4634 29.9918C29.3847 30.8063 29.9989 31.9545 30.306 33.4366C30.6264 34.9054 30.7866 36.6345 30.7866 38.624C30.7866 40.5467 30.5396 42.0822 30.0456 43.2305C29.5649 44.3788 28.6503 45.1733 27.3017 45.6139C28.4099 45.8409 29.1844 46.395 29.625 47.2763C30.079 48.1442 30.306 49.2724 30.306 50.6611V64H23.3561V50.2004C23.3561 49.1723 23.1425 48.5381 22.7152 48.2977C22.3013 48.044 21.627 47.9172 20.6923 47.9172V64H13.5622ZM20.7324 41.8085H22.4348C23.4095 41.8085 23.8969 40.747 23.8969 38.624C23.8969 37.2487 23.7901 36.3474 23.5764 35.9202C23.3628 35.4929 22.9622 35.2793 22.3747 35.2793H20.7324V41.8085ZM43.3805 64.4206C41.1907 64.4206 39.4683 63.5727 38.2132 61.877C36.9714 60.1813 36.3505 57.8446 36.3505 54.867C36.3505 52.744 36.5375 50.9815 36.9113 49.5795C37.2986 48.1776 37.8326 47.0092 38.5136 46.0746C39.1946 45.1399 39.9757 44.3254 40.8569 43.6311L40.6967 43.2305C40.1359 41.8419 39.6419 40.52 39.2146 39.2649C38.8007 37.9964 38.5937 36.6946 38.5937 35.3594C38.5937 34.0108 38.8808 32.8158 39.4549 31.7743C40.0291 30.7328 40.8236 29.9183 41.8383 29.3308C42.8664 28.73 44.0414 28.4295 45.3633 28.4295C46.6718 28.4295 47.8602 28.7166 48.9284 29.2908C50.0099 29.8516 50.8711 30.6994 51.512 31.8344C52.153 32.9693 52.4734 34.4047 52.4734 36.1405C52.4734 38.0232 52.1196 39.5987 51.4119 40.8672C50.7176 42.1357 49.6694 43.3574 48.2674 44.5324L50.1902 49.3793C50.978 47.3898 52.1129 45.8476 53.595 44.7527L56.3789 49.0989C54.8301 50.3406 53.5349 52.3635 52.4934 55.1675L56.0184 64H49.2088L48.4277 62.0973C47.9069 62.7382 47.2059 63.2857 46.3247 63.7396C45.4568 64.1936 44.4754 64.4206 43.3805 64.4206ZM44.8826 34.7385C44.8826 35.0857 44.9694 35.5997 45.143 36.2807C45.3166 36.9483 45.7238 38.1099 46.3647 39.7656C46.6184 39.4986 46.8454 39.078 47.0457 38.5038C47.246 37.9297 47.3461 37.1419 47.3461 36.1405C47.3461 35.1124 47.2193 34.3913 46.9656 33.9774C46.7253 33.5635 46.4048 33.3565 46.0042 33.3565C45.617 33.3565 45.3299 33.5034 45.143 33.7972C44.9694 34.0776 44.8826 34.3913 44.8826 34.7385ZM42.4792 55.7283C42.4792 58.105 43.1535 59.2933 44.5021 59.2933C45.0495 59.2933 45.4902 59.093 45.824 58.6925C46.1578 58.2786 46.3848 57.8513 46.5049 57.4107L43.1402 49.219C42.6995 50.1537 42.4792 51.7893 42.4792 54.126V55.7283ZM61.7025 64L65.1073 28.75H77.0643L80.409 64H73.7396L73.2389 58.3119H68.9928L68.5522 64H61.7025ZM69.4935 52.6839H72.6981L71.1559 34.7585H70.8355L69.4935 52.6839Z" fill="#EBEBEB"/>
</g>
<g opacity="0.6" filter="url(#filter1_bi_255_20306)">
<rect width="93" height="93" rx="16" fill="url(#paint0_linear_255_20306)" fill-opacity="0.6"/>
<rect x="0.5" y="0.5" width="92" height="92" rx="15.5" stroke="url(#paint1_linear_255_20306)" stroke-opacity="0.6"/>
</g>
<defs>
<filter id="filter0_f_255_20306" x="13.1352" y="28.0024" width="67.6983" height="36.8458" filterUnits="userSpaceOnUse" color-interpolation-filters="sRGB">
<feFlood flood-opacity="0" result="BackgroundImageFix"/>
<feBlend mode="normal" in="SourceGraphic" in2="BackgroundImageFix" result="shape"/>
<feGaussianBlur stdDeviation="0.213636" result="effect1_foregroundBlur_255_20306"/>
</filter>
<filter id="filter1_bi_255_20306" x="-8.54545" y="-8.54545" width="110.091" height="110.091" filterUnits="userSpaceOnUse" color-interpolation-filters="sRGB">
<feFlood flood-opacity="0" result="BackgroundImageFix"/>
<feGaussianBlur in="BackgroundImageFix" stdDeviation="4.27273"/>
<feComposite in2="SourceAlpha" operator="in" result="effect1_backgroundBlur_255_20306"/>
<feBlend mode="normal" in="SourceGraphic" in2="effect1_backgroundBlur_255_20306" result="shape"/>
<feColorMatrix in="SourceAlpha" type="matrix" values="0 0 0 0 0 0 0 0 0 0 0 0 0 0 0 0 0 0 127 0" result="hardAlpha"/>
<feOffset dx="2" dy="2"/>
<feGaussianBlur stdDeviation="5"/>
<feComposite in2="hardAlpha" operator="arithmetic" k2="-1" k3="1"/>
<feColorMatrix type="matrix" values="0 0 0 0 0.921569 0 0 0 0 0.921569 0 0 0 0 0.921569 0 0 0 0.25 0"/>
<feBlend mode="normal" in2="shape" result="effect2_innerShadow_255_20306"/>
</filter>
<linearGradient id="paint0_linear_255_20306" x1="0" y1="0" x2="93" y2="93" gradientUnits="userSpaceOnUse">
<stop stop-color="#F5D754"/>
<stop offset="0.371527" stop-color="#CE8606"/>
<stop offset="1" stop-color="#253C00"/>
</linearGradient>
<linearGradient id="paint1_linear_255_20306" x1="93" y1="93" x2="0" y2="0" gradientUnits="userSpaceOnUse">
<stop stop-color="#F5D754"/>
<stop offset="0.371527" stop-color="#CE8606"/>
<stop offset="1" stop-color="#253C00"/>
</linearGradient>
</defs>
</svg>
