<svg version="1.2" xmlns="http://www.w3.org/2000/svg" viewBox="0 0 93 93" width="93" height="93"><defs><filter x="-50%" y="-50%" width="200%" height="200%" id="f1"> <feGaussianBlur stdDeviation=".2"/> </filter><linearGradient id="P" gradientUnits="userSpaceOnUse"/><linearGradient id="g1" x2="1" href="#P" gradientTransform="matrix(93,93,-93,93,0,0)"><stop stop-color="#00b3ff" stop-opacity=".5"/><stop offset=".47" stop-color="#0082b8" stop-opacity=".3"/><stop offset="1" stop-color="#002f43" stop-opacity=".2"/></linearGradient><linearGradient id="g2" x2="1" href="#P" gradientTransform="matrix(-93,-93,93,-93,93,93)"><stop stop-color="#00b3ff" stop-opacity=".5"/><stop offset="1" stop-color="#002f43" stop-opacity=".2"/></linearGradient></defs><style>.a{filter:url(#f1);fill:#ebebeb}.b{opacity:.6;fill:url(#g1)}.c{fill:none;stroke:url(#g2)}</style><path fill-rule="evenodd" class="a" d="m30.6 64l3.4-34.9h11.8l3.3 34.9h-6.6l-0.5-5.6h-4.2l-0.4 5.6zm7.7-11.2h3.1l-1.5-17.7h-0.3zm16.7 11.2v-34.9h6.7v34.9z"/><g style="opacity:.6"><path class="b" d="m0 16c0-8.8 7.2-16 16-16h61c8.8 0 16 7.2 16 16v61c0 8.8-7.2 16-16 16h-61c-8.8 0-16-7.2-16-16z"/><path class="c" d="m0.5 16c0-8.6 6.9-15.5 15.5-15.5h61c8.6 0 15.5 6.9 15.5 15.5v61c0 8.6-6.9 15.5-15.5 15.5h-61c-8.6 0-15.5-6.9-15.5-15.5z"/></g></svg>