<svg version="1.2" xmlns="http://www.w3.org/2000/svg" viewBox="0 0 220 220" width="220" height="220"><defs><filter x="-50%" y="-50%" width="200%" height="200%" id="f1"> <feGaussianBlur stdDeviation="20"/> </filter><filter x="-50%" y="-50%" width="200%" height="200%" id="f2"> <feGaussianBlur stdDeviation="7.5"/> </filter><linearGradient id="P" gradientUnits="userSpaceOnUse"/><linearGradient id="g1" x2="1" href="#P" gradientTransform="matrix(-10.823,60.049,-181.986,-32.801,196,163)"><stop stop-color="#ff0093" stop-opacity=".5"/><stop offset=".42" stop-color="#c80073" stop-opacity=".3"/><stop offset="1" stop-color="#48002a" stop-opacity=".2"/></linearGradient><linearGradient id="g2" x2="1" href="#P" gradientTransform="matrix(9.3,-61.565,204.265,30.856,23,199.989)"><stop stop-color="#f5008d" stop-opacity=".5"/><stop offset="1" stop-color="#5b0034" stop-opacity=".2"/></linearGradient><filter x="-50%" y="-50%" width="200%" height="200%" id="f3"> <feGaussianBlur stdDeviation=".5"/> </filter><linearGradient id="g3" x2="1" href="#P" gradientTransform="matrix(220,220,-220,220,0,0)"><stop stop-color="#ff0093" stop-opacity=".5"/><stop offset=".42" stop-color="#c80073" stop-opacity=".3"/><stop offset="1" stop-color="#48002a" stop-opacity=".2"/></linearGradient><linearGradient id="g4" x2="1" href="#P" gradientTransform="matrix(-220,-262.5,262.5,-220,220,262.5)"><stop stop-color="#f5008d" stop-opacity=".5"/><stop offset="1" stop-color="#5b0034" stop-opacity=".2"/></linearGradient></defs><style>.a{filter:url(#f1);fill:#ebebeb}.b{opacity:.6;filter:url(#f2);fill:url(#g1)}.c{filter:url(#f2);fill:none;stroke:url(#g2)}.d{filter:url(#f2);fill:#ebebeb}.e{filter:url(#f3);fill:#ebebeb}.f{opacity:.6;fill:url(#g3)}.g{fill:none;stroke:url(#g4)}</style><path fill-rule="evenodd" class="a" d="m153.7 57v-22.3l-3.7 22.3h-5.6l-3.5-22.3v22.3h-5.7v-30.9h9.5l2.6 18.8 2.6-18.8h9.4v30.9zm-31-28v-5.2h6.3v5.2zm0 28v-26.4h6.3v26.4zm-9.8 0l-2.4-7.4-2.7 7.4h-6.3l4.7-13.3-4.5-13.1h4.7l2.2 6.4 2.3-6.4h6.4l-4.4 12.2 4.8 14.2zm-27.9-0.7q-1.7-1-2.5-3-0.7-2-0.7-5v-1.5h6.3v2.6q0 1.3 0.2 2.2 0.2 0.8 1.2 0.8 0.7 0 1-0.4 0.3-0.4 0.4-1.1 0.1-0.7 0.1-1.4v-5.1h-9.1q-0.1-1.2-0.1-4.7v-1.9q0-7.4 7.6-7.4 3.7 0 5.8 1.9 2.1 1.8 2.1 5.5v10.6q0 2.8-0.7 4.8-0.7 2-2.4 3-1.7 1.1-4.5 1.1-3 0-4.7-1zm6-18.6q0-1.5-0.4-2.1-0.4-0.6-1.1-0.6-0.7 0-1.1 0.7-0.3 0.6-0.3 2v3.6h2.9zm-22.8 18.7q-0.9-0.8-1.4-2.2v2.8h-6.4v-31h6.4v7.4q0.6-1.5 1.6-2.3 1-0.8 2.9-0.8 2.6 0 3.7 1.9 1.1 1.9 1.1 4.9v11.5q0 1.8-0.2 3.4-0.1 1.5-0.7 2.7-0.5 1.2-1.6 1.9-1 0.6-2.9 0.6-1.6 0-2.5-0.8zm1.6-7.4v-11.1q0-1-0.2-1.9-0.3-0.8-1.3-0.8-0.9 0-1.2 0.9-0.3 0.9-0.3 1.8v11.1q0 1.9 0.3 2.6 0.3 0.7 1.2 0.7 1.5 0 1.5-3.3zm92 62v-14.2q-1.2 0-1.8 0.4-0.5 0.3-0.5 1.6v12.2h-6.1v-11.8q0-1.8 0.6-2.9 0.6-1.2 2-1.5-1.8-0.6-2.4-2.1-0.6-1.5-0.6-4 0-2.6 0.4-4.6 0.4-1.9 1.6-3 1.2-1.1 3.6-1.1h9.5v31zm-0.1-25.3h-1.4q-0.8 0-1.1 0.6-0.2 0.6-0.2 2.4 0 2.8 1.2 2.8h1.5zm-26.4 24.5q-1.7-1.1-2.5-3-0.7-2-0.7-5v-1.5h6.2v2.5q0 1.4 0.3 2.3 0.2 0.8 1.2 0.8 0.7 0 1-0.4 0.3-0.5 0.4-1.1 0.1-0.7 0.1-1.4v-5.1h-9.1q-0.1-1.2-0.1-4.7v-1.9q0-7.5 7.6-7.5 3.7 0 5.8 1.9 2.1 1.9 2.1 5.6v10.6q0 2.8-0.7 4.8-0.7 2-2.4 3-1.7 1.1-4.5 1.1-3 0-4.7-1zm6-18.6q0-1.5-0.4-2.1-0.4-0.6-1.1-0.6-0.7 0-1.1 0.7-0.4 0.6-0.4 2v3.5h3zm-22.3 18.7q-1.1-0.8-1.5-2.5v3.1h-6.3v-20.1q0-2.1 1-3.6 1-1.4 2.7-2.2 1.6-0.7 3.7-0.7 4.1 0 5.9 1.6 1.9 1.7 1.9 5.6 0 0.3 0 0.5 0 0.2-0.1 0.4h-6.1v-1.6q0-1.7-1.2-1.7-1.4 0-1.4 2.1v2.7l3.9 1.3q2 0.7 3.2 1.7 1.1 1 1.6 2.5 0.5 1.6 0.5 4 0 2.2-0.5 4-0.4 1.8-1.5 2.8-1.2 1-3.4 1-1.3 0-2.4-0.9zm1.3-6.3v-3.4q0-1.6-0.7-2.3-0.7-0.9-2-1.4v7.4q0 0.7 0.3 1.4 0.3 0.6 1 0.6 1.4 0 1.4-2.3zm-21.5 6.9v-30.9h6.4v30.9zm-12.4-28v-5.2h6.3v5.2zm0 28v-26.3h6.3v26.3zm-13.8 0.1q-1.1-0.2-1.3-0.3v-4.3q0.4 0.1 0.8 0.1 0.6 0 0.8-0.2 0.2-0.3 0.2-1v-14.9h-1.8v-4.8h1.8v-5.6h6.1v5.6h1.8v4.8h-1.8v16.4q0 2.3-0.9 3.3-0.9 1.1-3.4 1.1-1.2 0-2.3-0.2zm-13.5 4.3q-1.7 0-2.4-0.7-0.8-0.8-1.1-2.3l-4.8-27.7h6l2.1 19.4 1.8-19.4h6l-4.1 25.8q-0.1 0.2-0.1 0.5 0 0.4 0.7 0.4h3v4z"/><path class="b" d="m196 178.5c0-8.6-6.9-15.5-15.5-15.5h-141c-8.6 0-15.5 6.9-15.5 15.5 0 8.6 6.9 15.5 15.5 15.5h141c8.6 0 15.5-6.9 15.5-15.5z"/><path fill-rule="evenodd" class="c" d="m195.5 178.5c0-8.3-6.7-15-15-15h-141c-8.3 0-15 6.7-15 15 0 8.3 6.7 15 15 15h141c8.3 0 15-6.7 15-15z"/><path fill-rule="evenodd" class="d" d="m137.3 182.8q-0.7-0.3-1.1-0.9-0.4-0.6-0.4-1.4 0-0.5 0.2-1 0.2-0.4 0.5-0.7 0.4-0.3 0.8-0.6 0.5-0.3 1-0.5 0.6-0.3 1-0.5 0.3-0.3 0.5-0.5 0.2-0.2 0.2-0.6 0-0.3-0.2-0.5-0.2-0.2-0.5-0.3-0.3-0.1-0.8-0.1-0.6 0-1.1 0.2-0.5 0.1-0.8 0.4l-0.3-1.5q0.2-0.2 0.8-0.3 0.6-0.2 1.6-0.2 0.6 0 1.2 0.1 0.6 0.2 1 0.5 0.4 0.3 0.7 0.7 0.2 0.5 0.2 1.1 0 0.7-0.3 1.3-0.3 0.5-0.8 0.9-0.5 0.4-1.1 0.6-0.6 0.3-1.1 0.6-0.4 0.2-0.6 0.5-0.2 0.2-0.2 0.6 0 0.5 0.4 0.7 0.3 0.2 1.1 0.2 0.4 0 0.9-0.1 0.4-0.1 0.8-0.2 0.4-0.1 0.6-0.3l0.3 1.6q-0.2 0.1-0.6 0.2-0.4 0.1-1 0.2-0.6 0.1-1.2 0.1-1 0-1.7-0.3zm-8 0.2q-0.5-0.1-0.9-0.2-0.4-0.2-0.7-0.4l0.4-1q0.1 0.1 0.4 0.2 0.3 0 0.7 0.1 0.3 0 0.6 0 0.6 0 1-0.1 0.4-0.2 0.6-0.6 0.3-0.4 0.3-1h-4.1q0-0.2-0.1-0.5 0-0.4 0-0.7 0-0.8 0.3-1.3 0.2-0.5 0.6-0.8 0.4-0.3 0.8-0.5 0.5-0.1 1.1-0.1 1 0 1.8 0.4 0.7 0.5 1.1 1.3 0.3 0.8 0.3 1.8 0 1.6-0.8 2.6-0.8 0.9-2.4 0.9-0.5 0-1-0.1zm3.2-3l-0.1-1h-0.7q0 0.4 0 0.9 0 0.1 0 0.1zm-0.9-1q0-0.4-0.1-0.6-0.2-0.6-0.5-0.8-0.3-0.3-0.7-0.3-0.5 0-0.7 0.2-0.2 0.3-0.3 0.6-0.1 0.4-0.1 0.9zm-10.7 4q-0.5-0.1-0.9-0.2-0.4-0.2-0.6-0.4l0.3-1q0.2 0.1 0.5 0.2 0.3 0 0.6 0.1 0.4 0 0.7 0 0.5 0 0.9-0.1 0.4-0.2 0.7-0.6 0.2-0.4 0.2-1h-4.1q0-0.2 0-0.5 0-0.4 0-0.7 0-0.8 0.2-1.3 0.2-0.5 0.6-0.8 0.4-0.3 0.9-0.5 0.5-0.1 1-0.1 1.1 0 1.8 0.4 0.7 0.5 1.1 1.3 0.4 0.8 0.4 1.8 0 1.6-0.9 2.6-0.8 0.9-2.4 0.9-0.5 0-1-0.1zm3.3-3l-0.2-1h-0.7q0 0.4 0 0.9 0 0.1 0 0.1zm-0.9-1q0-0.4-0.1-0.6-0.1-0.6-0.5-0.8-0.3-0.3-0.7-0.3-0.4 0-0.7 0.2-0.2 0.3-0.3 0.6-0.1 0.4 0 0.9zm-12.2 4v-4.9q-0.3-0.3-0.7-0.4-0.3-0.1-0.6-0.1-0.4 0-0.6 0.1-0.2 0.1-0.3 0.4-0.1 0.4-0.1 0.9v4h-1.9v-4.3q0-0.3 0.1-0.6-0.3-0.2-0.6-0.4-0.4-0.1-0.7-0.1-0.4 0-0.7 0.1-0.2 0.1-0.3 0.4c0 0.2 0 4.5 0 4.9h-1.9v-4.3q0-1 0.2-1.6 0.3-0.6 0.8-0.8 0.4-0.2 1.1-0.2 0.6 0 1 0.1 0.5 0.2 0.9 0.4 0.3 0.1 0.5 0.3 0.2-0.4 0.5-0.6 0.5-0.2 1.2-0.2 0.4 0 0.9 0.1 0.4 0.1 0.8 0.3 0.3 0.2 0.6 0.4v-0.7h1.7v6.8zm-15.9-0.3q-0.7-0.4-1.2-1.1-0.4-0.8-0.4-1.9 0-1 0.3-1.8 0.3-0.8 1-1.3 0.7-0.5 1.9-0.5 1 0 1.7 0.4 0.8 0.4 1.2 1.1 0.5 0.8 0.5 1.8 0 0.8-0.2 1.4-0.1 0.7-0.5 1.2-0.4 0.5-1 0.8-0.7 0.3-1.6 0.3-0.9 0-1.7-0.4zm2.5-1.2q0.3-0.3 0.4-0.9 0.2-0.5 0.2-1.1 0-1-0.4-1.6-0.3-0.5-1-0.5-0.5 0-0.8 0.3-0.3 0.3-0.5 0.8-0.1 0.5-0.1 1.1 0 1.1 0.3 1.6 0.4 0.6 1.1 0.6 0.5 0 0.8-0.3zm-8.8-3.3q-0.2-0.1-0.5-0.3-0.4-0.1-0.8-0.1-0.4 0-0.5 0.1-0.2 0-0.3 0.1v-1.9q0.1 0 0.2 0 0.2 0 0.4 0 0.4 0 0.8 0.1 0.4 0.2 0.7 0.5 0.3 0.2 0.4 0.4l0.1-0.9h1.6v6.8h-1.9v-4.6q-0.1-0.1-0.2-0.2zm-8.3 4.8q-0.5-0.1-0.9-0.2-0.4-0.2-0.7-0.4l0.4-1q0.1 0.1 0.4 0.2 0.3 0 0.7 0.1 0.3 0 0.6 0 0.6 0 1-0.1 0.4-0.2 0.6-0.6 0.3-0.4 0.3-1h-4.1q0-0.2-0.1-0.5 0-0.4 0-0.7 0-0.8 0.3-1.3 0.2-0.5 0.6-0.8 0.4-0.3 0.8-0.5 0.5-0.1 1.1-0.1 1 0 1.7 0.4 0.8 0.5 1.2 1.3 0.3 0.8 0.3 1.8 0 1.6-0.8 2.6-0.8 0.9-2.4 0.9-0.5 0-1-0.1zm3.2-3l-0.1-1h-0.7q0 0.4 0 0.9 0 0.1 0 0.1zm-0.9-1q0-0.4-0.1-0.6-0.2-0.6-0.5-0.8-0.3-0.3-0.7-0.3-0.5 0-0.7 0.2-0.2 0.3-0.3 0.6-0.1 0.4-0.1 0.9z"/><path fill-rule="evenodd" class="e" d="m50.7 150v-82.5h25.1l6.9 50.3 6.9-50.3h25.4v82.5h-15.1v-59.4l-9.5 59.4h-14.8l-10-59.4v59.4zm81.2 0v-82.5h25.3q6.3 0 9.6 2.9 3.2 2.9 4.3 8.1 1.1 5.1 1.1 12.1 0 6.8-1.7 10.8-1.7 4-6.5 5.6 3.9 0.8 5.5 3.9 1.6 3 1.6 7.9v31.2h-16.3v-32.3q0-3.6-1.5-4.5-1.4-0.8-4.7-0.8v37.6zm16.8-51.9h3.9q3.5 0 3.5-7.5 0-4.8-0.8-6.3-0.7-1.5-2.8-1.5h-3.8z"/><g style="opacity:.6"><path class="f" d="m0 40c0-22.1 17.9-40 40-40h140c22.1 0 40 17.9 40 40v140c0 22.1-17.9 40-40 40h-140c-22.1 0-40-17.9-40-40z"/><path fill-rule="evenodd" class="g" d="m0.5 40c0-21.8 17.7-39.5 39.5-39.5h140c21.8 0 39.5 17.7 39.5 39.5v140c0 21.8-17.7 39.5-39.5 39.5h-140c-21.8 0-39.5-17.7-39.5-39.5z"/></g></svg>