<svg width="40" height="40" viewBox="0 0 40 40" fill="none" xmlns="http://www.w3.org/2000/svg">
<g filter="url(#filter0_b_1_49)">
<rect x="0.5" y="0.5" width="39" height="39" rx="7.5" stroke="#EBEBEB"/>
<path d="M7.35156 30L9.34375 9.375H16.3398L18.2969 30H14.3945L14.1016 26.6719H11.6172L11.3594 30H7.35156ZM11.9102 23.3789H13.7852L12.8828 12.8906H12.6953L11.9102 23.3789ZM21.9625 30V9.375H28.2906C29.3453 9.375 30.1422 9.61719 30.6812 10.1016C31.2203 10.5781 31.5797 11.25 31.7594 12.1172C31.9469 12.9766 32.0406 13.9883 32.0406 15.1523C32.0406 16.2773 31.8961 17.1758 31.607 17.8477C31.3258 18.5195 30.7906 18.9844 30.0016 19.2422C30.65 19.375 31.1031 19.6992 31.3609 20.2148C31.6266 20.7227 31.7594 21.3828 31.7594 22.1953V30H27.693V21.9258C27.693 21.3242 27.568 20.9531 27.318 20.8125C27.0758 20.6641 26.6812 20.5898 26.1344 20.5898V30H21.9625ZM26.1578 17.0156H27.1539C27.7242 17.0156 28.0094 16.3945 28.0094 15.1523C28.0094 14.3477 27.9469 13.8203 27.8219 13.5703C27.6969 13.3203 27.4625 13.1953 27.1187 13.1953H26.1578V17.0156Z" fill="#EBEBEB"/>
</g>
<defs>
<filter id="filter0_b_1_49" x="-20" y="-20" width="80" height="80" filterUnits="userSpaceOnUse" color-interpolation-filters="sRGB">
<feFlood flood-opacity="0" result="BackgroundImageFix"/>
<feGaussianBlur in="BackgroundImageFix" stdDeviation="10"/>
<feComposite in2="SourceAlpha" operator="in" result="effect1_backgroundBlur_1_49"/>
<feBlend mode="normal" in="SourceGraphic" in2="effect1_backgroundBlur_1_49" result="shape"/>
</filter>
</defs>
</svg>
