<svg width="32" height="32" viewBox="0 0 32 32" fill="none" xmlns="http://www.w3.org/2000/svg">
<rect x="0.5" y="0.5" width="31" height="31" rx="7.5" stroke="#EBEBEB"/>
<path d="M2.60938 23V9.25H6.82812C7.53125 9.25 8.0625 9.41146 8.42188 9.73438C8.78125 10.0521 9.02083 10.5 9.14062 11.0781C9.26562 11.651 9.32812 12.3255 9.32812 13.1016C9.32812 13.8516 9.23177 14.4505 9.03906 14.8984C8.85156 15.3464 8.49479 15.6562 7.96875 15.8281C8.40104 15.9167 8.70312 16.1328 8.875 16.4766C9.05208 16.8151 9.14062 17.2552 9.14062 17.7969V23H6.42969V17.6172C6.42969 17.2161 6.34635 16.9688 6.17969 16.875C6.01823 16.776 5.75521 16.7266 5.39062 16.7266V23H2.60938ZM5.40625 14.3438H6.07031C6.45052 14.3438 6.64062 13.9297 6.64062 13.1016C6.64062 12.5651 6.59896 12.2135 6.51562 12.0469C6.43229 11.8802 6.27604 11.7969 6.04688 11.7969H5.40625V14.3438ZM14.2406 23.1641C13.3865 23.1641 12.7146 22.8333 12.225 22.1719C11.7406 21.5104 11.4984 20.599 11.4984 19.4375C11.4984 18.6094 11.5714 17.9219 11.7172 17.375C11.8682 16.8281 12.0766 16.3724 12.3422 16.0078C12.6078 15.6432 12.9125 15.3255 13.2563 15.0547L13.1938 14.8984C12.975 14.3568 12.7823 13.8411 12.6156 13.3516C12.4542 12.8568 12.3734 12.349 12.3734 11.8281C12.3734 11.3021 12.4854 10.8359 12.7094 10.4297C12.9333 10.0234 13.2432 9.70573 13.6391 9.47656C14.0401 9.24219 14.4984 9.125 15.0141 9.125C15.5245 9.125 15.988 9.23698 16.4047 9.46094C16.8266 9.67969 17.1625 10.0104 17.4125 10.4531C17.6625 10.8958 17.7875 11.4557 17.7875 12.1328C17.7875 12.8672 17.6495 13.4818 17.3734 13.9766C17.1026 14.4714 16.6938 14.9479 16.1469 15.4062L16.8969 17.2969C17.2042 16.5208 17.6469 15.9193 18.225 15.4922L19.3109 17.1875C18.7068 17.6719 18.2016 18.4609 17.7953 19.5547L19.1703 23H16.5141L16.2094 22.2578C16.0063 22.5078 15.7328 22.7214 15.3891 22.8984C15.0505 23.0755 14.6677 23.1641 14.2406 23.1641ZM14.8266 11.5859C14.8266 11.7214 14.8604 11.9219 14.9281 12.1875C14.9958 12.4479 15.1547 12.901 15.4047 13.5469C15.5036 13.4427 15.5922 13.2786 15.6703 13.0547C15.7484 12.8307 15.7875 12.5234 15.7875 12.1328C15.7875 11.7318 15.738 11.4505 15.6391 11.2891C15.5453 11.1276 15.4203 11.0469 15.2641 11.0469C15.113 11.0469 15.001 11.1042 14.9281 11.2188C14.8604 11.3281 14.8266 11.4505 14.8266 11.5859ZM13.8891 19.7734C13.8891 20.7005 14.1521 21.1641 14.6781 21.1641C14.8917 21.1641 15.0635 21.0859 15.1938 20.9297C15.324 20.7682 15.4125 20.6016 15.4594 20.4297L14.1469 17.2344C13.975 17.599 13.8891 18.237 13.8891 19.1484V19.7734ZM21.3875 23L22.7156 9.25H27.3797L28.6844 23H26.0828L25.8875 20.7812H24.2313L24.0594 23H21.3875ZM24.4266 18.5859H25.6766L25.075 11.5938H24.95L24.4266 18.5859Z" fill="#EBEBEB"/>
</svg>
