<svg version="1.2" xmlns="http://www.w3.org/2000/svg" viewBox="0 0 40 40" width="40" height="40"><style>.a{fill:none;stroke:#ebebeb}.b{fill:#ebebeb}</style><path class="a" d="m0.5 8c0-4.1 3.4-7.5 7.5-7.5h24c4.1 0 7.5 3.4 7.5 7.5v24c0 4.1-3.4 7.5-7.5 7.5h-24c-4.1 0-7.5-3.4-7.5-7.5z"/><path fill-rule="evenodd" class="b" d="m9.8 30l-2.5-20.6h3.9l1.5 14 1.4-14h3.9l-2.6 20.6zm11.8 0v-20.6h6.3q1.6 0 2.4 0.7 0.8 0.7 1.1 2 0.3 1.3 0.3 3.1 0 1.6-0.4 2.6-0.5 1.1-1.6 1.4 0.9 0.2 1.3 1 0.4 0.8 0.4 2v7.8h-4.1v-8.1q0-0.9-0.3-1.1-0.4-0.2-1.2-0.2v9.4zm4.2-13h1q0.8 0 0.8-1.8 0-1.3-0.2-1.6-0.1-0.4-0.7-0.4h-0.9z"/></svg>