<svg width="125" height="34" viewBox="0 0 125 34" fill="none" xmlns="http://www.w3.org/2000/svg">
<path d="M9.613 0.884724V4.33994C9.613 4.6193 9.38189 4.86101 9.07692 4.90186C7.83045 5.0688 6.77863 5.6611 6.03789 6.3813C5.30239 7.09641 4.85292 7.95924 4.85292 8.68017C4.85292 8.97561 4.8529 9.80176 4.85287 10.9402C4.85275 15.3326 4.85251 24.3736 4.85292 25.5136C4.85305 25.8787 4.98899 26.2733 5.21379 26.6586C5.43959 27.0456 5.76105 27.4338 6.14777 27.7891C6.9199 28.4984 7.96829 29.0913 9.0728 29.2778C9.3813 29.33 9.613 29.5748 9.613 29.8538V33.1785C9.613 33.4666 9.38133 33.6881 9.11178 33.6671C6.72041 33.4812 4.4815 32.3245 2.83983 30.7652C1.19517 29.203 0.17162 27.2586 0.17162 25.5136V8.68017C0.17162 5.37084 3.17632 0.719411 9.1069 0.388571C9.38105 0.373277 9.613 0.598008 9.613 0.884724Z" stroke="white" stroke-opacity="0.5" stroke-width="0.343241"/>
<path d="M14.1878 33.1786L14.1878 29.7234C14.1878 29.444 14.4189 29.2023 14.7239 29.1615C15.9703 28.9946 17.0222 28.4023 17.7629 27.6821C18.4984 26.9669 18.9479 26.1041 18.9479 25.3832C18.9479 25.0864 18.9479 24.2538 18.9479 23.1071C18.948 18.7087 18.9483 9.68834 18.9479 8.54974C18.9477 8.18463 18.8118 7.79009 18.587 7.40479C18.3612 7.01776 18.0397 6.6296 17.653 6.2743C16.8809 5.56491 15.8325 4.97209 14.728 4.7855C14.4195 4.73339 14.1878 4.48859 14.1878 4.20957L14.1878 0.884841C14.1878 0.59677 14.4195 0.375266 14.689 0.396224C17.0804 0.582153 19.3193 1.73887 20.961 3.29817C22.6056 4.86031 23.6292 6.80478 23.6292 8.5498L23.6292 25.3832C23.6292 28.6925 20.6245 33.3439 14.6939 33.6748C14.4197 33.6901 14.1878 33.4653 14.1878 33.1786Z" stroke="white" stroke-opacity="0.5" stroke-width="0.343241"/>
<path d="M40.4479 0.369863H43.7535C43.9364 0.369863 44.1055 0.466857 44.1979 0.624684L63.0959 32.9185C63.2968 33.2617 63.0492 33.6934 62.6516 33.6934H59.2191C59.0357 33.6934 58.8662 33.5958 58.774 33.4372L40.0028 1.14346C39.8033 0.800221 40.0509 0.369863 40.4479 0.369863Z" stroke="white" stroke-opacity="0.5" stroke-width="0.343241"/>
<path d="M48.6923 25.1276L46.977 22.1874C46.7776 21.8456 46.2831 21.8472 46.0859 22.1904L39.9951 32.7915C39.7979 33.1347 40.0457 33.5628 40.4415 33.5628H43.8811C44.066 33.5628 44.2368 33.4636 44.3284 33.3029L48.6949 25.642C48.7859 25.4823 48.7849 25.2863 48.6923 25.1276Z" stroke="white" stroke-opacity="0.5" stroke-width="0.343241"/>
<path d="M62.5357 0.369863H59.2116C59.031 0.369863 58.8636 0.464521 58.7705 0.619298L54.158 8.28588C54.0601 8.44854 54.0597 8.65185 54.1569 8.81491L55.9873 11.8858C56.1893 12.2248 56.682 12.2198 56.8771 11.8767L62.9833 1.13924C63.1785 0.796008 62.9306 0.369863 62.5357 0.369863Z" stroke="white" stroke-opacity="0.5" stroke-width="0.343241"/>
<rect x="79.4753" y="0.369863" width="4.94574" height="33.3235" rx="0.514861" stroke="white" stroke-opacity="0.5" stroke-width="0.343241"/>
<rect x="109.74" y="9.76525" width="4.94574" height="23.9281" rx="0.514861" stroke="white" stroke-opacity="0.5" stroke-width="0.343241"/>
<rect x="100.219" y="0.369863" width="24.2505" height="4.8764" rx="0.514861" stroke="white" stroke-opacity="0.5" stroke-width="0.343241"/>
</svg>
