<svg width="1440" height="3889" viewBox="0 0 1440 3889" fill="none" xmlns="http://www.w3.org/2000/svg">
<g filter="url(#filter0_f_194_189)">
<path d="M339.514 282.238V286.676C339.514 287.58 338.754 288.385 337.724 288.632C335.643 289.131 333.905 290.25 332.685 291.545C331.479 292.825 330.721 294.341 330.721 295.661C330.721 296.208 330.721 297.745 330.721 299.861C330.721 307.981 330.72 324.639 330.721 326.741C330.722 328.064 331.607 329.551 332.847 330.791C334.108 332.053 335.835 333.162 337.711 333.701C338.747 333.998 339.514 334.82 339.514 335.725V339.922C339.514 340.873 338.755 341.568 337.917 341.453C333.76 340.888 329.907 338.745 327.094 335.952C324.273 333.151 322.56 329.761 322.56 326.741V295.661C322.56 289.85 327.699 281.693 337.894 280.667C338.756 280.58 339.514 281.294 339.514 282.238Z" stroke="#EBEBEB" stroke-opacity="0.07" stroke-width="1.11913"/>
<path d="M348.448 339.922L348.448 335.484C348.448 334.58 349.207 333.775 350.237 333.528C352.319 333.029 354.056 331.91 355.276 330.615C356.482 329.335 357.24 327.82 357.24 326.5C357.24 325.952 357.24 324.416 357.24 322.3C357.24 314.18 357.241 297.522 357.24 295.419C357.239 294.096 356.354 292.609 355.114 291.369C353.853 290.107 352.126 288.998 350.25 288.46C349.214 288.162 348.448 287.341 348.448 286.435L348.448 282.238C348.448 281.288 349.206 280.593 350.045 280.707C354.202 281.272 358.054 283.415 360.867 286.208C363.689 289.009 365.402 292.399 365.402 295.419L365.402 326.5C365.402 332.31 360.262 340.467 350.068 341.493C349.205 341.58 348.448 340.866 348.448 339.922Z" stroke="#EBEBEB" stroke-opacity="0.07" stroke-width="1.11913"/>
<path d="M398.398 280.56H402.26C402.856 280.56 403.408 280.876 403.709 281.39L437.479 339.074C438.134 340.193 437.327 341.601 436.03 341.601H431.941C431.343 341.601 430.79 341.283 430.489 340.766L396.946 283.082C396.296 281.963 397.103 280.56 398.398 280.56Z" stroke="#EBEBEB" stroke-opacity="0.07" stroke-width="1.11913"/>
<path d="M411.446 325.666L409.404 322.168C408.754 321.054 407.142 321.06 406.499 322.178L396.92 338.844C396.277 339.964 397.084 341.36 398.375 341.36H402.487C403.09 341.36 403.647 341.036 403.946 340.513L411.454 327.344C411.751 326.824 411.748 326.184 411.446 325.666Z" stroke="#EBEBEB" stroke-opacity="0.07" stroke-width="1.11913"/>
<path d="M435.842 280.56H431.919C431.33 280.56 430.784 280.868 430.481 281.373L422.544 294.559C422.224 295.09 422.223 295.753 422.54 296.285L424.77 300.025C425.429 301.129 427.035 301.113 427.671 299.995L437.301 283.068C437.937 281.949 437.129 280.56 435.842 280.56Z" stroke="#EBEBEB" stroke-opacity="0.07" stroke-width="1.11913"/>
<rect x="469.039" y="280.56" width="8.65013" height="61.0414" rx="1.6787" stroke="#EBEBEB" stroke-opacity="0.07" stroke-width="1.11913"/>
<rect x="524.939" y="297.907" width="8.65007" height="43.6942" rx="1.6787" stroke="#EBEBEB" stroke-opacity="0.07" stroke-width="1.11913"/>
<rect x="507.354" y="280.56" width="44.3078" height="8.51817" rx="1.6787" stroke="#EBEBEB" stroke-opacity="0.07" stroke-width="1.11913"/>
</g>
<g filter="url(#filter1_f_194_189)">
<path d="M505.514 650.238V654.676C505.514 655.58 504.754 656.385 503.724 656.632C501.643 657.131 499.905 658.25 498.685 659.545C497.479 660.825 496.721 662.341 496.721 663.661C496.721 664.208 496.721 665.745 496.721 667.861C496.721 675.981 496.72 692.639 496.721 694.741C496.722 696.064 497.607 697.551 498.847 698.791C500.108 700.053 501.835 701.162 503.711 701.701C504.747 701.998 505.514 702.82 505.514 703.725V707.922C505.514 708.873 504.755 709.568 503.917 709.453C499.76 708.888 495.907 706.745 493.094 703.952C490.273 701.151 488.56 697.761 488.56 694.741V663.661C488.56 657.85 493.699 649.693 503.894 648.667C504.756 648.58 505.514 649.294 505.514 650.238Z" stroke="#EBEBEB" stroke-opacity="0.07" stroke-width="1.11913"/>
<path d="M514.448 707.922L514.448 703.484C514.448 702.58 515.207 701.775 516.237 701.528C518.319 701.029 520.056 699.91 521.276 698.615C522.482 697.335 523.24 695.82 523.24 694.5C523.24 693.952 523.24 692.416 523.24 690.3C523.24 682.18 523.241 665.522 523.24 663.419C523.239 662.096 522.354 660.609 521.114 659.369C519.853 658.107 518.126 656.998 516.25 656.46C515.214 656.162 514.448 655.341 514.448 654.435L514.448 650.238C514.448 649.288 515.206 648.593 516.045 648.707C520.202 649.272 524.054 651.415 526.867 654.208C529.689 657.009 531.402 660.399 531.402 663.419L531.402 694.5C531.402 700.31 526.262 708.467 516.068 709.493C515.205 709.58 514.448 708.866 514.448 707.922Z" stroke="#EBEBEB" stroke-opacity="0.07" stroke-width="1.11913"/>
<path d="M564.398 648.56H568.26C568.856 648.56 569.408 648.876 569.709 649.39L603.479 707.074C604.134 708.193 603.327 709.601 602.03 709.601H597.941C597.343 709.601 596.79 709.283 596.489 708.766L562.946 651.082C562.296 649.963 563.103 648.56 564.398 648.56Z" stroke="#EBEBEB" stroke-opacity="0.07" stroke-width="1.11913"/>
<path d="M577.446 693.666L575.404 690.168C574.754 689.054 573.142 689.06 572.499 690.178L562.92 706.844C562.277 707.964 563.084 709.36 564.375 709.36H568.487C569.09 709.36 569.647 709.036 569.946 708.513L577.454 695.344C577.751 694.824 577.748 694.184 577.446 693.666Z" stroke="#EBEBEB" stroke-opacity="0.07" stroke-width="1.11913"/>
<path d="M601.842 648.56H597.919C597.33 648.56 596.784 648.868 596.481 649.373L588.544 662.559C588.224 663.09 588.223 663.753 588.54 664.285L590.77 668.025C591.429 669.129 593.035 669.113 593.671 667.995L603.301 651.068C603.937 649.949 603.129 648.56 601.842 648.56Z" stroke="#EBEBEB" stroke-opacity="0.07" stroke-width="1.11913"/>
<rect x="635.039" y="648.56" width="8.65013" height="61.0414" rx="1.6787" stroke="#EBEBEB" stroke-opacity="0.07" stroke-width="1.11913"/>
<rect x="690.939" y="665.907" width="8.65007" height="43.6942" rx="1.6787" stroke="#EBEBEB" stroke-opacity="0.07" stroke-width="1.11913"/>
<rect x="673.354" y="648.56" width="44.3078" height="8.51817" rx="1.6787" stroke="#EBEBEB" stroke-opacity="0.07" stroke-width="1.11913"/>
</g>
<g filter="url(#filter2_f_194_189)">
<path d="M1140.51 370.238V374.676C1140.51 375.58 1139.75 376.385 1138.72 376.632C1136.64 377.131 1134.91 378.25 1133.69 379.545C1132.48 380.825 1131.72 382.341 1131.72 383.661C1131.72 384.208 1131.72 385.745 1131.72 387.861C1131.72 395.981 1131.72 412.639 1131.72 414.741C1131.72 416.064 1132.61 417.551 1133.85 418.791C1135.11 420.053 1136.84 421.162 1138.71 421.701C1139.75 421.998 1140.51 422.82 1140.51 423.725V427.922C1140.51 428.873 1139.75 429.568 1138.92 429.453C1134.76 428.888 1130.91 426.745 1128.09 423.952C1125.27 421.151 1123.56 417.761 1123.56 414.741V383.661C1123.56 377.85 1128.7 369.693 1138.89 368.667C1139.76 368.58 1140.51 369.294 1140.51 370.238Z" stroke="#EBEBEB" stroke-opacity="0.07" stroke-width="1.11913"/>
<path d="M1149.45 427.922L1149.45 423.484C1149.45 422.58 1150.21 421.775 1151.24 421.528C1153.32 421.029 1155.06 419.91 1156.28 418.615C1157.48 417.335 1158.24 415.82 1158.24 414.5C1158.24 413.952 1158.24 412.416 1158.24 410.3C1158.24 402.18 1158.24 385.522 1158.24 383.419C1158.24 382.096 1157.35 380.609 1156.11 379.369C1154.85 378.107 1153.13 376.998 1151.25 376.46C1150.21 376.162 1149.45 375.341 1149.45 374.435L1149.45 370.238C1149.45 369.288 1150.21 368.593 1151.04 368.707C1155.2 369.272 1159.05 371.415 1161.87 374.208C1164.69 377.009 1166.4 380.399 1166.4 383.419L1166.4 414.5C1166.4 420.31 1161.26 428.467 1151.07 429.493C1150.21 429.58 1149.45 428.866 1149.45 427.922Z" stroke="#EBEBEB" stroke-opacity="0.07" stroke-width="1.11913"/>
<path d="M1199.4 368.56H1203.26C1203.86 368.56 1204.41 368.876 1204.71 369.39L1238.48 427.074C1239.13 428.193 1238.33 429.601 1237.03 429.601H1232.94C1232.34 429.601 1231.79 429.283 1231.49 428.766L1197.95 371.082C1197.3 369.963 1198.1 368.56 1199.4 368.56Z" stroke="#EBEBEB" stroke-opacity="0.07" stroke-width="1.11913"/>
<path d="M1212.45 413.666L1210.4 410.168C1209.75 409.054 1208.14 409.06 1207.5 410.178L1197.92 426.844C1197.28 427.964 1198.08 429.36 1199.38 429.36H1203.49C1204.09 429.36 1204.65 429.036 1204.95 428.513L1212.45 415.344C1212.75 414.824 1212.75 414.184 1212.45 413.666Z" stroke="#EBEBEB" stroke-opacity="0.07" stroke-width="1.11913"/>
<path d="M1236.84 368.56H1232.92C1232.33 368.56 1231.78 368.868 1231.48 369.373L1223.54 382.559C1223.22 383.09 1223.22 383.753 1223.54 384.285L1225.77 388.025C1226.43 389.129 1228.03 389.113 1228.67 387.995L1238.3 371.068C1238.94 369.949 1238.13 368.56 1236.84 368.56Z" stroke="#EBEBEB" stroke-opacity="0.07" stroke-width="1.11913"/>
<rect x="1270.04" y="368.56" width="8.65013" height="61.0414" rx="1.6787" stroke="#EBEBEB" stroke-opacity="0.07" stroke-width="1.11913"/>
<rect x="1325.94" y="385.907" width="8.65007" height="43.6942" rx="1.6787" stroke="#EBEBEB" stroke-opacity="0.07" stroke-width="1.11913"/>
<rect x="1308.35" y="368.56" width="44.3078" height="8.51817" rx="1.6787" stroke="#EBEBEB" stroke-opacity="0.07" stroke-width="1.11913"/>
</g>
<g filter="url(#filter3_f_194_189)">
<path d="M883.514 482.238V486.676C883.514 487.58 882.754 488.385 881.724 488.632C879.643 489.131 877.905 490.25 876.685 491.545C875.479 492.825 874.721 494.341 874.721 495.661C874.721 496.208 874.721 497.745 874.721 499.861C874.721 507.981 874.72 524.639 874.721 526.741C874.722 528.064 875.607 529.551 876.847 530.791C878.108 532.053 879.835 533.162 881.711 533.701C882.747 533.998 883.514 534.82 883.514 535.725V539.922C883.514 540.873 882.755 541.568 881.917 541.453C877.76 540.888 873.907 538.745 871.094 535.952C868.273 533.151 866.56 529.761 866.56 526.741V495.661C866.56 489.85 871.699 481.693 881.894 480.667C882.756 480.58 883.514 481.294 883.514 482.238Z" stroke="#EBEBEB" stroke-opacity="0.07" stroke-width="1.11913"/>
<path d="M892.448 539.922L892.448 535.484C892.448 534.58 893.207 533.775 894.237 533.528C896.319 533.029 898.056 531.91 899.276 530.615C900.482 529.335 901.24 527.82 901.24 526.5C901.24 525.952 901.24 524.416 901.24 522.3C901.24 514.18 901.241 497.522 901.24 495.419C901.239 494.096 900.354 492.609 899.114 491.369C897.853 490.107 896.126 488.998 894.25 488.46C893.214 488.162 892.448 487.341 892.448 486.435L892.448 482.238C892.448 481.288 893.206 480.593 894.045 480.707C898.202 481.272 902.054 483.415 904.867 486.208C907.689 489.009 909.402 492.399 909.402 495.419L909.402 526.5C909.402 532.31 904.262 540.467 894.068 541.493C893.205 541.58 892.448 540.866 892.448 539.922Z" stroke="#EBEBEB" stroke-opacity="0.07" stroke-width="1.11913"/>
<path d="M942.398 480.56H946.26C946.856 480.56 947.408 480.876 947.709 481.39L981.479 539.074C982.134 540.193 981.327 541.601 980.03 541.601H975.941C975.343 541.601 974.79 541.283 974.489 540.766L940.946 483.082C940.296 481.963 941.103 480.56 942.398 480.56Z" stroke="#EBEBEB" stroke-opacity="0.07" stroke-width="1.11913"/>
<path d="M955.446 525.666L953.404 522.168C952.754 521.054 951.142 521.06 950.499 522.178L940.92 538.844C940.277 539.964 941.084 541.36 942.375 541.36H946.487C947.09 541.36 947.647 541.036 947.946 540.513L955.454 527.344C955.751 526.824 955.748 526.184 955.446 525.666Z" stroke="#EBEBEB" stroke-opacity="0.07" stroke-width="1.11913"/>
<path d="M979.842 480.56H975.919C975.33 480.56 974.784 480.868 974.481 481.373L966.544 494.559C966.224 495.09 966.223 495.753 966.54 496.285L968.77 500.025C969.429 501.129 971.035 501.113 971.671 499.995L981.301 483.068C981.937 481.949 981.129 480.56 979.842 480.56Z" stroke="#EBEBEB" stroke-opacity="0.07" stroke-width="1.11913"/>
<rect x="1013.04" y="480.56" width="8.65013" height="61.0414" rx="1.6787" stroke="#EBEBEB" stroke-opacity="0.07" stroke-width="1.11913"/>
<rect x="1068.94" y="497.907" width="8.65007" height="43.6942" rx="1.6787" stroke="#EBEBEB" stroke-opacity="0.07" stroke-width="1.11913"/>
<rect x="1051.35" y="480.56" width="44.3078" height="8.51817" rx="1.6787" stroke="#EBEBEB" stroke-opacity="0.07" stroke-width="1.11913"/>
</g>
<g filter="url(#filter4_f_194_189)">
<path d="M65.5135 39.2383V43.6762C65.5135 44.58 64.7541 45.3851 63.7243 45.6321C61.6426 46.1314 59.9052 47.2505 58.6851 48.545C57.4788 49.8249 56.7212 51.3406 56.7212 52.6606C56.7212 53.2084 56.7212 54.7446 56.7211 56.8605C56.7209 64.9805 56.7205 81.6385 56.7212 83.741C56.7217 85.0645 57.6073 86.551 58.8472 87.7912C60.1085 89.0527 61.8351 90.1618 63.7112 90.7005C64.7475 90.9981 65.5135 91.8196 65.5135 92.7252V96.9222C65.5135 97.8726 64.7548 98.5676 63.9165 98.4535C59.7596 97.8877 55.9074 95.7453 53.0944 92.9524C50.2727 90.1508 48.5596 86.7607 48.5596 83.7408V52.6606C48.5596 46.8497 53.6989 38.6932 63.8935 37.6672C64.756 37.5804 65.5135 38.294 65.5135 39.2383Z" stroke="#EBEBEB" stroke-opacity="0.07" stroke-width="1.11913"/>
<path d="M74.4477 96.9219L74.4477 92.4839C74.4477 91.5801 75.2071 90.7751 76.2369 90.528C78.3186 90.0287 80.056 88.9097 81.2761 87.6152C82.4824 86.3353 83.24 84.8195 83.24 83.4996C83.24 82.9517 83.24 81.4156 83.2401 79.2996C83.2403 71.1796 83.2407 54.5216 83.24 52.4191C83.2395 51.0956 82.3539 49.6091 81.114 48.369C79.8527 47.1075 78.126 45.9984 76.25 45.4596C75.2137 45.162 74.4477 44.3406 74.4477 43.4349L74.4477 39.2379C74.4477 38.2875 75.2064 37.5926 76.0446 37.7067C80.2016 38.2724 84.0538 40.4148 86.8668 43.2077C89.6885 46.0093 91.4016 49.3995 91.4016 52.4193L91.4016 83.4996C91.4016 89.3105 86.2622 97.4669 76.0677 98.493C75.2052 98.5798 74.4477 97.8662 74.4477 96.9219Z" stroke="#EBEBEB" stroke-opacity="0.07" stroke-width="1.11913"/>
<path d="M124.398 37.5596H128.26C128.856 37.5596 129.408 37.8757 129.709 38.3902L163.479 96.0741C164.134 97.1932 163.327 98.6009 162.03 98.6009H157.941C157.343 98.6009 156.79 98.2829 156.489 97.7661L122.946 40.0821C122.296 38.963 123.103 37.5596 124.398 37.5596Z" stroke="#EBEBEB" stroke-opacity="0.07" stroke-width="1.11913"/>
<path d="M137.446 82.6665L135.404 79.1685C134.754 78.0542 133.142 78.0595 132.499 79.1781L122.92 95.8445C122.277 96.9636 123.084 98.3597 124.375 98.3597H128.487C129.09 98.3597 129.647 98.0363 129.946 97.5125L137.454 84.3442C137.751 83.8235 137.748 83.1841 137.446 82.6665Z" stroke="#EBEBEB" stroke-opacity="0.07" stroke-width="1.11913"/>
<path d="M161.842 37.5596H157.919C157.33 37.5596 156.784 37.8681 156.481 38.3726L148.544 51.5593C148.224 52.0898 148.223 52.753 148.54 53.2847L150.77 57.0245C151.429 58.1295 153.035 58.1131 153.671 56.9949L163.301 40.0684C163.937 38.9493 163.129 37.5596 161.842 37.5596Z" stroke="#EBEBEB" stroke-opacity="0.07" stroke-width="1.11913"/>
<rect x="195.039" y="37.5596" width="8.65013" height="61.0414" rx="1.6787" stroke="#EBEBEB" stroke-opacity="0.07" stroke-width="1.11913"/>
<rect x="250.939" y="54.9072" width="8.65007" height="43.6942" rx="1.6787" stroke="#EBEBEB" stroke-opacity="0.07" stroke-width="1.11913"/>
<rect x="233.354" y="37.5596" width="44.3078" height="8.51817" rx="1.6787" stroke="#EBEBEB" stroke-opacity="0.07" stroke-width="1.11913"/>
</g>
<g filter="url(#filter5_f_194_189)">
<path d="M844.514 58.2383V62.6762C844.514 63.58 843.754 64.3851 842.724 64.6321C840.643 65.1314 838.905 66.2505 837.685 67.545C836.479 68.8249 835.721 70.3406 835.721 71.6606C835.721 72.2084 835.721 73.7446 835.721 75.8605C835.721 83.9805 835.72 100.639 835.721 102.741C835.722 104.064 836.607 105.551 837.847 106.791C839.108 108.053 840.835 109.162 842.711 109.701C843.747 109.998 844.514 110.82 844.514 111.725V115.922C844.514 116.873 843.755 117.568 842.917 117.453C838.76 116.888 834.907 114.745 832.094 111.952C829.273 109.151 827.56 105.761 827.56 102.741V71.6606C827.56 65.8497 832.699 57.6932 842.894 56.6672C843.756 56.5804 844.514 57.294 844.514 58.2383Z" stroke="#EBEBEB" stroke-opacity="0.07" stroke-width="1.11913"/>
<path d="M853.448 115.922L853.448 111.484C853.448 110.58 854.207 109.775 855.237 109.528C857.319 109.029 859.056 107.91 860.276 106.615C861.482 105.335 862.24 103.82 862.24 102.5C862.24 101.952 862.24 100.416 862.24 98.2996C862.24 90.1796 862.241 73.5216 862.24 71.4191C862.239 70.0956 861.354 68.6091 860.114 67.369C858.853 66.1075 857.126 64.9984 855.25 64.4596C854.214 64.162 853.448 63.3406 853.448 62.4349L853.448 58.2379C853.448 57.2875 854.206 56.5926 855.045 56.7067C859.202 57.2724 863.054 59.4148 865.867 62.2077C868.689 65.0093 870.402 68.3995 870.402 71.4193L870.402 102.5C870.402 108.31 865.262 116.467 855.068 117.493C854.205 117.58 853.448 116.866 853.448 115.922Z" stroke="#EBEBEB" stroke-opacity="0.07" stroke-width="1.11913"/>
<path d="M903.398 56.5596H907.26C907.856 56.5596 908.408 56.8757 908.709 57.3902L942.479 115.074C943.134 116.193 942.327 117.601 941.03 117.601H936.941C936.343 117.601 935.79 117.283 935.489 116.766L901.946 59.0821C901.296 57.963 902.103 56.5596 903.398 56.5596Z" stroke="#EBEBEB" stroke-opacity="0.07" stroke-width="1.11913"/>
<path d="M916.446 101.666L914.404 98.1685C913.754 97.0542 912.142 97.0595 911.499 98.1781L901.92 114.844C901.277 115.964 902.084 117.36 903.375 117.36H907.487C908.09 117.36 908.647 117.036 908.946 116.513L916.454 103.344C916.751 102.824 916.748 102.184 916.446 101.666Z" stroke="#EBEBEB" stroke-opacity="0.07" stroke-width="1.11913"/>
<path d="M940.842 56.5596H936.919C936.33 56.5596 935.784 56.8681 935.481 57.3726L927.544 70.5593C927.224 71.0898 927.223 71.753 927.54 72.2847L929.77 76.0245C930.429 77.1295 932.035 77.1131 932.671 75.9949L942.301 59.0684C942.937 57.9493 942.129 56.5596 940.842 56.5596Z" stroke="#EBEBEB" stroke-opacity="0.07" stroke-width="1.11913"/>
<rect x="974.039" y="56.5596" width="8.65013" height="61.0414" rx="1.6787" stroke="#EBEBEB" stroke-opacity="0.07" stroke-width="1.11913"/>
<rect x="1029.94" y="73.9072" width="8.65007" height="43.6942" rx="1.6787" stroke="#EBEBEB" stroke-opacity="0.07" stroke-width="1.11913"/>
<rect x="1012.35" y="56.5596" width="44.3078" height="8.51817" rx="1.6787" stroke="#EBEBEB" stroke-opacity="0.07" stroke-width="1.11913"/>
</g>
<g filter="url(#filter6_f_194_189)">
<path d="M339.514 1047.24V1051.68C339.514 1052.58 338.754 1053.39 337.724 1053.63C335.643 1054.13 333.905 1055.25 332.685 1056.54C331.479 1057.82 330.721 1059.34 330.721 1060.66C330.721 1061.21 330.721 1062.74 330.721 1064.86C330.721 1072.98 330.72 1089.64 330.721 1091.74C330.722 1093.06 331.607 1094.55 332.847 1095.79C334.108 1097.05 335.835 1098.16 337.711 1098.7C338.747 1099 339.514 1099.82 339.514 1100.73V1104.92C339.514 1105.87 338.755 1106.57 337.917 1106.45C333.76 1105.89 329.907 1103.75 327.094 1100.95C324.273 1098.15 322.56 1094.76 322.56 1091.74V1060.66C322.56 1054.85 327.699 1046.69 337.894 1045.67C338.756 1045.58 339.514 1046.29 339.514 1047.24Z" stroke="#EBEBEB" stroke-opacity="0.07" stroke-width="1.11913"/>
<path d="M348.448 1104.92L348.448 1100.48C348.448 1099.58 349.207 1098.78 350.237 1098.53C352.319 1098.03 354.056 1096.91 355.276 1095.62C356.482 1094.34 357.24 1092.82 357.24 1091.5C357.24 1090.95 357.24 1089.42 357.24 1087.3C357.24 1079.18 357.241 1062.52 357.24 1060.42C357.239 1059.1 356.354 1057.61 355.114 1056.37C353.853 1055.11 352.126 1054 350.25 1053.46C349.214 1053.16 348.448 1052.34 348.448 1051.43L348.448 1047.24C348.448 1046.29 349.206 1045.59 350.045 1045.71C354.202 1046.27 358.054 1048.41 360.867 1051.21C363.689 1054.01 365.402 1057.4 365.402 1060.42L365.402 1091.5C365.402 1097.31 360.262 1105.47 350.068 1106.49C349.205 1106.58 348.448 1105.87 348.448 1104.92Z" stroke="#EBEBEB" stroke-opacity="0.07" stroke-width="1.11913"/>
<path d="M398.398 1045.56H402.26C402.856 1045.56 403.408 1045.88 403.709 1046.39L437.479 1104.07C438.134 1105.19 437.327 1106.6 436.03 1106.6H431.941C431.343 1106.6 430.79 1106.28 430.489 1105.77L396.946 1048.08C396.296 1046.96 397.103 1045.56 398.398 1045.56Z" stroke="#EBEBEB" stroke-opacity="0.07" stroke-width="1.11913"/>
<path d="M411.446 1090.67L409.404 1087.17C408.754 1086.05 407.142 1086.06 406.499 1087.18L396.92 1103.84C396.277 1104.96 397.084 1106.36 398.375 1106.36H402.487C403.09 1106.36 403.647 1106.04 403.946 1105.51L411.454 1092.34C411.751 1091.82 411.748 1091.18 411.446 1090.67Z" stroke="#EBEBEB" stroke-opacity="0.07" stroke-width="1.11913"/>
<path d="M435.842 1045.56H431.919C431.33 1045.56 430.784 1045.87 430.481 1046.37L422.544 1059.56C422.224 1060.09 422.223 1060.75 422.54 1061.28L424.77 1065.02C425.429 1066.13 427.035 1066.11 427.671 1064.99L437.301 1048.07C437.937 1046.95 437.129 1045.56 435.842 1045.56Z" stroke="#EBEBEB" stroke-opacity="0.07" stroke-width="1.11913"/>
<rect x="469.039" y="1045.56" width="8.65013" height="61.0414" rx="1.6787" stroke="#EBEBEB" stroke-opacity="0.07" stroke-width="1.11913"/>
<rect x="524.939" y="1062.91" width="8.65007" height="43.6942" rx="1.6787" stroke="#EBEBEB" stroke-opacity="0.07" stroke-width="1.11913"/>
<rect x="507.354" y="1045.56" width="44.3078" height="8.51817" rx="1.6787" stroke="#EBEBEB" stroke-opacity="0.07" stroke-width="1.11913"/>
</g>
<g filter="url(#filter7_f_194_189)">
<path d="M505.514 1415.24V1419.68C505.514 1420.58 504.754 1421.39 503.724 1421.63C501.643 1422.13 499.905 1423.25 498.685 1424.54C497.479 1425.82 496.721 1427.34 496.721 1428.66C496.721 1429.21 496.721 1430.74 496.721 1432.86C496.721 1440.98 496.72 1457.64 496.721 1459.74C496.722 1461.06 497.607 1462.55 498.847 1463.79C500.108 1465.05 501.835 1466.16 503.711 1466.7C504.747 1467 505.514 1467.82 505.514 1468.73V1472.92C505.514 1473.87 504.755 1474.57 503.917 1474.45C499.76 1473.89 495.907 1471.75 493.094 1468.95C490.273 1466.15 488.56 1462.76 488.56 1459.74V1428.66C488.56 1422.85 493.699 1414.69 503.894 1413.67C504.756 1413.58 505.514 1414.29 505.514 1415.24Z" stroke="#EBEBEB" stroke-opacity="0.07" stroke-width="1.11913"/>
<path d="M514.448 1472.92L514.448 1468.48C514.448 1467.58 515.207 1466.78 516.237 1466.53C518.319 1466.03 520.056 1464.91 521.276 1463.62C522.482 1462.34 523.24 1460.82 523.24 1459.5C523.24 1458.95 523.24 1457.42 523.24 1455.3C523.24 1447.18 523.241 1430.52 523.24 1428.42C523.239 1427.1 522.354 1425.61 521.114 1424.37C519.853 1423.11 518.126 1422 516.25 1421.46C515.214 1421.16 514.448 1420.34 514.448 1419.43L514.448 1415.24C514.448 1414.29 515.206 1413.59 516.045 1413.71C520.202 1414.27 524.054 1416.41 526.867 1419.21C529.689 1422.01 531.402 1425.4 531.402 1428.42L531.402 1459.5C531.402 1465.31 526.262 1473.47 516.068 1474.49C515.205 1474.58 514.448 1473.87 514.448 1472.92Z" stroke="#EBEBEB" stroke-opacity="0.07" stroke-width="1.11913"/>
<path d="M564.398 1413.56H568.26C568.856 1413.56 569.408 1413.88 569.709 1414.39L603.479 1472.07C604.134 1473.19 603.327 1474.6 602.03 1474.6H597.941C597.343 1474.6 596.79 1474.28 596.489 1473.77L562.946 1416.08C562.296 1414.96 563.103 1413.56 564.398 1413.56Z" stroke="#EBEBEB" stroke-opacity="0.07" stroke-width="1.11913"/>
<path d="M577.446 1458.67L575.404 1455.17C574.754 1454.05 573.142 1454.06 572.499 1455.18L562.92 1471.84C562.277 1472.96 563.084 1474.36 564.375 1474.36H568.487C569.09 1474.36 569.647 1474.04 569.946 1473.51L577.454 1460.34C577.751 1459.82 577.748 1459.18 577.446 1458.67Z" stroke="#EBEBEB" stroke-opacity="0.07" stroke-width="1.11913"/>
<path d="M601.842 1413.56H597.919C597.33 1413.56 596.784 1413.87 596.481 1414.37L588.544 1427.56C588.224 1428.09 588.223 1428.75 588.54 1429.28L590.77 1433.02C591.429 1434.13 593.035 1434.11 593.671 1432.99L603.301 1416.07C603.937 1414.95 603.129 1413.56 601.842 1413.56Z" stroke="#EBEBEB" stroke-opacity="0.07" stroke-width="1.11913"/>
<rect x="635.039" y="1413.56" width="8.65013" height="61.0414" rx="1.6787" stroke="#EBEBEB" stroke-opacity="0.07" stroke-width="1.11913"/>
<rect x="690.939" y="1430.91" width="8.65007" height="43.6942" rx="1.6787" stroke="#EBEBEB" stroke-opacity="0.07" stroke-width="1.11913"/>
<rect x="673.354" y="1413.56" width="44.3078" height="8.51817" rx="1.6787" stroke="#EBEBEB" stroke-opacity="0.07" stroke-width="1.11913"/>
</g>
<g filter="url(#filter8_f_194_189)">
<path d="M1140.51 1135.24V1139.68C1140.51 1140.58 1139.75 1141.39 1138.72 1141.63C1136.64 1142.13 1134.91 1143.25 1133.69 1144.54C1132.48 1145.82 1131.72 1147.34 1131.72 1148.66C1131.72 1149.21 1131.72 1150.74 1131.72 1152.86C1131.72 1160.98 1131.72 1177.64 1131.72 1179.74C1131.72 1181.06 1132.61 1182.55 1133.85 1183.79C1135.11 1185.05 1136.84 1186.16 1138.71 1186.7C1139.75 1187 1140.51 1187.82 1140.51 1188.73V1192.92C1140.51 1193.87 1139.75 1194.57 1138.92 1194.45C1134.76 1193.89 1130.91 1191.75 1128.09 1188.95C1125.27 1186.15 1123.56 1182.76 1123.56 1179.74V1148.66C1123.56 1142.85 1128.7 1134.69 1138.89 1133.67C1139.76 1133.58 1140.51 1134.29 1140.51 1135.24Z" stroke="#EBEBEB" stroke-opacity="0.07" stroke-width="1.11913"/>
<path d="M1149.45 1192.92L1149.45 1188.48C1149.45 1187.58 1150.21 1186.78 1151.24 1186.53C1153.32 1186.03 1155.06 1184.91 1156.28 1183.62C1157.48 1182.34 1158.24 1180.82 1158.24 1179.5C1158.24 1178.95 1158.24 1177.42 1158.24 1175.3C1158.24 1167.18 1158.24 1150.52 1158.24 1148.42C1158.24 1147.1 1157.35 1145.61 1156.11 1144.37C1154.85 1143.11 1153.13 1142 1151.25 1141.46C1150.21 1141.16 1149.45 1140.34 1149.45 1139.43L1149.45 1135.24C1149.45 1134.29 1150.21 1133.59 1151.04 1133.71C1155.2 1134.27 1159.05 1136.41 1161.87 1139.21C1164.69 1142.01 1166.4 1145.4 1166.4 1148.42L1166.4 1179.5C1166.4 1185.31 1161.26 1193.47 1151.07 1194.49C1150.21 1194.58 1149.45 1193.87 1149.45 1192.92Z" stroke="#EBEBEB" stroke-opacity="0.07" stroke-width="1.11913"/>
<path d="M1199.4 1133.56H1203.26C1203.86 1133.56 1204.41 1133.88 1204.71 1134.39L1238.48 1192.07C1239.13 1193.19 1238.33 1194.6 1237.03 1194.6H1232.94C1232.34 1194.6 1231.79 1194.28 1231.49 1193.77L1197.95 1136.08C1197.3 1134.96 1198.1 1133.56 1199.4 1133.56Z" stroke="#EBEBEB" stroke-opacity="0.07" stroke-width="1.11913"/>
<path d="M1212.45 1178.67L1210.4 1175.17C1209.75 1174.05 1208.14 1174.06 1207.5 1175.18L1197.92 1191.84C1197.28 1192.96 1198.08 1194.36 1199.38 1194.36H1203.49C1204.09 1194.36 1204.65 1194.04 1204.95 1193.51L1212.45 1180.34C1212.75 1179.82 1212.75 1179.18 1212.45 1178.67Z" stroke="#EBEBEB" stroke-opacity="0.07" stroke-width="1.11913"/>
<path d="M1236.84 1133.56H1232.92C1232.33 1133.56 1231.78 1133.87 1231.48 1134.37L1223.54 1147.56C1223.22 1148.09 1223.22 1148.75 1223.54 1149.28L1225.77 1153.02C1226.43 1154.13 1228.03 1154.11 1228.67 1152.99L1238.3 1136.07C1238.94 1134.95 1238.13 1133.56 1236.84 1133.56Z" stroke="#EBEBEB" stroke-opacity="0.07" stroke-width="1.11913"/>
<rect x="1270.04" y="1133.56" width="8.65013" height="61.0414" rx="1.6787" stroke="#EBEBEB" stroke-opacity="0.07" stroke-width="1.11913"/>
<rect x="1325.94" y="1150.91" width="8.65007" height="43.6942" rx="1.6787" stroke="#EBEBEB" stroke-opacity="0.07" stroke-width="1.11913"/>
<rect x="1308.35" y="1133.56" width="44.3078" height="8.51817" rx="1.6787" stroke="#EBEBEB" stroke-opacity="0.07" stroke-width="1.11913"/>
</g>
<g filter="url(#filter9_f_194_189)">
<path d="M883.514 1247.24V1251.68C883.514 1252.58 882.754 1253.39 881.724 1253.63C879.643 1254.13 877.905 1255.25 876.685 1256.54C875.479 1257.82 874.721 1259.34 874.721 1260.66C874.721 1261.21 874.721 1262.74 874.721 1264.86C874.721 1272.98 874.72 1289.64 874.721 1291.74C874.722 1293.06 875.607 1294.55 876.847 1295.79C878.108 1297.05 879.835 1298.16 881.711 1298.7C882.747 1299 883.514 1299.82 883.514 1300.73V1304.92C883.514 1305.87 882.755 1306.57 881.917 1306.45C877.76 1305.89 873.907 1303.75 871.094 1300.95C868.273 1298.15 866.56 1294.76 866.56 1291.74V1260.66C866.56 1254.85 871.699 1246.69 881.894 1245.67C882.756 1245.58 883.514 1246.29 883.514 1247.24Z" stroke="#EBEBEB" stroke-opacity="0.07" stroke-width="1.11913"/>
<path d="M892.448 1304.92L892.448 1300.48C892.448 1299.58 893.207 1298.78 894.237 1298.53C896.319 1298.03 898.056 1296.91 899.276 1295.62C900.482 1294.34 901.24 1292.82 901.24 1291.5C901.24 1290.95 901.24 1289.42 901.24 1287.3C901.24 1279.18 901.241 1262.52 901.24 1260.42C901.239 1259.1 900.354 1257.61 899.114 1256.37C897.853 1255.11 896.126 1254 894.25 1253.46C893.214 1253.16 892.448 1252.34 892.448 1251.43L892.448 1247.24C892.448 1246.29 893.206 1245.59 894.045 1245.71C898.202 1246.27 902.054 1248.41 904.867 1251.21C907.689 1254.01 909.402 1257.4 909.402 1260.42L909.402 1291.5C909.402 1297.31 904.262 1305.47 894.068 1306.49C893.205 1306.58 892.448 1305.87 892.448 1304.92Z" stroke="#EBEBEB" stroke-opacity="0.07" stroke-width="1.11913"/>
<path d="M942.398 1245.56H946.26C946.856 1245.56 947.408 1245.88 947.709 1246.39L981.479 1304.07C982.134 1305.19 981.327 1306.6 980.03 1306.6H975.941C975.343 1306.6 974.79 1306.28 974.489 1305.77L940.946 1248.08C940.296 1246.96 941.103 1245.56 942.398 1245.56Z" stroke="#EBEBEB" stroke-opacity="0.07" stroke-width="1.11913"/>
<path d="M955.446 1290.67L953.404 1287.17C952.754 1286.05 951.142 1286.06 950.499 1287.18L940.92 1303.84C940.277 1304.96 941.084 1306.36 942.375 1306.36H946.487C947.09 1306.36 947.647 1306.04 947.946 1305.51L955.454 1292.34C955.751 1291.82 955.748 1291.18 955.446 1290.67Z" stroke="#EBEBEB" stroke-opacity="0.07" stroke-width="1.11913"/>
<path d="M979.842 1245.56H975.919C975.33 1245.56 974.784 1245.87 974.481 1246.37L966.544 1259.56C966.224 1260.09 966.223 1260.75 966.54 1261.28L968.77 1265.02C969.429 1266.13 971.035 1266.11 971.671 1264.99L981.301 1248.07C981.937 1246.95 981.129 1245.56 979.842 1245.56Z" stroke="#EBEBEB" stroke-opacity="0.07" stroke-width="1.11913"/>
<rect x="1013.04" y="1245.56" width="8.65013" height="61.0414" rx="1.6787" stroke="#EBEBEB" stroke-opacity="0.07" stroke-width="1.11913"/>
<rect x="1068.94" y="1262.91" width="8.65007" height="43.6942" rx="1.6787" stroke="#EBEBEB" stroke-opacity="0.07" stroke-width="1.11913"/>
<rect x="1051.35" y="1245.56" width="44.3078" height="8.51817" rx="1.6787" stroke="#EBEBEB" stroke-opacity="0.07" stroke-width="1.11913"/>
</g>
<g filter="url(#filter10_f_194_189)">
<path d="M65.5135 804.238V808.676C65.5135 809.58 64.7541 810.385 63.7243 810.632C61.6426 811.131 59.9052 812.25 58.6851 813.545C57.4788 814.825 56.7212 816.341 56.7212 817.661C56.7212 818.208 56.7212 819.745 56.7211 821.861C56.7209 829.981 56.7205 846.639 56.7212 848.741C56.7217 850.064 57.6073 851.551 58.8472 852.791C60.1085 854.053 61.8351 855.162 63.7112 855.701C64.7475 855.998 65.5135 856.82 65.5135 857.725V861.922C65.5135 862.873 64.7548 863.568 63.9165 863.453C59.7596 862.888 55.9074 860.745 53.0944 857.952C50.2727 855.151 48.5596 851.761 48.5596 848.741V817.661C48.5596 811.85 53.6989 803.693 63.8935 802.667C64.756 802.58 65.5135 803.294 65.5135 804.238Z" stroke="#EBEBEB" stroke-opacity="0.07" stroke-width="1.11913"/>
<path d="M74.4477 861.922L74.4477 857.484C74.4477 856.58 75.2071 855.775 76.2369 855.528C78.3186 855.029 80.056 853.91 81.2761 852.615C82.4824 851.335 83.24 849.82 83.24 848.5C83.24 847.952 83.24 846.416 83.2401 844.3C83.2403 836.18 83.2407 819.522 83.24 817.419C83.2395 816.096 82.3539 814.609 81.114 813.369C79.8527 812.107 78.126 810.998 76.25 810.46C75.2137 810.162 74.4477 809.341 74.4477 808.435L74.4477 804.238C74.4477 803.288 75.2064 802.593 76.0446 802.707C80.2016 803.272 84.0538 805.415 86.8668 808.208C89.6885 811.009 91.4016 814.399 91.4016 817.419L91.4016 848.5C91.4016 854.31 86.2622 862.467 76.0677 863.493C75.2052 863.58 74.4477 862.866 74.4477 861.922Z" stroke="#EBEBEB" stroke-opacity="0.07" stroke-width="1.11913"/>
<path d="M124.398 802.56H128.26C128.856 802.56 129.408 802.876 129.709 803.39L163.479 861.074C164.134 862.193 163.327 863.601 162.03 863.601H157.941C157.343 863.601 156.79 863.283 156.489 862.766L122.946 805.082C122.296 803.963 123.103 802.56 124.398 802.56Z" stroke="#EBEBEB" stroke-opacity="0.07" stroke-width="1.11913"/>
<path d="M137.446 847.666L135.404 844.168C134.754 843.054 133.142 843.06 132.499 844.178L122.92 860.844C122.277 861.964 123.084 863.36 124.375 863.36H128.487C129.09 863.36 129.647 863.036 129.946 862.513L137.454 849.344C137.751 848.824 137.748 848.184 137.446 847.666Z" stroke="#EBEBEB" stroke-opacity="0.07" stroke-width="1.11913"/>
<path d="M161.842 802.56H157.919C157.33 802.56 156.784 802.868 156.481 803.373L148.544 816.559C148.224 817.09 148.223 817.753 148.54 818.285L150.77 822.025C151.429 823.129 153.035 823.113 153.671 821.995L163.301 805.068C163.937 803.949 163.129 802.56 161.842 802.56Z" stroke="#EBEBEB" stroke-opacity="0.07" stroke-width="1.11913"/>
<rect x="195.039" y="802.56" width="8.65013" height="61.0414" rx="1.6787" stroke="#EBEBEB" stroke-opacity="0.07" stroke-width="1.11913"/>
<rect x="250.939" y="819.907" width="8.65007" height="43.6942" rx="1.6787" stroke="#EBEBEB" stroke-opacity="0.07" stroke-width="1.11913"/>
<rect x="233.354" y="802.56" width="44.3078" height="8.51817" rx="1.6787" stroke="#EBEBEB" stroke-opacity="0.07" stroke-width="1.11913"/>
</g>
<g filter="url(#filter11_f_194_189)">
<path d="M844.514 823.238V827.676C844.514 828.58 843.754 829.385 842.724 829.632C840.643 830.131 838.905 831.25 837.685 832.545C836.479 833.825 835.721 835.341 835.721 836.661C835.721 837.208 835.721 838.745 835.721 840.861C835.721 848.981 835.72 865.639 835.721 867.741C835.722 869.064 836.607 870.551 837.847 871.791C839.108 873.053 840.835 874.162 842.711 874.701C843.747 874.998 844.514 875.82 844.514 876.725V880.922C844.514 881.873 843.755 882.568 842.917 882.453C838.76 881.888 834.907 879.745 832.094 876.952C829.273 874.151 827.56 870.761 827.56 867.741V836.661C827.56 830.85 832.699 822.693 842.894 821.667C843.756 821.58 844.514 822.294 844.514 823.238Z" stroke="#EBEBEB" stroke-opacity="0.07" stroke-width="1.11913"/>
<path d="M853.448 880.922L853.448 876.484C853.448 875.58 854.207 874.775 855.237 874.528C857.319 874.029 859.056 872.91 860.276 871.615C861.482 870.335 862.24 868.82 862.24 867.5C862.24 866.952 862.24 865.416 862.24 863.3C862.24 855.18 862.241 838.522 862.24 836.419C862.239 835.096 861.354 833.609 860.114 832.369C858.853 831.107 857.126 829.998 855.25 829.46C854.214 829.162 853.448 828.341 853.448 827.435L853.448 823.238C853.448 822.288 854.206 821.593 855.045 821.707C859.202 822.272 863.054 824.415 865.867 827.208C868.689 830.009 870.402 833.399 870.402 836.419L870.402 867.5C870.402 873.31 865.262 881.467 855.068 882.493C854.205 882.58 853.448 881.866 853.448 880.922Z" stroke="#EBEBEB" stroke-opacity="0.07" stroke-width="1.11913"/>
<path d="M903.398 821.56H907.26C907.856 821.56 908.408 821.876 908.709 822.39L942.479 880.074C943.134 881.193 942.327 882.601 941.03 882.601H936.941C936.343 882.601 935.79 882.283 935.489 881.766L901.946 824.082C901.296 822.963 902.103 821.56 903.398 821.56Z" stroke="#EBEBEB" stroke-opacity="0.07" stroke-width="1.11913"/>
<path d="M916.446 866.666L914.404 863.168C913.754 862.054 912.142 862.06 911.499 863.178L901.92 879.844C901.277 880.964 902.084 882.36 903.375 882.36H907.487C908.09 882.36 908.647 882.036 908.946 881.513L916.454 868.344C916.751 867.824 916.748 867.184 916.446 866.666Z" stroke="#EBEBEB" stroke-opacity="0.07" stroke-width="1.11913"/>
<path d="M940.842 821.56H936.919C936.33 821.56 935.784 821.868 935.481 822.373L927.544 835.559C927.224 836.09 927.223 836.753 927.54 837.285L929.77 841.025C930.429 842.129 932.035 842.113 932.671 840.995L942.301 824.068C942.937 822.949 942.129 821.56 940.842 821.56Z" stroke="#EBEBEB" stroke-opacity="0.07" stroke-width="1.11913"/>
<rect x="974.039" y="821.56" width="8.65013" height="61.0414" rx="1.6787" stroke="#EBEBEB" stroke-opacity="0.07" stroke-width="1.11913"/>
<rect x="1029.94" y="838.907" width="8.65007" height="43.6942" rx="1.6787" stroke="#EBEBEB" stroke-opacity="0.07" stroke-width="1.11913"/>
<rect x="1012.35" y="821.56" width="44.3078" height="8.51817" rx="1.6787" stroke="#EBEBEB" stroke-opacity="0.07" stroke-width="1.11913"/>
</g>
<g filter="url(#filter12_f_194_189)">
<path d="M339.514 1812.24V1816.68C339.514 1817.58 338.754 1818.39 337.724 1818.63C335.643 1819.13 333.905 1820.25 332.685 1821.54C331.479 1822.82 330.721 1824.34 330.721 1825.66C330.721 1826.21 330.721 1827.74 330.721 1829.86C330.721 1837.98 330.72 1854.64 330.721 1856.74C330.722 1858.06 331.607 1859.55 332.847 1860.79C334.108 1862.05 335.835 1863.16 337.711 1863.7C338.747 1864 339.514 1864.82 339.514 1865.73V1869.92C339.514 1870.87 338.755 1871.57 337.917 1871.45C333.76 1870.89 329.907 1868.75 327.094 1865.95C324.273 1863.15 322.56 1859.76 322.56 1856.74V1825.66C322.56 1819.85 327.699 1811.69 337.894 1810.67C338.756 1810.58 339.514 1811.29 339.514 1812.24Z" stroke="#EBEBEB" stroke-opacity="0.07" stroke-width="1.11913"/>
<path d="M348.448 1869.92L348.448 1865.48C348.448 1864.58 349.207 1863.78 350.237 1863.53C352.319 1863.03 354.056 1861.91 355.276 1860.62C356.482 1859.34 357.24 1857.82 357.24 1856.5C357.24 1855.95 357.24 1854.42 357.24 1852.3C357.24 1844.18 357.241 1827.52 357.24 1825.42C357.239 1824.1 356.354 1822.61 355.114 1821.37C353.853 1820.11 352.126 1819 350.25 1818.46C349.214 1818.16 348.448 1817.34 348.448 1816.43L348.448 1812.24C348.448 1811.29 349.206 1810.59 350.045 1810.71C354.202 1811.27 358.054 1813.41 360.867 1816.21C363.689 1819.01 365.402 1822.4 365.402 1825.42L365.402 1856.5C365.402 1862.31 360.262 1870.47 350.068 1871.49C349.205 1871.58 348.448 1870.87 348.448 1869.92Z" stroke="#EBEBEB" stroke-opacity="0.07" stroke-width="1.11913"/>
<path d="M398.398 1810.56H402.26C402.856 1810.56 403.408 1810.88 403.709 1811.39L437.479 1869.07C438.134 1870.19 437.327 1871.6 436.03 1871.6H431.941C431.343 1871.6 430.79 1871.28 430.489 1870.77L396.946 1813.08C396.296 1811.96 397.103 1810.56 398.398 1810.56Z" stroke="#EBEBEB" stroke-opacity="0.07" stroke-width="1.11913"/>
<path d="M411.446 1855.67L409.404 1852.17C408.754 1851.05 407.142 1851.06 406.499 1852.18L396.92 1868.84C396.277 1869.96 397.084 1871.36 398.375 1871.36H402.487C403.09 1871.36 403.647 1871.04 403.946 1870.51L411.454 1857.34C411.751 1856.82 411.748 1856.18 411.446 1855.67Z" stroke="#EBEBEB" stroke-opacity="0.07" stroke-width="1.11913"/>
<path d="M435.842 1810.56H431.919C431.33 1810.56 430.784 1810.87 430.481 1811.37L422.544 1824.56C422.224 1825.09 422.223 1825.75 422.54 1826.28L424.77 1830.02C425.429 1831.13 427.035 1831.11 427.671 1829.99L437.301 1813.07C437.937 1811.95 437.129 1810.56 435.842 1810.56Z" stroke="#EBEBEB" stroke-opacity="0.07" stroke-width="1.11913"/>
<rect x="469.039" y="1810.56" width="8.65013" height="61.0414" rx="1.6787" stroke="#EBEBEB" stroke-opacity="0.07" stroke-width="1.11913"/>
<rect x="524.939" y="1827.91" width="8.65007" height="43.6942" rx="1.6787" stroke="#EBEBEB" stroke-opacity="0.07" stroke-width="1.11913"/>
<rect x="507.354" y="1810.56" width="44.3078" height="8.51817" rx="1.6787" stroke="#EBEBEB" stroke-opacity="0.07" stroke-width="1.11913"/>
</g>
<g filter="url(#filter13_f_194_189)">
<path d="M505.514 2180.24V2184.68C505.514 2185.58 504.754 2186.39 503.724 2186.63C501.643 2187.13 499.905 2188.25 498.685 2189.54C497.479 2190.82 496.721 2192.34 496.721 2193.66C496.721 2194.21 496.721 2195.74 496.721 2197.86C496.721 2205.98 496.72 2222.64 496.721 2224.74C496.722 2226.06 497.607 2227.55 498.847 2228.79C500.108 2230.05 501.835 2231.16 503.711 2231.7C504.747 2232 505.514 2232.82 505.514 2233.73V2237.92C505.514 2238.87 504.755 2239.57 503.917 2239.45C499.76 2238.89 495.907 2236.75 493.094 2233.95C490.273 2231.15 488.56 2227.76 488.56 2224.74V2193.66C488.56 2187.85 493.699 2179.69 503.894 2178.67C504.756 2178.58 505.514 2179.29 505.514 2180.24Z" stroke="#EBEBEB" stroke-opacity="0.07" stroke-width="1.11913"/>
<path d="M514.448 2237.92L514.448 2233.48C514.448 2232.58 515.207 2231.78 516.237 2231.53C518.319 2231.03 520.056 2229.91 521.276 2228.62C522.482 2227.34 523.24 2225.82 523.24 2224.5C523.24 2223.95 523.24 2222.42 523.24 2220.3C523.24 2212.18 523.241 2195.52 523.24 2193.42C523.239 2192.1 522.354 2190.61 521.114 2189.37C519.853 2188.11 518.126 2187 516.25 2186.46C515.214 2186.16 514.448 2185.34 514.448 2184.43L514.448 2180.24C514.448 2179.29 515.206 2178.59 516.045 2178.71C520.202 2179.27 524.054 2181.41 526.867 2184.21C529.689 2187.01 531.402 2190.4 531.402 2193.42L531.402 2224.5C531.402 2230.31 526.262 2238.47 516.068 2239.49C515.205 2239.58 514.448 2238.87 514.448 2237.92Z" stroke="#EBEBEB" stroke-opacity="0.07" stroke-width="1.11913"/>
<path d="M564.398 2178.56H568.26C568.856 2178.56 569.408 2178.88 569.709 2179.39L603.479 2237.07C604.134 2238.19 603.327 2239.6 602.03 2239.6H597.941C597.343 2239.6 596.79 2239.28 596.489 2238.77L562.946 2181.08C562.296 2179.96 563.103 2178.56 564.398 2178.56Z" stroke="#EBEBEB" stroke-opacity="0.07" stroke-width="1.11913"/>
<path d="M577.446 2223.67L575.404 2220.17C574.754 2219.05 573.142 2219.06 572.499 2220.18L562.92 2236.84C562.277 2237.96 563.084 2239.36 564.375 2239.36H568.487C569.09 2239.36 569.647 2239.04 569.946 2238.51L577.454 2225.34C577.751 2224.82 577.748 2224.18 577.446 2223.67Z" stroke="#EBEBEB" stroke-opacity="0.07" stroke-width="1.11913"/>
<path d="M601.842 2178.56H597.919C597.33 2178.56 596.784 2178.87 596.481 2179.37L588.544 2192.56C588.224 2193.09 588.223 2193.75 588.54 2194.28L590.77 2198.02C591.429 2199.13 593.035 2199.11 593.671 2197.99L603.301 2181.07C603.937 2179.95 603.129 2178.56 601.842 2178.56Z" stroke="#EBEBEB" stroke-opacity="0.07" stroke-width="1.11913"/>
<rect x="635.039" y="2178.56" width="8.65013" height="61.0414" rx="1.6787" stroke="#EBEBEB" stroke-opacity="0.07" stroke-width="1.11913"/>
<rect x="690.939" y="2195.91" width="8.65007" height="43.6942" rx="1.6787" stroke="#EBEBEB" stroke-opacity="0.07" stroke-width="1.11913"/>
<rect x="673.354" y="2178.56" width="44.3078" height="8.51817" rx="1.6787" stroke="#EBEBEB" stroke-opacity="0.07" stroke-width="1.11913"/>
</g>
<g filter="url(#filter14_f_194_189)">
<path d="M1140.51 1900.24V1904.68C1140.51 1905.58 1139.75 1906.39 1138.72 1906.63C1136.64 1907.13 1134.91 1908.25 1133.69 1909.54C1132.48 1910.82 1131.72 1912.34 1131.72 1913.66C1131.72 1914.21 1131.72 1915.74 1131.72 1917.86C1131.72 1925.98 1131.72 1942.64 1131.72 1944.74C1131.72 1946.06 1132.61 1947.55 1133.85 1948.79C1135.11 1950.05 1136.84 1951.16 1138.71 1951.7C1139.75 1952 1140.51 1952.82 1140.51 1953.73V1957.92C1140.51 1958.87 1139.75 1959.57 1138.92 1959.45C1134.76 1958.89 1130.91 1956.75 1128.09 1953.95C1125.27 1951.15 1123.56 1947.76 1123.56 1944.74V1913.66C1123.56 1907.85 1128.7 1899.69 1138.89 1898.67C1139.76 1898.58 1140.51 1899.29 1140.51 1900.24Z" stroke="#EBEBEB" stroke-opacity="0.07" stroke-width="1.11913"/>
<path d="M1149.45 1957.92L1149.45 1953.48C1149.45 1952.58 1150.21 1951.78 1151.24 1951.53C1153.32 1951.03 1155.06 1949.91 1156.28 1948.62C1157.48 1947.34 1158.24 1945.82 1158.24 1944.5C1158.24 1943.95 1158.24 1942.42 1158.24 1940.3C1158.24 1932.18 1158.24 1915.52 1158.24 1913.42C1158.24 1912.1 1157.35 1910.61 1156.11 1909.37C1154.85 1908.11 1153.13 1907 1151.25 1906.46C1150.21 1906.16 1149.45 1905.34 1149.45 1904.43L1149.45 1900.24C1149.45 1899.29 1150.21 1898.59 1151.04 1898.71C1155.2 1899.27 1159.05 1901.41 1161.87 1904.21C1164.69 1907.01 1166.4 1910.4 1166.4 1913.42L1166.4 1944.5C1166.4 1950.31 1161.26 1958.47 1151.07 1959.49C1150.21 1959.58 1149.45 1958.87 1149.45 1957.92Z" stroke="#EBEBEB" stroke-opacity="0.07" stroke-width="1.11913"/>
<path d="M1199.4 1898.56H1203.26C1203.86 1898.56 1204.41 1898.88 1204.71 1899.39L1238.48 1957.07C1239.13 1958.19 1238.33 1959.6 1237.03 1959.6H1232.94C1232.34 1959.6 1231.79 1959.28 1231.49 1958.77L1197.95 1901.08C1197.3 1899.96 1198.1 1898.56 1199.4 1898.56Z" stroke="#EBEBEB" stroke-opacity="0.07" stroke-width="1.11913"/>
<path d="M1212.45 1943.67L1210.4 1940.17C1209.75 1939.05 1208.14 1939.06 1207.5 1940.18L1197.92 1956.84C1197.28 1957.96 1198.08 1959.36 1199.38 1959.36H1203.49C1204.09 1959.36 1204.65 1959.04 1204.95 1958.51L1212.45 1945.34C1212.75 1944.82 1212.75 1944.18 1212.45 1943.67Z" stroke="#EBEBEB" stroke-opacity="0.07" stroke-width="1.11913"/>
<path d="M1236.84 1898.56H1232.92C1232.33 1898.56 1231.78 1898.87 1231.48 1899.37L1223.54 1912.56C1223.22 1913.09 1223.22 1913.75 1223.54 1914.28L1225.77 1918.02C1226.43 1919.13 1228.03 1919.11 1228.67 1917.99L1238.3 1901.07C1238.94 1899.95 1238.13 1898.56 1236.84 1898.56Z" stroke="#EBEBEB" stroke-opacity="0.07" stroke-width="1.11913"/>
<rect x="1270.04" y="1898.56" width="8.65013" height="61.0414" rx="1.6787" stroke="#EBEBEB" stroke-opacity="0.07" stroke-width="1.11913"/>
<rect x="1325.94" y="1915.91" width="8.65007" height="43.6942" rx="1.6787" stroke="#EBEBEB" stroke-opacity="0.07" stroke-width="1.11913"/>
<rect x="1308.35" y="1898.56" width="44.3078" height="8.51817" rx="1.6787" stroke="#EBEBEB" stroke-opacity="0.07" stroke-width="1.11913"/>
</g>
<g filter="url(#filter15_f_194_189)">
<path d="M883.514 2012.24V2016.68C883.514 2017.58 882.754 2018.39 881.724 2018.63C879.643 2019.13 877.905 2020.25 876.685 2021.54C875.479 2022.82 874.721 2024.34 874.721 2025.66C874.721 2026.21 874.721 2027.74 874.721 2029.86C874.721 2037.98 874.72 2054.64 874.721 2056.74C874.722 2058.06 875.607 2059.55 876.847 2060.79C878.108 2062.05 879.835 2063.16 881.711 2063.7C882.747 2064 883.514 2064.82 883.514 2065.73V2069.92C883.514 2070.87 882.755 2071.57 881.917 2071.45C877.76 2070.89 873.907 2068.75 871.094 2065.95C868.273 2063.15 866.56 2059.76 866.56 2056.74V2025.66C866.56 2019.85 871.699 2011.69 881.894 2010.67C882.756 2010.58 883.514 2011.29 883.514 2012.24Z" stroke="#EBEBEB" stroke-opacity="0.07" stroke-width="1.11913"/>
<path d="M892.448 2069.92L892.448 2065.48C892.448 2064.58 893.207 2063.78 894.237 2063.53C896.319 2063.03 898.056 2061.91 899.276 2060.62C900.482 2059.34 901.24 2057.82 901.24 2056.5C901.24 2055.95 901.24 2054.42 901.24 2052.3C901.24 2044.18 901.241 2027.52 901.24 2025.42C901.239 2024.1 900.354 2022.61 899.114 2021.37C897.853 2020.11 896.126 2019 894.25 2018.46C893.214 2018.16 892.448 2017.34 892.448 2016.43L892.448 2012.24C892.448 2011.29 893.206 2010.59 894.045 2010.71C898.202 2011.27 902.054 2013.41 904.867 2016.21C907.689 2019.01 909.402 2022.4 909.402 2025.42L909.402 2056.5C909.402 2062.31 904.262 2070.47 894.068 2071.49C893.205 2071.58 892.448 2070.87 892.448 2069.92Z" stroke="#EBEBEB" stroke-opacity="0.07" stroke-width="1.11913"/>
<path d="M942.398 2010.56H946.26C946.856 2010.56 947.408 2010.88 947.709 2011.39L981.479 2069.07C982.134 2070.19 981.327 2071.6 980.03 2071.6H975.941C975.343 2071.6 974.79 2071.28 974.489 2070.77L940.946 2013.08C940.296 2011.96 941.103 2010.56 942.398 2010.56Z" stroke="#EBEBEB" stroke-opacity="0.07" stroke-width="1.11913"/>
<path d="M955.446 2055.67L953.404 2052.17C952.754 2051.05 951.142 2051.06 950.499 2052.18L940.92 2068.84C940.277 2069.96 941.084 2071.36 942.375 2071.36H946.487C947.09 2071.36 947.647 2071.04 947.946 2070.51L955.454 2057.34C955.751 2056.82 955.748 2056.18 955.446 2055.67Z" stroke="#EBEBEB" stroke-opacity="0.07" stroke-width="1.11913"/>
<path d="M979.842 2010.56H975.919C975.33 2010.56 974.784 2010.87 974.481 2011.37L966.544 2024.56C966.224 2025.09 966.223 2025.75 966.54 2026.28L968.77 2030.02C969.429 2031.13 971.035 2031.11 971.671 2029.99L981.301 2013.07C981.937 2011.95 981.129 2010.56 979.842 2010.56Z" stroke="#EBEBEB" stroke-opacity="0.07" stroke-width="1.11913"/>
<rect x="1013.04" y="2010.56" width="8.65013" height="61.0414" rx="1.6787" stroke="#EBEBEB" stroke-opacity="0.07" stroke-width="1.11913"/>
<rect x="1068.94" y="2027.91" width="8.65007" height="43.6942" rx="1.6787" stroke="#EBEBEB" stroke-opacity="0.07" stroke-width="1.11913"/>
<rect x="1051.35" y="2010.56" width="44.3078" height="8.51817" rx="1.6787" stroke="#EBEBEB" stroke-opacity="0.07" stroke-width="1.11913"/>
</g>
<g filter="url(#filter16_f_194_189)">
<path d="M65.5135 1569.24V1573.68C65.5135 1574.58 64.7541 1575.39 63.7243 1575.63C61.6426 1576.13 59.9052 1577.25 58.6851 1578.54C57.4788 1579.82 56.7212 1581.34 56.7212 1582.66C56.7212 1583.21 56.7212 1584.74 56.7211 1586.86C56.7209 1594.98 56.7205 1611.64 56.7212 1613.74C56.7217 1615.06 57.6073 1616.55 58.8472 1617.79C60.1085 1619.05 61.8351 1620.16 63.7112 1620.7C64.7475 1621 65.5135 1621.82 65.5135 1622.73V1626.92C65.5135 1627.87 64.7548 1628.57 63.9165 1628.45C59.7596 1627.89 55.9074 1625.75 53.0944 1622.95C50.2727 1620.15 48.5596 1616.76 48.5596 1613.74V1582.66C48.5596 1576.85 53.6989 1568.69 63.8935 1567.67C64.756 1567.58 65.5135 1568.29 65.5135 1569.24Z" stroke="#EBEBEB" stroke-opacity="0.07" stroke-width="1.11913"/>
<path d="M74.4477 1626.92L74.4477 1622.48C74.4477 1621.58 75.2071 1620.78 76.2369 1620.53C78.3186 1620.03 80.056 1618.91 81.2761 1617.62C82.4824 1616.34 83.24 1614.82 83.24 1613.5C83.24 1612.95 83.24 1611.42 83.2401 1609.3C83.2403 1601.18 83.2407 1584.52 83.24 1582.42C83.2395 1581.1 82.3539 1579.61 81.114 1578.37C79.8527 1577.11 78.126 1576 76.25 1575.46C75.2137 1575.16 74.4477 1574.34 74.4477 1573.43L74.4477 1569.24C74.4477 1568.29 75.2064 1567.59 76.0446 1567.71C80.2016 1568.27 84.0538 1570.41 86.8668 1573.21C89.6885 1576.01 91.4016 1579.4 91.4016 1582.42L91.4016 1613.5C91.4016 1619.31 86.2622 1627.47 76.0677 1628.49C75.2052 1628.58 74.4477 1627.87 74.4477 1626.92Z" stroke="#EBEBEB" stroke-opacity="0.07" stroke-width="1.11913"/>
<path d="M124.398 1567.56H128.26C128.856 1567.56 129.408 1567.88 129.709 1568.39L163.479 1626.07C164.134 1627.19 163.327 1628.6 162.03 1628.6H157.941C157.343 1628.6 156.79 1628.28 156.489 1627.77L122.946 1570.08C122.296 1568.96 123.103 1567.56 124.398 1567.56Z" stroke="#EBEBEB" stroke-opacity="0.07" stroke-width="1.11913"/>
<path d="M137.446 1612.67L135.404 1609.17C134.754 1608.05 133.142 1608.06 132.499 1609.18L122.92 1625.84C122.277 1626.96 123.084 1628.36 124.375 1628.36H128.487C129.09 1628.36 129.647 1628.04 129.946 1627.51L137.454 1614.34C137.751 1613.82 137.748 1613.18 137.446 1612.67Z" stroke="#EBEBEB" stroke-opacity="0.07" stroke-width="1.11913"/>
<path d="M161.842 1567.56H157.919C157.33 1567.56 156.784 1567.87 156.481 1568.37L148.544 1581.56C148.224 1582.09 148.223 1582.75 148.54 1583.28L150.77 1587.02C151.429 1588.13 153.035 1588.11 153.671 1586.99L163.301 1570.07C163.937 1568.95 163.129 1567.56 161.842 1567.56Z" stroke="#EBEBEB" stroke-opacity="0.07" stroke-width="1.11913"/>
<rect x="195.039" y="1567.56" width="8.65013" height="61.0414" rx="1.6787" stroke="#EBEBEB" stroke-opacity="0.07" stroke-width="1.11913"/>
<rect x="250.939" y="1584.91" width="8.65007" height="43.6942" rx="1.6787" stroke="#EBEBEB" stroke-opacity="0.07" stroke-width="1.11913"/>
<rect x="233.354" y="1567.56" width="44.3078" height="8.51817" rx="1.6787" stroke="#EBEBEB" stroke-opacity="0.07" stroke-width="1.11913"/>
</g>
<g filter="url(#filter17_f_194_189)">
<path d="M844.514 1588.24V1592.68C844.514 1593.58 843.754 1594.39 842.724 1594.63C840.643 1595.13 838.905 1596.25 837.685 1597.54C836.479 1598.82 835.721 1600.34 835.721 1601.66C835.721 1602.21 835.721 1603.74 835.721 1605.86C835.721 1613.98 835.72 1630.64 835.721 1632.74C835.722 1634.06 836.607 1635.55 837.847 1636.79C839.108 1638.05 840.835 1639.16 842.711 1639.7C843.747 1640 844.514 1640.82 844.514 1641.73V1645.92C844.514 1646.87 843.755 1647.57 842.917 1647.45C838.76 1646.89 834.907 1644.75 832.094 1641.95C829.273 1639.15 827.56 1635.76 827.56 1632.74V1601.66C827.56 1595.85 832.699 1587.69 842.894 1586.67C843.756 1586.58 844.514 1587.29 844.514 1588.24Z" stroke="#EBEBEB" stroke-opacity="0.07" stroke-width="1.11913"/>
<path d="M853.448 1645.92L853.448 1641.48C853.448 1640.58 854.207 1639.78 855.237 1639.53C857.319 1639.03 859.056 1637.91 860.276 1636.62C861.482 1635.34 862.24 1633.82 862.24 1632.5C862.24 1631.95 862.24 1630.42 862.24 1628.3C862.24 1620.18 862.241 1603.52 862.24 1601.42C862.239 1600.1 861.354 1598.61 860.114 1597.37C858.853 1596.11 857.126 1595 855.25 1594.46C854.214 1594.16 853.448 1593.34 853.448 1592.43L853.448 1588.24C853.448 1587.29 854.206 1586.59 855.045 1586.71C859.202 1587.27 863.054 1589.41 865.867 1592.21C868.689 1595.01 870.402 1598.4 870.402 1601.42L870.402 1632.5C870.402 1638.31 865.262 1646.47 855.068 1647.49C854.205 1647.58 853.448 1646.87 853.448 1645.92Z" stroke="#EBEBEB" stroke-opacity="0.07" stroke-width="1.11913"/>
<path d="M903.398 1586.56H907.26C907.856 1586.56 908.408 1586.88 908.709 1587.39L942.479 1645.07C943.134 1646.19 942.327 1647.6 941.03 1647.6H936.941C936.343 1647.6 935.79 1647.28 935.489 1646.77L901.946 1589.08C901.296 1587.96 902.103 1586.56 903.398 1586.56Z" stroke="#EBEBEB" stroke-opacity="0.07" stroke-width="1.11913"/>
<path d="M916.446 1631.67L914.404 1628.17C913.754 1627.05 912.142 1627.06 911.499 1628.18L901.92 1644.84C901.277 1645.96 902.084 1647.36 903.375 1647.36H907.487C908.09 1647.36 908.647 1647.04 908.946 1646.51L916.454 1633.34C916.751 1632.82 916.748 1632.18 916.446 1631.67Z" stroke="#EBEBEB" stroke-opacity="0.07" stroke-width="1.11913"/>
<path d="M940.842 1586.56H936.919C936.33 1586.56 935.784 1586.87 935.481 1587.37L927.544 1600.56C927.224 1601.09 927.223 1601.75 927.54 1602.28L929.77 1606.02C930.429 1607.13 932.035 1607.11 932.671 1605.99L942.301 1589.07C942.937 1587.95 942.129 1586.56 940.842 1586.56Z" stroke="#EBEBEB" stroke-opacity="0.07" stroke-width="1.11913"/>
<rect x="974.039" y="1586.56" width="8.65013" height="61.0414" rx="1.6787" stroke="#EBEBEB" stroke-opacity="0.07" stroke-width="1.11913"/>
<rect x="1029.94" y="1603.91" width="8.65007" height="43.6942" rx="1.6787" stroke="#EBEBEB" stroke-opacity="0.07" stroke-width="1.11913"/>
<rect x="1012.35" y="1586.56" width="44.3078" height="8.51817" rx="1.6787" stroke="#EBEBEB" stroke-opacity="0.07" stroke-width="1.11913"/>
</g>
<g filter="url(#filter18_f_194_189)">
<path d="M339.514 2577.24V2581.68C339.514 2582.58 338.754 2583.39 337.724 2583.63C335.643 2584.13 333.905 2585.25 332.685 2586.54C331.479 2587.82 330.721 2589.34 330.721 2590.66C330.721 2591.21 330.721 2592.74 330.721 2594.86C330.721 2602.98 330.72 2619.64 330.721 2621.74C330.722 2623.06 331.607 2624.55 332.847 2625.79C334.108 2627.05 335.835 2628.16 337.711 2628.7C338.747 2629 339.514 2629.82 339.514 2630.73V2634.92C339.514 2635.87 338.755 2636.57 337.917 2636.45C333.76 2635.89 329.907 2633.75 327.094 2630.95C324.273 2628.15 322.56 2624.76 322.56 2621.74V2590.66C322.56 2584.85 327.699 2576.69 337.894 2575.67C338.756 2575.58 339.514 2576.29 339.514 2577.24Z" stroke="#EBEBEB" stroke-opacity="0.07" stroke-width="1.11913"/>
<path d="M348.448 2634.92L348.448 2630.48C348.448 2629.58 349.207 2628.78 350.237 2628.53C352.319 2628.03 354.056 2626.91 355.276 2625.62C356.482 2624.34 357.24 2622.82 357.24 2621.5C357.24 2620.95 357.24 2619.42 357.24 2617.3C357.24 2609.18 357.241 2592.52 357.24 2590.42C357.239 2589.1 356.354 2587.61 355.114 2586.37C353.853 2585.11 352.126 2584 350.25 2583.46C349.214 2583.16 348.448 2582.34 348.448 2581.43L348.448 2577.24C348.448 2576.29 349.206 2575.59 350.045 2575.71C354.202 2576.27 358.054 2578.41 360.867 2581.21C363.689 2584.01 365.402 2587.4 365.402 2590.42L365.402 2621.5C365.402 2627.31 360.262 2635.47 350.068 2636.49C349.205 2636.58 348.448 2635.87 348.448 2634.92Z" stroke="#EBEBEB" stroke-opacity="0.07" stroke-width="1.11913"/>
<path d="M398.398 2575.56H402.26C402.856 2575.56 403.408 2575.88 403.709 2576.39L437.479 2634.07C438.134 2635.19 437.327 2636.6 436.03 2636.6H431.941C431.343 2636.6 430.79 2636.28 430.489 2635.77L396.946 2578.08C396.296 2576.96 397.103 2575.56 398.398 2575.56Z" stroke="#EBEBEB" stroke-opacity="0.07" stroke-width="1.11913"/>
<path d="M411.446 2620.67L409.404 2617.17C408.754 2616.05 407.142 2616.06 406.499 2617.18L396.92 2633.84C396.277 2634.96 397.084 2636.36 398.375 2636.36H402.487C403.09 2636.36 403.647 2636.04 403.946 2635.51L411.454 2622.34C411.751 2621.82 411.748 2621.18 411.446 2620.67Z" stroke="#EBEBEB" stroke-opacity="0.07" stroke-width="1.11913"/>
<path d="M435.842 2575.56H431.919C431.33 2575.56 430.784 2575.87 430.481 2576.37L422.544 2589.56C422.224 2590.09 422.223 2590.75 422.54 2591.28L424.77 2595.02C425.429 2596.13 427.035 2596.11 427.671 2594.99L437.301 2578.07C437.937 2576.95 437.129 2575.56 435.842 2575.56Z" stroke="#EBEBEB" stroke-opacity="0.07" stroke-width="1.11913"/>
<rect x="469.039" y="2575.56" width="8.65013" height="61.0414" rx="1.6787" stroke="#EBEBEB" stroke-opacity="0.07" stroke-width="1.11913"/>
<rect x="524.939" y="2592.91" width="8.65007" height="43.6942" rx="1.6787" stroke="#EBEBEB" stroke-opacity="0.07" stroke-width="1.11913"/>
<rect x="507.354" y="2575.56" width="44.3078" height="8.51817" rx="1.6787" stroke="#EBEBEB" stroke-opacity="0.07" stroke-width="1.11913"/>
</g>
<g filter="url(#filter19_f_194_189)">
<path d="M505.514 2945.24V2949.68C505.514 2950.58 504.754 2951.39 503.724 2951.63C501.643 2952.13 499.905 2953.25 498.685 2954.54C497.479 2955.82 496.721 2957.34 496.721 2958.66C496.721 2959.21 496.721 2960.74 496.721 2962.86C496.721 2970.98 496.72 2987.64 496.721 2989.74C496.722 2991.06 497.607 2992.55 498.847 2993.79C500.108 2995.05 501.835 2996.16 503.711 2996.7C504.747 2997 505.514 2997.82 505.514 2998.73V3002.92C505.514 3003.87 504.755 3004.57 503.917 3004.45C499.76 3003.89 495.907 3001.75 493.094 2998.95C490.273 2996.15 488.56 2992.76 488.56 2989.74V2958.66C488.56 2952.85 493.699 2944.69 503.894 2943.67C504.756 2943.58 505.514 2944.29 505.514 2945.24Z" stroke="#EBEBEB" stroke-opacity="0.07" stroke-width="1.11913"/>
<path d="M514.448 3002.92L514.448 2998.48C514.448 2997.58 515.207 2996.78 516.237 2996.53C518.319 2996.03 520.056 2994.91 521.276 2993.62C522.482 2992.34 523.24 2990.82 523.24 2989.5C523.24 2988.95 523.24 2987.42 523.24 2985.3C523.24 2977.18 523.241 2960.52 523.24 2958.42C523.239 2957.1 522.354 2955.61 521.114 2954.37C519.853 2953.11 518.126 2952 516.25 2951.46C515.214 2951.16 514.448 2950.34 514.448 2949.43L514.448 2945.24C514.448 2944.29 515.206 2943.59 516.045 2943.71C520.202 2944.27 524.054 2946.41 526.867 2949.21C529.689 2952.01 531.402 2955.4 531.402 2958.42L531.402 2989.5C531.402 2995.31 526.262 3003.47 516.068 3004.49C515.205 3004.58 514.448 3003.87 514.448 3002.92Z" stroke="#EBEBEB" stroke-opacity="0.07" stroke-width="1.11913"/>
<path d="M564.398 2943.56H568.26C568.856 2943.56 569.408 2943.88 569.709 2944.39L603.479 3002.07C604.134 3003.19 603.327 3004.6 602.03 3004.6H597.941C597.343 3004.6 596.79 3004.28 596.489 3003.77L562.946 2946.08C562.296 2944.96 563.103 2943.56 564.398 2943.56Z" stroke="#EBEBEB" stroke-opacity="0.07" stroke-width="1.11913"/>
<path d="M577.446 2988.67L575.404 2985.17C574.754 2984.05 573.142 2984.06 572.499 2985.18L562.92 3001.84C562.277 3002.96 563.084 3004.36 564.375 3004.36H568.487C569.09 3004.36 569.647 3004.04 569.946 3003.51L577.454 2990.34C577.751 2989.82 577.748 2989.18 577.446 2988.67Z" stroke="#EBEBEB" stroke-opacity="0.07" stroke-width="1.11913"/>
<path d="M601.842 2943.56H597.919C597.33 2943.56 596.784 2943.87 596.481 2944.37L588.544 2957.56C588.224 2958.09 588.223 2958.75 588.54 2959.28L590.77 2963.02C591.429 2964.13 593.035 2964.11 593.671 2962.99L603.301 2946.07C603.937 2944.95 603.129 2943.56 601.842 2943.56Z" stroke="#EBEBEB" stroke-opacity="0.07" stroke-width="1.11913"/>
<rect x="635.039" y="2943.56" width="8.65013" height="61.0414" rx="1.6787" stroke="#EBEBEB" stroke-opacity="0.07" stroke-width="1.11913"/>
<rect x="690.939" y="2960.91" width="8.65007" height="43.6942" rx="1.6787" stroke="#EBEBEB" stroke-opacity="0.07" stroke-width="1.11913"/>
<rect x="673.354" y="2943.56" width="44.3078" height="8.51817" rx="1.6787" stroke="#EBEBEB" stroke-opacity="0.07" stroke-width="1.11913"/>
</g>
<g filter="url(#filter20_f_194_189)">
<path d="M1140.51 2665.24V2669.68C1140.51 2670.58 1139.75 2671.39 1138.72 2671.63C1136.64 2672.13 1134.91 2673.25 1133.69 2674.54C1132.48 2675.82 1131.72 2677.34 1131.72 2678.66C1131.72 2679.21 1131.72 2680.74 1131.72 2682.86C1131.72 2690.98 1131.72 2707.64 1131.72 2709.74C1131.72 2711.06 1132.61 2712.55 1133.85 2713.79C1135.11 2715.05 1136.84 2716.16 1138.71 2716.7C1139.75 2717 1140.51 2717.82 1140.51 2718.73V2722.92C1140.51 2723.87 1139.75 2724.57 1138.92 2724.45C1134.76 2723.89 1130.91 2721.75 1128.09 2718.95C1125.27 2716.15 1123.56 2712.76 1123.56 2709.74V2678.66C1123.56 2672.85 1128.7 2664.69 1138.89 2663.67C1139.76 2663.58 1140.51 2664.29 1140.51 2665.24Z" stroke="#EBEBEB" stroke-opacity="0.07" stroke-width="1.11913"/>
<path d="M1149.45 2722.92L1149.45 2718.48C1149.45 2717.58 1150.21 2716.78 1151.24 2716.53C1153.32 2716.03 1155.06 2714.91 1156.28 2713.62C1157.48 2712.34 1158.24 2710.82 1158.24 2709.5C1158.24 2708.95 1158.24 2707.42 1158.24 2705.3C1158.24 2697.18 1158.24 2680.52 1158.24 2678.42C1158.24 2677.1 1157.35 2675.61 1156.11 2674.37C1154.85 2673.11 1153.13 2672 1151.25 2671.46C1150.21 2671.16 1149.45 2670.34 1149.45 2669.43L1149.45 2665.24C1149.45 2664.29 1150.21 2663.59 1151.04 2663.71C1155.2 2664.27 1159.05 2666.41 1161.87 2669.21C1164.69 2672.01 1166.4 2675.4 1166.4 2678.42L1166.4 2709.5C1166.4 2715.31 1161.26 2723.47 1151.07 2724.49C1150.21 2724.58 1149.45 2723.87 1149.45 2722.92Z" stroke="#EBEBEB" stroke-opacity="0.07" stroke-width="1.11913"/>
<path d="M1199.4 2663.56H1203.26C1203.86 2663.56 1204.41 2663.88 1204.71 2664.39L1238.48 2722.07C1239.13 2723.19 1238.33 2724.6 1237.03 2724.6H1232.94C1232.34 2724.6 1231.79 2724.28 1231.49 2723.77L1197.95 2666.08C1197.3 2664.96 1198.1 2663.56 1199.4 2663.56Z" stroke="#EBEBEB" stroke-opacity="0.07" stroke-width="1.11913"/>
<path d="M1212.45 2708.67L1210.4 2705.17C1209.75 2704.05 1208.14 2704.06 1207.5 2705.18L1197.92 2721.84C1197.28 2722.96 1198.08 2724.36 1199.38 2724.36H1203.49C1204.09 2724.36 1204.65 2724.04 1204.95 2723.51L1212.45 2710.34C1212.75 2709.82 1212.75 2709.18 1212.45 2708.67Z" stroke="#EBEBEB" stroke-opacity="0.07" stroke-width="1.11913"/>
<path d="M1236.84 2663.56H1232.92C1232.33 2663.56 1231.78 2663.87 1231.48 2664.37L1223.54 2677.56C1223.22 2678.09 1223.22 2678.75 1223.54 2679.28L1225.77 2683.02C1226.43 2684.13 1228.03 2684.11 1228.67 2682.99L1238.3 2666.07C1238.94 2664.95 1238.13 2663.56 1236.84 2663.56Z" stroke="#EBEBEB" stroke-opacity="0.07" stroke-width="1.11913"/>
<rect x="1270.04" y="2663.56" width="8.65013" height="61.0414" rx="1.6787" stroke="#EBEBEB" stroke-opacity="0.07" stroke-width="1.11913"/>
<rect x="1325.94" y="2680.91" width="8.65007" height="43.6942" rx="1.6787" stroke="#EBEBEB" stroke-opacity="0.07" stroke-width="1.11913"/>
<rect x="1308.35" y="2663.56" width="44.3078" height="8.51817" rx="1.6787" stroke="#EBEBEB" stroke-opacity="0.07" stroke-width="1.11913"/>
</g>
<g filter="url(#filter21_f_194_189)">
<path d="M883.514 2777.24V2781.68C883.514 2782.58 882.754 2783.39 881.724 2783.63C879.643 2784.13 877.905 2785.25 876.685 2786.54C875.479 2787.82 874.721 2789.34 874.721 2790.66C874.721 2791.21 874.721 2792.74 874.721 2794.86C874.721 2802.98 874.72 2819.64 874.721 2821.74C874.722 2823.06 875.607 2824.55 876.847 2825.79C878.108 2827.05 879.835 2828.16 881.711 2828.7C882.747 2829 883.514 2829.82 883.514 2830.73V2834.92C883.514 2835.87 882.755 2836.57 881.917 2836.45C877.76 2835.89 873.907 2833.75 871.094 2830.95C868.273 2828.15 866.56 2824.76 866.56 2821.74V2790.66C866.56 2784.85 871.699 2776.69 881.894 2775.67C882.756 2775.58 883.514 2776.29 883.514 2777.24Z" stroke="#EBEBEB" stroke-opacity="0.07" stroke-width="1.11913"/>
<path d="M892.448 2834.92L892.448 2830.48C892.448 2829.58 893.207 2828.78 894.237 2828.53C896.319 2828.03 898.056 2826.91 899.276 2825.62C900.482 2824.34 901.24 2822.82 901.24 2821.5C901.24 2820.95 901.24 2819.42 901.24 2817.3C901.24 2809.18 901.241 2792.52 901.24 2790.42C901.239 2789.1 900.354 2787.61 899.114 2786.37C897.853 2785.11 896.126 2784 894.25 2783.46C893.214 2783.16 892.448 2782.34 892.448 2781.43L892.448 2777.24C892.448 2776.29 893.206 2775.59 894.045 2775.71C898.202 2776.27 902.054 2778.41 904.867 2781.21C907.689 2784.01 909.402 2787.4 909.402 2790.42L909.402 2821.5C909.402 2827.31 904.262 2835.47 894.068 2836.49C893.205 2836.58 892.448 2835.87 892.448 2834.92Z" stroke="#EBEBEB" stroke-opacity="0.07" stroke-width="1.11913"/>
<path d="M942.398 2775.56H946.26C946.856 2775.56 947.408 2775.88 947.709 2776.39L981.479 2834.07C982.134 2835.19 981.327 2836.6 980.03 2836.6H975.941C975.343 2836.6 974.79 2836.28 974.489 2835.77L940.946 2778.08C940.296 2776.96 941.103 2775.56 942.398 2775.56Z" stroke="#EBEBEB" stroke-opacity="0.07" stroke-width="1.11913"/>
<path d="M955.446 2820.67L953.404 2817.17C952.754 2816.05 951.142 2816.06 950.499 2817.18L940.92 2833.84C940.277 2834.96 941.084 2836.36 942.375 2836.36H946.487C947.09 2836.36 947.647 2836.04 947.946 2835.51L955.454 2822.34C955.751 2821.82 955.748 2821.18 955.446 2820.67Z" stroke="#EBEBEB" stroke-opacity="0.07" stroke-width="1.11913"/>
<path d="M979.842 2775.56H975.919C975.33 2775.56 974.784 2775.87 974.481 2776.37L966.544 2789.56C966.224 2790.09 966.223 2790.75 966.54 2791.28L968.77 2795.02C969.429 2796.13 971.035 2796.11 971.671 2794.99L981.301 2778.07C981.937 2776.95 981.129 2775.56 979.842 2775.56Z" stroke="#EBEBEB" stroke-opacity="0.07" stroke-width="1.11913"/>
<rect x="1013.04" y="2775.56" width="8.65013" height="61.0414" rx="1.6787" stroke="#EBEBEB" stroke-opacity="0.07" stroke-width="1.11913"/>
<rect x="1068.94" y="2792.91" width="8.65007" height="43.6942" rx="1.6787" stroke="#EBEBEB" stroke-opacity="0.07" stroke-width="1.11913"/>
<rect x="1051.35" y="2775.56" width="44.3078" height="8.51817" rx="1.6787" stroke="#EBEBEB" stroke-opacity="0.07" stroke-width="1.11913"/>
</g>
<g filter="url(#filter22_f_194_189)">
<path d="M65.5135 2334.24V2338.68C65.5135 2339.58 64.7541 2340.39 63.7243 2340.63C61.6426 2341.13 59.9052 2342.25 58.6851 2343.54C57.4788 2344.82 56.7212 2346.34 56.7212 2347.66C56.7212 2348.21 56.7212 2349.74 56.7211 2351.86C56.7209 2359.98 56.7205 2376.64 56.7212 2378.74C56.7217 2380.06 57.6073 2381.55 58.8472 2382.79C60.1085 2384.05 61.8351 2385.16 63.7112 2385.7C64.7475 2386 65.5135 2386.82 65.5135 2387.73V2391.92C65.5135 2392.87 64.7548 2393.57 63.9165 2393.45C59.7596 2392.89 55.9074 2390.75 53.0944 2387.95C50.2727 2385.15 48.5596 2381.76 48.5596 2378.74V2347.66C48.5596 2341.85 53.6989 2333.69 63.8935 2332.67C64.756 2332.58 65.5135 2333.29 65.5135 2334.24Z" stroke="#EBEBEB" stroke-opacity="0.07" stroke-width="1.11913"/>
<path d="M74.4477 2391.92L74.4477 2387.48C74.4477 2386.58 75.2071 2385.78 76.2369 2385.53C78.3186 2385.03 80.056 2383.91 81.2761 2382.62C82.4824 2381.34 83.24 2379.82 83.24 2378.5C83.24 2377.95 83.24 2376.42 83.2401 2374.3C83.2403 2366.18 83.2407 2349.52 83.24 2347.42C83.2395 2346.1 82.3539 2344.61 81.114 2343.37C79.8527 2342.11 78.126 2341 76.25 2340.46C75.2137 2340.16 74.4477 2339.34 74.4477 2338.43L74.4477 2334.24C74.4477 2333.29 75.2064 2332.59 76.0446 2332.71C80.2016 2333.27 84.0538 2335.41 86.8668 2338.21C89.6885 2341.01 91.4016 2344.4 91.4016 2347.42L91.4016 2378.5C91.4016 2384.31 86.2622 2392.47 76.0677 2393.49C75.2052 2393.58 74.4477 2392.87 74.4477 2391.92Z" stroke="#EBEBEB" stroke-opacity="0.07" stroke-width="1.11913"/>
<path d="M124.398 2332.56H128.26C128.856 2332.56 129.408 2332.88 129.709 2333.39L163.479 2391.07C164.134 2392.19 163.327 2393.6 162.03 2393.6H157.941C157.343 2393.6 156.79 2393.28 156.489 2392.77L122.946 2335.08C122.296 2333.96 123.103 2332.56 124.398 2332.56Z" stroke="#EBEBEB" stroke-opacity="0.07" stroke-width="1.11913"/>
<path d="M137.446 2377.67L135.404 2374.17C134.754 2373.05 133.142 2373.06 132.499 2374.18L122.92 2390.84C122.277 2391.96 123.084 2393.36 124.375 2393.36H128.487C129.09 2393.36 129.647 2393.04 129.946 2392.51L137.454 2379.34C137.751 2378.82 137.748 2378.18 137.446 2377.67Z" stroke="#EBEBEB" stroke-opacity="0.07" stroke-width="1.11913"/>
<path d="M161.842 2332.56H157.919C157.33 2332.56 156.784 2332.87 156.481 2333.37L148.544 2346.56C148.224 2347.09 148.223 2347.75 148.54 2348.28L150.77 2352.02C151.429 2353.13 153.035 2353.11 153.671 2351.99L163.301 2335.07C163.937 2333.95 163.129 2332.56 161.842 2332.56Z" stroke="#EBEBEB" stroke-opacity="0.07" stroke-width="1.11913"/>
<rect x="195.039" y="2332.56" width="8.65013" height="61.0414" rx="1.6787" stroke="#EBEBEB" stroke-opacity="0.07" stroke-width="1.11913"/>
<rect x="250.939" y="2349.91" width="8.65007" height="43.6942" rx="1.6787" stroke="#EBEBEB" stroke-opacity="0.07" stroke-width="1.11913"/>
<rect x="233.354" y="2332.56" width="44.3078" height="8.51817" rx="1.6787" stroke="#EBEBEB" stroke-opacity="0.07" stroke-width="1.11913"/>
</g>
<g filter="url(#filter23_f_194_189)">
<path d="M844.514 2353.24V2357.68C844.514 2358.58 843.754 2359.39 842.724 2359.63C840.643 2360.13 838.905 2361.25 837.685 2362.54C836.479 2363.82 835.721 2365.34 835.721 2366.66C835.721 2367.21 835.721 2368.74 835.721 2370.86C835.721 2378.98 835.72 2395.64 835.721 2397.74C835.722 2399.06 836.607 2400.55 837.847 2401.79C839.108 2403.05 840.835 2404.16 842.711 2404.7C843.747 2405 844.514 2405.82 844.514 2406.73V2410.92C844.514 2411.87 843.755 2412.57 842.917 2412.45C838.76 2411.89 834.907 2409.75 832.094 2406.95C829.273 2404.15 827.56 2400.76 827.56 2397.74V2366.66C827.56 2360.85 832.699 2352.69 842.894 2351.67C843.756 2351.58 844.514 2352.29 844.514 2353.24Z" stroke="#EBEBEB" stroke-opacity="0.07" stroke-width="1.11913"/>
<path d="M853.448 2410.92L853.448 2406.48C853.448 2405.58 854.207 2404.78 855.237 2404.53C857.319 2404.03 859.056 2402.91 860.276 2401.62C861.482 2400.34 862.24 2398.82 862.24 2397.5C862.24 2396.95 862.24 2395.42 862.24 2393.3C862.24 2385.18 862.241 2368.52 862.24 2366.42C862.239 2365.1 861.354 2363.61 860.114 2362.37C858.853 2361.11 857.126 2360 855.25 2359.46C854.214 2359.16 853.448 2358.34 853.448 2357.43L853.448 2353.24C853.448 2352.29 854.206 2351.59 855.045 2351.71C859.202 2352.27 863.054 2354.41 865.867 2357.21C868.689 2360.01 870.402 2363.4 870.402 2366.42L870.402 2397.5C870.402 2403.31 865.262 2411.47 855.068 2412.49C854.205 2412.58 853.448 2411.87 853.448 2410.92Z" stroke="#EBEBEB" stroke-opacity="0.07" stroke-width="1.11913"/>
<path d="M903.398 2351.56H907.26C907.856 2351.56 908.408 2351.88 908.709 2352.39L942.479 2410.07C943.134 2411.19 942.327 2412.6 941.03 2412.6H936.941C936.343 2412.6 935.79 2412.28 935.489 2411.77L901.946 2354.08C901.296 2352.96 902.103 2351.56 903.398 2351.56Z" stroke="#EBEBEB" stroke-opacity="0.07" stroke-width="1.11913"/>
<path d="M916.446 2396.67L914.404 2393.17C913.754 2392.05 912.142 2392.06 911.499 2393.18L901.92 2409.84C901.277 2410.96 902.084 2412.36 903.375 2412.36H907.487C908.09 2412.36 908.647 2412.04 908.946 2411.51L916.454 2398.34C916.751 2397.82 916.748 2397.18 916.446 2396.67Z" stroke="#EBEBEB" stroke-opacity="0.07" stroke-width="1.11913"/>
<path d="M940.842 2351.56H936.919C936.33 2351.56 935.784 2351.87 935.481 2352.37L927.544 2365.56C927.224 2366.09 927.223 2366.75 927.54 2367.28L929.77 2371.02C930.429 2372.13 932.035 2372.11 932.671 2370.99L942.301 2354.07C942.937 2352.95 942.129 2351.56 940.842 2351.56Z" stroke="#EBEBEB" stroke-opacity="0.07" stroke-width="1.11913"/>
<rect x="974.039" y="2351.56" width="8.65013" height="61.0414" rx="1.6787" stroke="#EBEBEB" stroke-opacity="0.07" stroke-width="1.11913"/>
<rect x="1029.94" y="2368.91" width="8.65007" height="43.6942" rx="1.6787" stroke="#EBEBEB" stroke-opacity="0.07" stroke-width="1.11913"/>
<rect x="1012.35" y="2351.56" width="44.3078" height="8.51817" rx="1.6787" stroke="#EBEBEB" stroke-opacity="0.07" stroke-width="1.11913"/>
</g>
<g filter="url(#filter24_f_194_189)">
<path d="M339.514 3342.24V3346.68C339.514 3347.58 338.754 3348.39 337.724 3348.63C335.643 3349.13 333.905 3350.25 332.685 3351.54C331.479 3352.82 330.721 3354.34 330.721 3355.66C330.721 3356.21 330.721 3357.74 330.721 3359.86C330.721 3367.98 330.72 3384.64 330.721 3386.74C330.722 3388.06 331.607 3389.55 332.847 3390.79C334.108 3392.05 335.835 3393.16 337.711 3393.7C338.747 3394 339.514 3394.82 339.514 3395.73V3399.92C339.514 3400.87 338.755 3401.57 337.917 3401.45C333.76 3400.89 329.907 3398.75 327.094 3395.95C324.273 3393.15 322.56 3389.76 322.56 3386.74V3355.66C322.56 3349.85 327.699 3341.69 337.894 3340.67C338.756 3340.58 339.514 3341.29 339.514 3342.24Z" stroke="#EBEBEB" stroke-opacity="0.07" stroke-width="1.11913"/>
<path d="M348.448 3399.92L348.448 3395.48C348.448 3394.58 349.207 3393.78 350.237 3393.53C352.319 3393.03 354.056 3391.91 355.276 3390.62C356.482 3389.34 357.24 3387.82 357.24 3386.5C357.24 3385.95 357.24 3384.42 357.24 3382.3C357.24 3374.18 357.241 3357.52 357.24 3355.42C357.239 3354.1 356.354 3352.61 355.114 3351.37C353.853 3350.11 352.126 3349 350.25 3348.46C349.214 3348.16 348.448 3347.34 348.448 3346.43L348.448 3342.24C348.448 3341.29 349.206 3340.59 350.045 3340.71C354.202 3341.27 358.054 3343.41 360.867 3346.21C363.689 3349.01 365.402 3352.4 365.402 3355.42L365.402 3386.5C365.402 3392.31 360.262 3400.47 350.068 3401.49C349.205 3401.58 348.448 3400.87 348.448 3399.92Z" stroke="#EBEBEB" stroke-opacity="0.07" stroke-width="1.11913"/>
<path d="M398.398 3340.56H402.26C402.856 3340.56 403.408 3340.88 403.709 3341.39L437.479 3399.07C438.134 3400.19 437.327 3401.6 436.03 3401.6H431.941C431.343 3401.6 430.79 3401.28 430.489 3400.77L396.946 3343.08C396.296 3341.96 397.103 3340.56 398.398 3340.56Z" stroke="#EBEBEB" stroke-opacity="0.07" stroke-width="1.11913"/>
<path d="M411.446 3385.67L409.404 3382.17C408.754 3381.05 407.142 3381.06 406.499 3382.18L396.92 3398.84C396.277 3399.96 397.084 3401.36 398.375 3401.36H402.487C403.09 3401.36 403.647 3401.04 403.946 3400.51L411.454 3387.34C411.751 3386.82 411.748 3386.18 411.446 3385.67Z" stroke="#EBEBEB" stroke-opacity="0.07" stroke-width="1.11913"/>
<path d="M435.842 3340.56H431.919C431.33 3340.56 430.784 3340.87 430.481 3341.37L422.544 3354.56C422.224 3355.09 422.223 3355.75 422.54 3356.28L424.77 3360.02C425.429 3361.13 427.035 3361.11 427.671 3359.99L437.301 3343.07C437.937 3341.95 437.129 3340.56 435.842 3340.56Z" stroke="#EBEBEB" stroke-opacity="0.07" stroke-width="1.11913"/>
<rect x="469.039" y="3340.56" width="8.65013" height="61.0414" rx="1.6787" stroke="#EBEBEB" stroke-opacity="0.07" stroke-width="1.11913"/>
<rect x="524.939" y="3357.91" width="8.65007" height="43.6942" rx="1.6787" stroke="#EBEBEB" stroke-opacity="0.07" stroke-width="1.11913"/>
<rect x="507.354" y="3340.56" width="44.3078" height="8.51817" rx="1.6787" stroke="#EBEBEB" stroke-opacity="0.07" stroke-width="1.11913"/>
</g>
<g filter="url(#filter25_f_194_189)">
<path d="M505.514 3710.24V3714.68C505.514 3715.58 504.754 3716.39 503.724 3716.63C501.643 3717.13 499.905 3718.25 498.685 3719.54C497.479 3720.82 496.721 3722.34 496.721 3723.66C496.721 3724.21 496.721 3725.74 496.721 3727.86C496.721 3735.98 496.72 3752.64 496.721 3754.74C496.722 3756.06 497.607 3757.55 498.847 3758.79C500.108 3760.05 501.835 3761.16 503.711 3761.7C504.747 3762 505.514 3762.82 505.514 3763.73V3767.92C505.514 3768.87 504.755 3769.57 503.917 3769.45C499.76 3768.89 495.907 3766.75 493.094 3763.95C490.273 3761.15 488.56 3757.76 488.56 3754.74V3723.66C488.56 3717.85 493.699 3709.69 503.894 3708.67C504.756 3708.58 505.514 3709.29 505.514 3710.24Z" stroke="#EBEBEB" stroke-opacity="0.07" stroke-width="1.11913"/>
<path d="M514.448 3767.92L514.448 3763.48C514.448 3762.58 515.207 3761.78 516.237 3761.53C518.319 3761.03 520.056 3759.91 521.276 3758.62C522.482 3757.34 523.24 3755.82 523.24 3754.5C523.24 3753.95 523.24 3752.42 523.24 3750.3C523.24 3742.18 523.241 3725.52 523.24 3723.42C523.239 3722.1 522.354 3720.61 521.114 3719.37C519.853 3718.11 518.126 3717 516.25 3716.46C515.214 3716.16 514.448 3715.34 514.448 3714.43L514.448 3710.24C514.448 3709.29 515.206 3708.59 516.045 3708.71C520.202 3709.27 524.054 3711.41 526.867 3714.21C529.689 3717.01 531.402 3720.4 531.402 3723.42L531.402 3754.5C531.402 3760.31 526.262 3768.47 516.068 3769.49C515.205 3769.58 514.448 3768.87 514.448 3767.92Z" stroke="#EBEBEB" stroke-opacity="0.07" stroke-width="1.11913"/>
<path d="M564.398 3708.56H568.26C568.856 3708.56 569.408 3708.88 569.709 3709.39L603.479 3767.07C604.134 3768.19 603.327 3769.6 602.03 3769.6H597.941C597.343 3769.6 596.79 3769.28 596.489 3768.77L562.946 3711.08C562.296 3709.96 563.103 3708.56 564.398 3708.56Z" stroke="#EBEBEB" stroke-opacity="0.07" stroke-width="1.11913"/>
<path d="M577.446 3753.67L575.404 3750.17C574.754 3749.05 573.142 3749.06 572.499 3750.18L562.92 3766.84C562.277 3767.96 563.084 3769.36 564.375 3769.36H568.487C569.09 3769.36 569.647 3769.04 569.946 3768.51L577.454 3755.34C577.751 3754.82 577.748 3754.18 577.446 3753.67Z" stroke="#EBEBEB" stroke-opacity="0.07" stroke-width="1.11913"/>
<path d="M601.842 3708.56H597.919C597.33 3708.56 596.784 3708.87 596.481 3709.37L588.544 3722.56C588.224 3723.09 588.223 3723.75 588.54 3724.28L590.77 3728.02C591.429 3729.13 593.035 3729.11 593.671 3727.99L603.301 3711.07C603.937 3709.95 603.129 3708.56 601.842 3708.56Z" stroke="#EBEBEB" stroke-opacity="0.07" stroke-width="1.11913"/>
<rect x="635.039" y="3708.56" width="8.65013" height="61.0414" rx="1.6787" stroke="#EBEBEB" stroke-opacity="0.07" stroke-width="1.11913"/>
<rect x="690.939" y="3725.91" width="8.65007" height="43.6942" rx="1.6787" stroke="#EBEBEB" stroke-opacity="0.07" stroke-width="1.11913"/>
<rect x="673.354" y="3708.56" width="44.3078" height="8.51817" rx="1.6787" stroke="#EBEBEB" stroke-opacity="0.07" stroke-width="1.11913"/>
</g>
<g filter="url(#filter26_f_194_189)">
<path d="M1140.51 3430.24V3434.68C1140.51 3435.58 1139.75 3436.39 1138.72 3436.63C1136.64 3437.13 1134.91 3438.25 1133.69 3439.54C1132.48 3440.82 1131.72 3442.34 1131.72 3443.66C1131.72 3444.21 1131.72 3445.74 1131.72 3447.86C1131.72 3455.98 1131.72 3472.64 1131.72 3474.74C1131.72 3476.06 1132.61 3477.55 1133.85 3478.79C1135.11 3480.05 1136.84 3481.16 1138.71 3481.7C1139.75 3482 1140.51 3482.82 1140.51 3483.73V3487.92C1140.51 3488.87 1139.75 3489.57 1138.92 3489.45C1134.76 3488.89 1130.91 3486.75 1128.09 3483.95C1125.27 3481.15 1123.56 3477.76 1123.56 3474.74V3443.66C1123.56 3437.85 1128.7 3429.69 1138.89 3428.67C1139.76 3428.58 1140.51 3429.29 1140.51 3430.24Z" stroke="#EBEBEB" stroke-opacity="0.07" stroke-width="1.11913"/>
<path d="M1149.45 3487.92L1149.45 3483.48C1149.45 3482.58 1150.21 3481.78 1151.24 3481.53C1153.32 3481.03 1155.06 3479.91 1156.28 3478.62C1157.48 3477.34 1158.24 3475.82 1158.24 3474.5C1158.24 3473.95 1158.24 3472.42 1158.24 3470.3C1158.24 3462.18 1158.24 3445.52 1158.24 3443.42C1158.24 3442.1 1157.35 3440.61 1156.11 3439.37C1154.85 3438.11 1153.13 3437 1151.25 3436.46C1150.21 3436.16 1149.45 3435.34 1149.45 3434.43L1149.45 3430.24C1149.45 3429.29 1150.21 3428.59 1151.04 3428.71C1155.2 3429.27 1159.05 3431.41 1161.87 3434.21C1164.69 3437.01 1166.4 3440.4 1166.4 3443.42L1166.4 3474.5C1166.4 3480.31 1161.26 3488.47 1151.07 3489.49C1150.21 3489.58 1149.45 3488.87 1149.45 3487.92Z" stroke="#EBEBEB" stroke-opacity="0.07" stroke-width="1.11913"/>
<path d="M1199.4 3428.56H1203.26C1203.86 3428.56 1204.41 3428.88 1204.71 3429.39L1238.48 3487.07C1239.13 3488.19 1238.33 3489.6 1237.03 3489.6H1232.94C1232.34 3489.6 1231.79 3489.28 1231.49 3488.77L1197.95 3431.08C1197.3 3429.96 1198.1 3428.56 1199.4 3428.56Z" stroke="#EBEBEB" stroke-opacity="0.07" stroke-width="1.11913"/>
<path d="M1212.45 3473.67L1210.4 3470.17C1209.75 3469.05 1208.14 3469.06 1207.5 3470.18L1197.92 3486.84C1197.28 3487.96 1198.08 3489.36 1199.38 3489.36H1203.49C1204.09 3489.36 1204.65 3489.04 1204.95 3488.51L1212.45 3475.34C1212.75 3474.82 1212.75 3474.18 1212.45 3473.67Z" stroke="#EBEBEB" stroke-opacity="0.07" stroke-width="1.11913"/>
<path d="M1236.84 3428.56H1232.92C1232.33 3428.56 1231.78 3428.87 1231.48 3429.37L1223.54 3442.56C1223.22 3443.09 1223.22 3443.75 1223.54 3444.28L1225.77 3448.02C1226.43 3449.13 1228.03 3449.11 1228.67 3447.99L1238.3 3431.07C1238.94 3429.95 1238.13 3428.56 1236.84 3428.56Z" stroke="#EBEBEB" stroke-opacity="0.07" stroke-width="1.11913"/>
<rect x="1270.04" y="3428.56" width="8.65013" height="61.0414" rx="1.6787" stroke="#EBEBEB" stroke-opacity="0.07" stroke-width="1.11913"/>
<rect x="1325.94" y="3445.91" width="8.65007" height="43.6942" rx="1.6787" stroke="#EBEBEB" stroke-opacity="0.07" stroke-width="1.11913"/>
<rect x="1308.35" y="3428.56" width="44.3078" height="8.51817" rx="1.6787" stroke="#EBEBEB" stroke-opacity="0.07" stroke-width="1.11913"/>
</g>
<g filter="url(#filter27_f_194_189)">
<path d="M883.514 3542.24V3546.68C883.514 3547.58 882.754 3548.39 881.724 3548.63C879.643 3549.13 877.905 3550.25 876.685 3551.54C875.479 3552.82 874.721 3554.34 874.721 3555.66C874.721 3556.21 874.721 3557.74 874.721 3559.86C874.721 3567.98 874.72 3584.64 874.721 3586.74C874.722 3588.06 875.607 3589.55 876.847 3590.79C878.108 3592.05 879.835 3593.16 881.711 3593.7C882.747 3594 883.514 3594.82 883.514 3595.73V3599.92C883.514 3600.87 882.755 3601.57 881.917 3601.45C877.76 3600.89 873.907 3598.75 871.094 3595.95C868.273 3593.15 866.56 3589.76 866.56 3586.74V3555.66C866.56 3549.85 871.699 3541.69 881.894 3540.67C882.756 3540.58 883.514 3541.29 883.514 3542.24Z" stroke="#EBEBEB" stroke-opacity="0.07" stroke-width="1.11913"/>
<path d="M892.448 3599.92L892.448 3595.48C892.448 3594.58 893.207 3593.78 894.237 3593.53C896.319 3593.03 898.056 3591.91 899.276 3590.62C900.482 3589.34 901.24 3587.82 901.24 3586.5C901.24 3585.95 901.24 3584.42 901.24 3582.3C901.24 3574.18 901.241 3557.52 901.24 3555.42C901.239 3554.1 900.354 3552.61 899.114 3551.37C897.853 3550.11 896.126 3549 894.25 3548.46C893.214 3548.16 892.448 3547.34 892.448 3546.43L892.448 3542.24C892.448 3541.29 893.206 3540.59 894.045 3540.71C898.202 3541.27 902.054 3543.41 904.867 3546.21C907.689 3549.01 909.402 3552.4 909.402 3555.42L909.402 3586.5C909.402 3592.31 904.262 3600.47 894.068 3601.49C893.205 3601.58 892.448 3600.87 892.448 3599.92Z" stroke="#EBEBEB" stroke-opacity="0.07" stroke-width="1.11913"/>
<path d="M942.398 3540.56H946.26C946.856 3540.56 947.408 3540.88 947.709 3541.39L981.479 3599.07C982.134 3600.19 981.327 3601.6 980.03 3601.6H975.941C975.343 3601.6 974.79 3601.28 974.489 3600.77L940.946 3543.08C940.296 3541.96 941.103 3540.56 942.398 3540.56Z" stroke="#EBEBEB" stroke-opacity="0.07" stroke-width="1.11913"/>
<path d="M955.446 3585.67L953.404 3582.17C952.754 3581.05 951.142 3581.06 950.499 3582.18L940.92 3598.84C940.277 3599.96 941.084 3601.36 942.375 3601.36H946.487C947.09 3601.36 947.647 3601.04 947.946 3600.51L955.454 3587.34C955.751 3586.82 955.748 3586.18 955.446 3585.67Z" stroke="#EBEBEB" stroke-opacity="0.07" stroke-width="1.11913"/>
<path d="M979.842 3540.56H975.919C975.33 3540.56 974.784 3540.87 974.481 3541.37L966.544 3554.56C966.224 3555.09 966.223 3555.75 966.54 3556.28L968.77 3560.02C969.429 3561.13 971.035 3561.11 971.671 3559.99L981.301 3543.07C981.937 3541.95 981.129 3540.56 979.842 3540.56Z" stroke="#EBEBEB" stroke-opacity="0.07" stroke-width="1.11913"/>
<rect x="1013.04" y="3540.56" width="8.65013" height="61.0414" rx="1.6787" stroke="#EBEBEB" stroke-opacity="0.07" stroke-width="1.11913"/>
<rect x="1068.94" y="3557.91" width="8.65007" height="43.6942" rx="1.6787" stroke="#EBEBEB" stroke-opacity="0.07" stroke-width="1.11913"/>
<rect x="1051.35" y="3540.56" width="44.3078" height="8.51817" rx="1.6787" stroke="#EBEBEB" stroke-opacity="0.07" stroke-width="1.11913"/>
</g>
<g filter="url(#filter28_f_194_189)">
<path d="M65.5135 3099.24V3103.68C65.5135 3104.58 64.7541 3105.39 63.7243 3105.63C61.6426 3106.13 59.9052 3107.25 58.6851 3108.54C57.4788 3109.82 56.7212 3111.34 56.7212 3112.66C56.7212 3113.21 56.7212 3114.74 56.7211 3116.86C56.7209 3124.98 56.7205 3141.64 56.7212 3143.74C56.7217 3145.06 57.6073 3146.55 58.8472 3147.79C60.1085 3149.05 61.8351 3150.16 63.7112 3150.7C64.7475 3151 65.5135 3151.82 65.5135 3152.73V3156.92C65.5135 3157.87 64.7548 3158.57 63.9165 3158.45C59.7596 3157.89 55.9074 3155.75 53.0944 3152.95C50.2727 3150.15 48.5596 3146.76 48.5596 3143.74V3112.66C48.5596 3106.85 53.6989 3098.69 63.8935 3097.67C64.756 3097.58 65.5135 3098.29 65.5135 3099.24Z" stroke="#EBEBEB" stroke-opacity="0.07" stroke-width="1.11913"/>
<path d="M74.4477 3156.92L74.4477 3152.48C74.4477 3151.58 75.2071 3150.78 76.2369 3150.53C78.3186 3150.03 80.056 3148.91 81.2761 3147.62C82.4824 3146.34 83.24 3144.82 83.24 3143.5C83.24 3142.95 83.24 3141.42 83.2401 3139.3C83.2403 3131.18 83.2407 3114.52 83.24 3112.42C83.2395 3111.1 82.3539 3109.61 81.114 3108.37C79.8527 3107.11 78.126 3106 76.25 3105.46C75.2137 3105.16 74.4477 3104.34 74.4477 3103.43L74.4477 3099.24C74.4477 3098.29 75.2064 3097.59 76.0446 3097.71C80.2016 3098.27 84.0538 3100.41 86.8668 3103.21C89.6885 3106.01 91.4016 3109.4 91.4016 3112.42L91.4016 3143.5C91.4016 3149.31 86.2622 3157.47 76.0677 3158.49C75.2052 3158.58 74.4477 3157.87 74.4477 3156.92Z" stroke="#EBEBEB" stroke-opacity="0.07" stroke-width="1.11913"/>
<path d="M124.398 3097.56H128.26C128.856 3097.56 129.408 3097.88 129.709 3098.39L163.479 3156.07C164.134 3157.19 163.327 3158.6 162.03 3158.6H157.941C157.343 3158.6 156.79 3158.28 156.489 3157.77L122.946 3100.08C122.296 3098.96 123.103 3097.56 124.398 3097.56Z" stroke="#EBEBEB" stroke-opacity="0.07" stroke-width="1.11913"/>
<path d="M137.446 3142.67L135.404 3139.17C134.754 3138.05 133.142 3138.06 132.499 3139.18L122.92 3155.84C122.277 3156.96 123.084 3158.36 124.375 3158.36H128.487C129.09 3158.36 129.647 3158.04 129.946 3157.51L137.454 3144.34C137.751 3143.82 137.748 3143.18 137.446 3142.67Z" stroke="#EBEBEB" stroke-opacity="0.07" stroke-width="1.11913"/>
<path d="M161.842 3097.56H157.919C157.33 3097.56 156.784 3097.87 156.481 3098.37L148.544 3111.56C148.224 3112.09 148.223 3112.75 148.54 3113.28L150.77 3117.02C151.429 3118.13 153.035 3118.11 153.671 3116.99L163.301 3100.07C163.937 3098.95 163.129 3097.56 161.842 3097.56Z" stroke="#EBEBEB" stroke-opacity="0.07" stroke-width="1.11913"/>
<rect x="195.039" y="3097.56" width="8.65013" height="61.0414" rx="1.6787" stroke="#EBEBEB" stroke-opacity="0.07" stroke-width="1.11913"/>
<rect x="250.939" y="3114.91" width="8.65007" height="43.6942" rx="1.6787" stroke="#EBEBEB" stroke-opacity="0.07" stroke-width="1.11913"/>
<rect x="233.354" y="3097.56" width="44.3078" height="8.51817" rx="1.6787" stroke="#EBEBEB" stroke-opacity="0.07" stroke-width="1.11913"/>
</g>
<g filter="url(#filter29_f_194_189)">
<path d="M844.514 3118.24V3122.68C844.514 3123.58 843.754 3124.39 842.724 3124.63C840.643 3125.13 838.905 3126.25 837.685 3127.54C836.479 3128.82 835.721 3130.34 835.721 3131.66C835.721 3132.21 835.721 3133.74 835.721 3135.86C835.721 3143.98 835.72 3160.64 835.721 3162.74C835.722 3164.06 836.607 3165.55 837.847 3166.79C839.108 3168.05 840.835 3169.16 842.711 3169.7C843.747 3170 844.514 3170.82 844.514 3171.73V3175.92C844.514 3176.87 843.755 3177.57 842.917 3177.45C838.76 3176.89 834.907 3174.75 832.094 3171.95C829.273 3169.15 827.56 3165.76 827.56 3162.74V3131.66C827.56 3125.85 832.699 3117.69 842.894 3116.67C843.756 3116.58 844.514 3117.29 844.514 3118.24Z" stroke="#EBEBEB" stroke-opacity="0.07" stroke-width="1.11913"/>
<path d="M853.448 3175.92L853.448 3171.48C853.448 3170.58 854.207 3169.78 855.237 3169.53C857.319 3169.03 859.056 3167.91 860.276 3166.62C861.482 3165.34 862.24 3163.82 862.24 3162.5C862.24 3161.95 862.24 3160.42 862.24 3158.3C862.24 3150.18 862.241 3133.52 862.24 3131.42C862.239 3130.1 861.354 3128.61 860.114 3127.37C858.853 3126.11 857.126 3125 855.25 3124.46C854.214 3124.16 853.448 3123.34 853.448 3122.43L853.448 3118.24C853.448 3117.29 854.206 3116.59 855.045 3116.71C859.202 3117.27 863.054 3119.41 865.867 3122.21C868.689 3125.01 870.402 3128.4 870.402 3131.42L870.402 3162.5C870.402 3168.31 865.262 3176.47 855.068 3177.49C854.205 3177.58 853.448 3176.87 853.448 3175.92Z" stroke="#EBEBEB" stroke-opacity="0.07" stroke-width="1.11913"/>
<path d="M903.398 3116.56H907.26C907.856 3116.56 908.408 3116.88 908.709 3117.39L942.479 3175.07C943.134 3176.19 942.327 3177.6 941.03 3177.6H936.941C936.343 3177.6 935.79 3177.28 935.489 3176.77L901.946 3119.08C901.296 3117.96 902.103 3116.56 903.398 3116.56Z" stroke="#EBEBEB" stroke-opacity="0.07" stroke-width="1.11913"/>
<path d="M916.446 3161.67L914.404 3158.17C913.754 3157.05 912.142 3157.06 911.499 3158.18L901.92 3174.84C901.277 3175.96 902.084 3177.36 903.375 3177.36H907.487C908.09 3177.36 908.647 3177.04 908.946 3176.51L916.454 3163.34C916.751 3162.82 916.748 3162.18 916.446 3161.67Z" stroke="#EBEBEB" stroke-opacity="0.07" stroke-width="1.11913"/>
<path d="M940.842 3116.56H936.919C936.33 3116.56 935.784 3116.87 935.481 3117.37L927.544 3130.56C927.224 3131.09 927.223 3131.75 927.54 3132.28L929.77 3136.02C930.429 3137.13 932.035 3137.11 932.671 3135.99L942.301 3119.07C942.937 3117.95 942.129 3116.56 940.842 3116.56Z" stroke="#EBEBEB" stroke-opacity="0.07" stroke-width="1.11913"/>
<rect x="974.039" y="3116.56" width="8.65013" height="61.0414" rx="1.6787" stroke="#EBEBEB" stroke-opacity="0.07" stroke-width="1.11913"/>
<rect x="1029.94" y="3133.91" width="8.65007" height="43.6942" rx="1.6787" stroke="#EBEBEB" stroke-opacity="0.07" stroke-width="1.11913"/>
<rect x="1012.35" y="3116.56" width="44.3078" height="8.51817" rx="1.6787" stroke="#EBEBEB" stroke-opacity="0.07" stroke-width="1.11913"/>
</g>
<defs>
<filter id="filter0_f_194_189" x="321.44" y="279.44" width="231.341" height="63.2803" filterUnits="userSpaceOnUse" color-interpolation-filters="sRGB">
<feFlood flood-opacity="0" result="BackgroundImageFix"/>
<feBlend mode="normal" in="SourceGraphic" in2="BackgroundImageFix" result="shape"/>
<feGaussianBlur stdDeviation="0.279784" result="effect1_foregroundBlur_194_189"/>
</filter>
<filter id="filter1_f_194_189" x="487.44" y="647.44" width="231.341" height="63.2803" filterUnits="userSpaceOnUse" color-interpolation-filters="sRGB">
<feFlood flood-opacity="0" result="BackgroundImageFix"/>
<feBlend mode="normal" in="SourceGraphic" in2="BackgroundImageFix" result="shape"/>
<feGaussianBlur stdDeviation="0.279784" result="effect1_foregroundBlur_194_189"/>
</filter>
<filter id="filter2_f_194_189" x="1122.44" y="367.44" width="231.341" height="63.2803" filterUnits="userSpaceOnUse" color-interpolation-filters="sRGB">
<feFlood flood-opacity="0" result="BackgroundImageFix"/>
<feBlend mode="normal" in="SourceGraphic" in2="BackgroundImageFix" result="shape"/>
<feGaussianBlur stdDeviation="0.279784" result="effect1_foregroundBlur_194_189"/>
</filter>
<filter id="filter3_f_194_189" x="865.44" y="479.44" width="231.341" height="63.2803" filterUnits="userSpaceOnUse" color-interpolation-filters="sRGB">
<feFlood flood-opacity="0" result="BackgroundImageFix"/>
<feBlend mode="normal" in="SourceGraphic" in2="BackgroundImageFix" result="shape"/>
<feGaussianBlur stdDeviation="0.279784" result="effect1_foregroundBlur_194_189"/>
</filter>
<filter id="filter4_f_194_189" x="47.4404" y="36.4404" width="231.341" height="63.2803" filterUnits="userSpaceOnUse" color-interpolation-filters="sRGB">
<feFlood flood-opacity="0" result="BackgroundImageFix"/>
<feBlend mode="normal" in="SourceGraphic" in2="BackgroundImageFix" result="shape"/>
<feGaussianBlur stdDeviation="0.279784" result="effect1_foregroundBlur_194_189"/>
</filter>
<filter id="filter5_f_194_189" x="826.44" y="55.4404" width="231.341" height="63.2803" filterUnits="userSpaceOnUse" color-interpolation-filters="sRGB">
<feFlood flood-opacity="0" result="BackgroundImageFix"/>
<feBlend mode="normal" in="SourceGraphic" in2="BackgroundImageFix" result="shape"/>
<feGaussianBlur stdDeviation="0.279784" result="effect1_foregroundBlur_194_189"/>
</filter>
<filter id="filter6_f_194_189" x="321.44" y="1044.44" width="231.341" height="63.2803" filterUnits="userSpaceOnUse" color-interpolation-filters="sRGB">
<feFlood flood-opacity="0" result="BackgroundImageFix"/>
<feBlend mode="normal" in="SourceGraphic" in2="BackgroundImageFix" result="shape"/>
<feGaussianBlur stdDeviation="0.279784" result="effect1_foregroundBlur_194_189"/>
</filter>
<filter id="filter7_f_194_189" x="487.44" y="1412.44" width="231.341" height="63.2803" filterUnits="userSpaceOnUse" color-interpolation-filters="sRGB">
<feFlood flood-opacity="0" result="BackgroundImageFix"/>
<feBlend mode="normal" in="SourceGraphic" in2="BackgroundImageFix" result="shape"/>
<feGaussianBlur stdDeviation="0.279784" result="effect1_foregroundBlur_194_189"/>
</filter>
<filter id="filter8_f_194_189" x="1122.44" y="1132.44" width="231.341" height="63.2803" filterUnits="userSpaceOnUse" color-interpolation-filters="sRGB">
<feFlood flood-opacity="0" result="BackgroundImageFix"/>
<feBlend mode="normal" in="SourceGraphic" in2="BackgroundImageFix" result="shape"/>
<feGaussianBlur stdDeviation="0.279784" result="effect1_foregroundBlur_194_189"/>
</filter>
<filter id="filter9_f_194_189" x="865.44" y="1244.44" width="231.341" height="63.2803" filterUnits="userSpaceOnUse" color-interpolation-filters="sRGB">
<feFlood flood-opacity="0" result="BackgroundImageFix"/>
<feBlend mode="normal" in="SourceGraphic" in2="BackgroundImageFix" result="shape"/>
<feGaussianBlur stdDeviation="0.279784" result="effect1_foregroundBlur_194_189"/>
</filter>
<filter id="filter10_f_194_189" x="47.4404" y="801.44" width="231.341" height="63.2803" filterUnits="userSpaceOnUse" color-interpolation-filters="sRGB">
<feFlood flood-opacity="0" result="BackgroundImageFix"/>
<feBlend mode="normal" in="SourceGraphic" in2="BackgroundImageFix" result="shape"/>
<feGaussianBlur stdDeviation="0.279784" result="effect1_foregroundBlur_194_189"/>
</filter>
<filter id="filter11_f_194_189" x="826.44" y="820.44" width="231.341" height="63.2803" filterUnits="userSpaceOnUse" color-interpolation-filters="sRGB">
<feFlood flood-opacity="0" result="BackgroundImageFix"/>
<feBlend mode="normal" in="SourceGraphic" in2="BackgroundImageFix" result="shape"/>
<feGaussianBlur stdDeviation="0.279784" result="effect1_foregroundBlur_194_189"/>
</filter>
<filter id="filter12_f_194_189" x="321.44" y="1809.44" width="231.341" height="63.2803" filterUnits="userSpaceOnUse" color-interpolation-filters="sRGB">
<feFlood flood-opacity="0" result="BackgroundImageFix"/>
<feBlend mode="normal" in="SourceGraphic" in2="BackgroundImageFix" result="shape"/>
<feGaussianBlur stdDeviation="0.279784" result="effect1_foregroundBlur_194_189"/>
</filter>
<filter id="filter13_f_194_189" x="487.44" y="2177.44" width="231.341" height="63.2803" filterUnits="userSpaceOnUse" color-interpolation-filters="sRGB">
<feFlood flood-opacity="0" result="BackgroundImageFix"/>
<feBlend mode="normal" in="SourceGraphic" in2="BackgroundImageFix" result="shape"/>
<feGaussianBlur stdDeviation="0.279784" result="effect1_foregroundBlur_194_189"/>
</filter>
<filter id="filter14_f_194_189" x="1122.44" y="1897.44" width="231.341" height="63.2803" filterUnits="userSpaceOnUse" color-interpolation-filters="sRGB">
<feFlood flood-opacity="0" result="BackgroundImageFix"/>
<feBlend mode="normal" in="SourceGraphic" in2="BackgroundImageFix" result="shape"/>
<feGaussianBlur stdDeviation="0.279784" result="effect1_foregroundBlur_194_189"/>
</filter>
<filter id="filter15_f_194_189" x="865.44" y="2009.44" width="231.341" height="63.2803" filterUnits="userSpaceOnUse" color-interpolation-filters="sRGB">
<feFlood flood-opacity="0" result="BackgroundImageFix"/>
<feBlend mode="normal" in="SourceGraphic" in2="BackgroundImageFix" result="shape"/>
<feGaussianBlur stdDeviation="0.279784" result="effect1_foregroundBlur_194_189"/>
</filter>
<filter id="filter16_f_194_189" x="47.4404" y="1566.44" width="231.341" height="63.2803" filterUnits="userSpaceOnUse" color-interpolation-filters="sRGB">
<feFlood flood-opacity="0" result="BackgroundImageFix"/>
<feBlend mode="normal" in="SourceGraphic" in2="BackgroundImageFix" result="shape"/>
<feGaussianBlur stdDeviation="0.279784" result="effect1_foregroundBlur_194_189"/>
</filter>
<filter id="filter17_f_194_189" x="826.44" y="1585.44" width="231.341" height="63.2803" filterUnits="userSpaceOnUse" color-interpolation-filters="sRGB">
<feFlood flood-opacity="0" result="BackgroundImageFix"/>
<feBlend mode="normal" in="SourceGraphic" in2="BackgroundImageFix" result="shape"/>
<feGaussianBlur stdDeviation="0.279784" result="effect1_foregroundBlur_194_189"/>
</filter>
<filter id="filter18_f_194_189" x="321.44" y="2574.44" width="231.341" height="63.2803" filterUnits="userSpaceOnUse" color-interpolation-filters="sRGB">
<feFlood flood-opacity="0" result="BackgroundImageFix"/>
<feBlend mode="normal" in="SourceGraphic" in2="BackgroundImageFix" result="shape"/>
<feGaussianBlur stdDeviation="0.279784" result="effect1_foregroundBlur_194_189"/>
</filter>
<filter id="filter19_f_194_189" x="487.44" y="2942.44" width="231.341" height="63.2803" filterUnits="userSpaceOnUse" color-interpolation-filters="sRGB">
<feFlood flood-opacity="0" result="BackgroundImageFix"/>
<feBlend mode="normal" in="SourceGraphic" in2="BackgroundImageFix" result="shape"/>
<feGaussianBlur stdDeviation="0.279784" result="effect1_foregroundBlur_194_189"/>
</filter>
<filter id="filter20_f_194_189" x="1122.44" y="2662.44" width="231.341" height="63.2803" filterUnits="userSpaceOnUse" color-interpolation-filters="sRGB">
<feFlood flood-opacity="0" result="BackgroundImageFix"/>
<feBlend mode="normal" in="SourceGraphic" in2="BackgroundImageFix" result="shape"/>
<feGaussianBlur stdDeviation="0.279784" result="effect1_foregroundBlur_194_189"/>
</filter>
<filter id="filter21_f_194_189" x="865.44" y="2774.44" width="231.341" height="63.2803" filterUnits="userSpaceOnUse" color-interpolation-filters="sRGB">
<feFlood flood-opacity="0" result="BackgroundImageFix"/>
<feBlend mode="normal" in="SourceGraphic" in2="BackgroundImageFix" result="shape"/>
<feGaussianBlur stdDeviation="0.279784" result="effect1_foregroundBlur_194_189"/>
</filter>
<filter id="filter22_f_194_189" x="47.4404" y="2331.44" width="231.341" height="63.2803" filterUnits="userSpaceOnUse" color-interpolation-filters="sRGB">
<feFlood flood-opacity="0" result="BackgroundImageFix"/>
<feBlend mode="normal" in="SourceGraphic" in2="BackgroundImageFix" result="shape"/>
<feGaussianBlur stdDeviation="0.279784" result="effect1_foregroundBlur_194_189"/>
</filter>
<filter id="filter23_f_194_189" x="826.44" y="2350.44" width="231.341" height="63.2803" filterUnits="userSpaceOnUse" color-interpolation-filters="sRGB">
<feFlood flood-opacity="0" result="BackgroundImageFix"/>
<feBlend mode="normal" in="SourceGraphic" in2="BackgroundImageFix" result="shape"/>
<feGaussianBlur stdDeviation="0.279784" result="effect1_foregroundBlur_194_189"/>
</filter>
<filter id="filter24_f_194_189" x="321.44" y="3339.44" width="231.341" height="63.2803" filterUnits="userSpaceOnUse" color-interpolation-filters="sRGB">
<feFlood flood-opacity="0" result="BackgroundImageFix"/>
<feBlend mode="normal" in="SourceGraphic" in2="BackgroundImageFix" result="shape"/>
<feGaussianBlur stdDeviation="0.279784" result="effect1_foregroundBlur_194_189"/>
</filter>
<filter id="filter25_f_194_189" x="487.44" y="3707.44" width="231.341" height="63.2803" filterUnits="userSpaceOnUse" color-interpolation-filters="sRGB">
<feFlood flood-opacity="0" result="BackgroundImageFix"/>
<feBlend mode="normal" in="SourceGraphic" in2="BackgroundImageFix" result="shape"/>
<feGaussianBlur stdDeviation="0.279784" result="effect1_foregroundBlur_194_189"/>
</filter>
<filter id="filter26_f_194_189" x="1122.44" y="3427.44" width="231.341" height="63.2803" filterUnits="userSpaceOnUse" color-interpolation-filters="sRGB">
<feFlood flood-opacity="0" result="BackgroundImageFix"/>
<feBlend mode="normal" in="SourceGraphic" in2="BackgroundImageFix" result="shape"/>
<feGaussianBlur stdDeviation="0.279784" result="effect1_foregroundBlur_194_189"/>
</filter>
<filter id="filter27_f_194_189" x="865.44" y="3539.44" width="231.341" height="63.2803" filterUnits="userSpaceOnUse" color-interpolation-filters="sRGB">
<feFlood flood-opacity="0" result="BackgroundImageFix"/>
<feBlend mode="normal" in="SourceGraphic" in2="BackgroundImageFix" result="shape"/>
<feGaussianBlur stdDeviation="0.279784" result="effect1_foregroundBlur_194_189"/>
</filter>
<filter id="filter28_f_194_189" x="47.4404" y="3096.44" width="231.341" height="63.2803" filterUnits="userSpaceOnUse" color-interpolation-filters="sRGB">
<feFlood flood-opacity="0" result="BackgroundImageFix"/>
<feBlend mode="normal" in="SourceGraphic" in2="BackgroundImageFix" result="shape"/>
<feGaussianBlur stdDeviation="0.279784" result="effect1_foregroundBlur_194_189"/>
</filter>
<filter id="filter29_f_194_189" x="826.44" y="3115.44" width="231.341" height="63.2803" filterUnits="userSpaceOnUse" color-interpolation-filters="sRGB">
<feFlood flood-opacity="0" result="BackgroundImageFix"/>
<feBlend mode="normal" in="SourceGraphic" in2="BackgroundImageFix" result="shape"/>
<feGaussianBlur stdDeviation="0.279784" result="effect1_foregroundBlur_194_189"/>
</filter>
</defs>
</svg>
